<svg width="80" height="52" viewBox="0 0 80 52" fill="none" xmlns="http://www.w3.org/2000/svg">
<path d="M3.99951 0.75H75.9995C76.966 0.75 77.7495 1.5335 77.7495 2.5V48.5C77.7495 49.4665 76.966 50.25 75.9995 50.25H3.99951C3.03301 50.25 2.24951 49.4665 2.24951 48.5V2.5C2.24951 1.5335 3.03301 0.75 3.99951 0.75Z" fill="#F9F9F9" stroke="#3F3D56" stroke-width="0.5"/>
<path d="M26.3253 8.25171H11.5796V24.2495H26.3253V8.25171Z" fill="#E6E6E6"/>
<path d="M47.3721 8.25171H32.6265V24.2495H47.3721V8.25171Z" fill="#E6E6E6"/>
<path d="M68.419 8.25171H53.6733V24.2495H68.419V8.25171Z" fill="#E6E6E6"/>
<path d="M26.3253 27.145H11.5796V43.1428H26.3253V27.145Z" fill="#E6E6E6"/>
<path d="M47.3721 27.145H32.6265V43.1428H47.3721V27.145Z" fill="#E6E6E6"/>
<path d="M68.419 27.145H53.6733V43.1428H68.419V27.145Z" fill="#E6E6E6"/>
<path d="M36.1905 31.2566L38.8847 30.1914L39.198 35.5172C39.198 35.5172 39.7619 37.1462 39.5739 37.7728C39.5739 37.7728 39.6992 38.838 39.3859 38.9006C39.0726 38.9632 38.1952 39.0886 38.1332 39.0259C38.0712 38.9631 38.0706 38.7752 38.0706 38.7752C38.0706 38.7752 37.444 39.2138 37.3813 39.715C37.3813 39.715 34.7498 40.5295 34.6871 39.7776C34.6245 39.0258 36.0029 38.3992 36.0029 38.3992L37.068 36.7701L36.1905 31.2566Z" fill="white"/>
<path d="M41.894 31.2566L44.5878 30.1914L44.9011 35.5172C44.9011 35.5172 45.465 37.1462 45.2771 37.7728C45.2771 37.7728 45.4023 38.838 45.089 38.9006C44.7757 38.9632 43.8983 39.0886 43.8363 39.0259C43.7743 38.9631 43.7737 38.7752 43.7737 38.7752C43.7737 38.7752 43.1471 39.2138 43.0845 39.715C43.0845 39.715 40.4529 40.5295 40.3903 39.7776C40.3276 39.0258 41.706 38.3992 41.706 38.3992L42.7712 36.7701L41.894 31.2566Z" fill="white"/>
<path d="M42.1559 10.6903C42.1559 10.6903 41.5822 12.2932 42.2469 13.0161L41.6927 14.9203C41.6927 14.9203 43.6616 20.8269 43.0991 21.652C43.0991 21.652 40.999 22.702 36.7983 21.2769L38.5046 14.6578L38.2609 11.8638L38.5984 10.5512L39.3484 10.4768C39.3484 10.4768 38.8984 12.1644 39.7235 12.4269C40.5485 12.6895 41.3534 10.519 41.3534 10.519L42.1559 10.6903Z" fill="#3F3D56"/>
<path d="M15.6636 21.0378L16.3875 21.334L19.8428 16.7928L20.9287 22.1237L21.6527 21.9921C22.117 17.3961 22.4961 12.7084 22.0311 10.4912L19.3492 10.376L18.1317 14.2595L17.5393 16.8921L15.6636 21.0378Z" fill="#44D600"/>
<path d="M15.6636 21.0378L16.3875 21.334L19.8428 16.7928L20.9287 22.1237L21.6527 21.9921C22.117 17.3961 22.4961 12.7084 22.0311 10.4912L19.3492 10.376L18.1317 14.2595L17.5393 16.8921L15.6636 21.0378Z" fill="white" fill-opacity="0.4"/>
<path d="M59.6012 10.4551C59.6012 10.4551 58.6131 11.8286 58.6614 12.3829C58.7096 12.9372 59.3361 21.9738 59.3361 21.9738L60.8061 22.0461L60.372 15.5397L60.7334 13.7806L61.6251 21.9738L63.4325 22.0221L61.818 11.395L61.5047 10.4552L59.6012 10.4551Z" fill="white"/>
<path d="M65.1867 32.5829C64.9244 32.2681 64.4734 32.0979 64.0404 32.0059C64.0528 31.9665 62.7235 31.6918 62.7009 31.7484L62.1997 31.3491L60.6596 32.1487L59.7942 31.5596L59.3922 31.7022C59.4086 31.6313 58.1444 31.8503 58.1444 31.8503C57.9029 31.859 57.5944 31.8741 57.2491 31.9007C56.0399 31.9937 55.9468 35.1255 55.9468 35.1255C56.5031 34.8979 57.0963 34.7737 57.6972 34.759L58.024 38.5047C59.705 38.3606 61.468 38.5283 63.2954 38.9388L64.1523 35.9943L66.1478 35.2183C66.1478 35.2183 65.8069 33.3269 65.1867 32.5829Z" fill="#44D600"/>
<path d="M65.1867 32.5829C64.9244 32.2681 64.4734 32.0979 64.0404 32.0059C64.0528 31.9665 62.7235 31.6918 62.7009 31.7484L62.1997 31.3491L60.6596 32.1487L59.7942 31.5596L59.3922 31.7022C59.4086 31.6313 58.1444 31.8503 58.1444 31.8503C57.9029 31.859 57.5944 31.8741 57.2491 31.9007C56.0399 31.9937 55.9468 35.1255 55.9468 35.1255C56.5031 34.8979 57.0963 34.7737 57.6972 34.759L58.024 38.5047C59.705 38.3606 61.468 38.5283 63.2954 38.9388L64.1523 35.9943L66.1478 35.2183C66.1478 35.2183 65.8069 33.3269 65.1867 32.5829Z" fill="white" fill-opacity="0.5"/>
<path d="M22.3627 30.7991C22.1465 30.5398 21.775 30.3995 21.4182 30.3237C21.4288 30.2912 20.333 30.065 20.3143 30.1116L19.9013 29.7827L18.6325 30.4416L17.9195 29.9562L17.5883 30.0738C17.6019 30.0154 16.5601 30.1957 16.5601 30.1957C16.3617 30.2029 16.1069 30.2153 15.8225 30.2373C14.8262 30.3139 14.7495 32.8942 14.7495 32.8942C15.2079 32.7066 15.6967 32.6043 16.1919 32.5921L16.4611 40.1474C17.8462 40.0285 19.2988 40.1668 20.8041 40.5051L21.5101 33.6102L23.1543 32.9708C23.1543 32.9708 22.8735 31.4125 22.3627 30.7991Z" fill="white"/>
</svg>
