<svg width="80" height="54" viewBox="0 0 80 54" fill="none" xmlns="http://www.w3.org/2000/svg">
<path d="M37.6117 53.0947H2.37646C1.74635 53.094 1.14228 52.8433 0.696758 52.3977C0.251238 51.9521 0.000658178 51.348 0 50.7179V28.7501C0.00238196 26.6432 0.840435 24.6232 2.33029 23.1334C3.82014 21.6436 5.84012 20.8056 7.94706 20.8032H37.6117C38.2417 20.804 38.8458 21.0546 39.2913 21.5001C39.7368 21.9456 39.9874 22.5496 39.9881 23.1797V50.7179C39.9875 51.348 39.7369 51.9521 39.2914 52.3977C38.8458 52.8433 38.2418 53.094 37.6117 53.0947ZM7.94706 21.4931C6.02303 21.4953 4.17844 22.2606 2.81793 23.621C1.45741 24.9815 0.692093 26.8261 0.689863 28.7501V50.7179C0.690341 51.1651 0.86818 51.5939 1.18436 51.9101C1.50055 52.2264 1.92926 52.4043 2.37646 52.4049H37.6117C38.0589 52.4043 38.4876 52.2264 38.8038 51.9101C39.1199 51.5939 39.2978 51.1651 39.2983 50.7179V23.1797C39.2978 22.7325 39.1199 22.3038 38.8037 21.9876C38.4875 21.6714 38.0588 21.4936 37.6117 21.4931H7.94706Z" fill="#3F3D56"/>
<path d="M9.11272 22.3662C7.17861 22.3684 5.32434 23.1377 3.95672 24.5053C2.5891 25.8729 1.81981 27.7272 1.81763 29.6613V49.8071C1.81816 50.2644 2.00004 50.7027 2.32336 51.026C2.64668 51.3494 3.08504 51.5312 3.54228 51.5318H36.446C36.9033 51.5312 37.3416 51.3494 37.6649 51.026C37.9883 50.7027 38.1701 50.2644 38.1707 49.8071V24.0909C38.1701 23.6336 37.9883 23.1953 37.6649 22.8719C37.3416 22.5486 36.9033 22.3667 36.446 22.3662H9.11272Z" fill="#44D600"/>
<path d="M9.11272 22.3662C7.17861 22.3684 5.32434 23.1377 3.95672 24.5053C2.5891 25.8729 1.81981 27.7272 1.81763 29.6613V49.8071C1.81816 50.2644 2.00004 50.7027 2.32336 51.026C2.64668 51.3494 3.08504 51.5312 3.54228 51.5318H36.446C36.9033 51.5312 37.3416 51.3494 37.6649 51.026C37.9883 50.7027 38.1701 50.2644 38.1707 49.8071V24.0909C38.1701 23.6336 37.9883 23.1953 37.6649 22.8719C37.3416 22.5486 36.9033 22.3667 36.446 22.3662H9.11272Z" fill="white" fill-opacity="0.8"/>
<path d="M22.5289 28.9464H17.6426C17.414 28.9461 17.1948 28.8552 17.0331 28.6936C16.8714 28.5319 16.7805 28.3127 16.7803 28.0841V20.124H23.3912V28.0841C23.391 28.3127 23.3001 28.5319 23.1384 28.6936C22.9767 28.8552 22.7575 28.9461 22.5289 28.9464Z" fill="#3F3D56"/>
<path d="M49.4372 28.6846C47.7375 28.6865 46.1079 29.3625 44.9061 30.5644C43.7042 31.7662 43.0281 33.3957 43.0261 35.0954V49.8079C43.0267 50.2652 43.2085 50.7035 43.5319 51.0268C43.8552 51.3502 44.2935 51.532 44.7508 51.5326H69.8159C70.2731 51.532 70.7115 51.3502 71.0348 51.0268C71.3582 50.7035 71.54 50.2652 71.5406 49.8079V30.4092C71.54 29.952 71.3582 29.5136 71.0348 29.1903C70.7115 28.867 70.2731 28.6851 69.8159 28.6846H49.4372Z" fill="#44D600"/>
<path d="M49.4372 28.6846C47.7375 28.6865 46.1079 29.3625 44.9061 30.5644C43.7042 31.7662 43.0281 33.3957 43.0261 35.0954V49.8079C43.0267 50.2652 43.2085 50.7035 43.5319 51.0268C43.8552 51.3502 44.2935 51.532 44.7508 51.5326H69.8159C70.2731 51.532 70.7115 51.3502 71.0348 51.0268C71.3582 50.7035 71.54 50.2652 71.5406 49.8079V30.4092C71.54 29.952 71.3582 29.5136 71.0348 29.1903C70.7115 28.867 70.2731 28.6851 69.8159 28.6846H49.4372Z" fill="white" fill-opacity="0.4"/>
<path d="M75.4328 27.2129H50.0992C49.4564 27.2122 48.8402 26.9565 48.3856 26.502C47.9311 26.0476 47.6754 25.4313 47.6746 24.7886V3.52375C47.6753 2.88092 47.931 2.26463 48.3855 1.81008C48.8401 1.35553 49.4564 1.09985 50.0992 1.09912H72.7062C74.6399 1.10128 76.4939 1.87042 77.8612 3.23779C79.2286 4.60517 79.9978 6.45911 79.9999 8.39287V22.6459C79.9985 23.8567 79.5169 25.0176 78.6607 25.8737C77.8045 26.7299 76.6436 27.2115 75.4328 27.2129ZM50.0992 1.78899C49.6393 1.78951 49.1983 1.97245 48.8731 2.29767C48.5479 2.62288 48.3649 3.06383 48.3644 3.52376V24.7886C48.365 25.2484 48.548 25.6893 48.8732 26.0145C49.1984 26.3396 49.6393 26.5225 50.0992 26.523H75.4328C76.4607 26.5219 77.4463 26.113 78.1731 25.3862C78.9 24.6593 79.3089 23.6738 79.3101 22.6459V8.39287C79.3081 6.64203 78.6116 4.96347 77.3736 3.72543C76.1356 2.4874 74.457 1.79099 72.7062 1.78898L50.0992 1.78899Z" fill="#3F3D56"/>
<path d="M71.0216 53.1655H43.5455C42.9027 53.1648 42.2864 52.9092 41.8319 52.4547C41.3774 52.0002 41.1216 51.384 41.1208 50.7412V34.1629C41.1229 32.2776 41.8728 30.4701 43.2059 29.1369C44.539 27.8038 46.3465 27.0539 48.2319 27.0518H71.0216C71.6644 27.0525 72.2807 27.3082 72.7353 27.7627C73.1898 28.2173 73.4455 28.8336 73.4462 29.4764V50.7412C73.4454 51.384 73.1897 52.0002 72.7352 52.4547C72.2806 52.9092 71.6644 53.1648 71.0216 53.1655ZM48.2319 27.7416C46.5294 27.7436 44.8973 28.4208 43.6935 29.6246C42.4898 30.8284 41.8126 32.4605 41.8107 34.1629V50.7412C41.8113 51.2011 41.9943 51.6419 42.3195 51.9671C42.6447 52.2922 43.0856 52.4751 43.5455 52.4756H71.0216C71.4815 52.4751 71.9224 52.2922 72.2476 51.9671C72.5728 51.6419 72.7558 51.2011 72.7563 50.7412V29.4764C72.7558 29.0165 72.5729 28.5755 72.2477 28.2503C71.9225 27.9251 71.4815 27.7421 71.0216 27.7416H48.2319Z" fill="#3F3D56"/>
<path d="M51.3045 2.73193C50.8472 2.73247 50.4089 2.91435 50.0856 3.23767C49.7622 3.56099 49.5804 3.99935 49.5798 4.45659V23.8553C49.5804 24.3125 49.7622 24.7509 50.0856 25.0742C50.4089 25.3975 50.8472 25.5794 51.3045 25.5799H74.2271C75.2524 25.5788 76.2354 25.171 76.9604 24.4459C77.6854 23.7209 78.0932 22.7379 78.0943 21.7126V9.32572C78.0923 7.57751 77.3969 5.90148 76.1608 4.66533C74.9246 3.42918 73.2485 2.73387 71.5003 2.73193H51.3045Z" fill="#F2F2F2"/>
<path d="M65.6899 7.86328H62.1294C61.9008 7.86303 61.6816 7.77212 61.5199 7.61045C61.3583 7.44878 61.2673 7.22958 61.2671 7.00095V0.834961H66.5522V7.00095C66.552 7.22958 66.4611 7.44878 66.2994 7.61045C66.1377 7.77212 65.9185 7.86303 65.6899 7.86328Z" fill="#3F3D56"/>
<path d="M10.8469 46.4911H1.47262C1.38114 46.4911 1.29341 46.4548 1.22872 46.3901C1.16403 46.3254 1.12769 46.2377 1.12769 46.1462C1.12769 46.0547 1.16403 45.967 1.22872 45.9023C1.29341 45.8376 1.38114 45.8013 1.47262 45.8013H10.8469C10.9384 45.8013 11.0261 45.8376 11.0908 45.9023C11.1555 45.967 11.1918 46.0547 11.1918 46.1462C11.1918 46.2377 11.1555 46.3254 11.0908 46.3901C11.0261 46.4548 10.9384 46.4911 10.8469 46.4911Z" fill="#3F3D56"/>
<path d="M52.2387 45.8012H42.8645C42.773 45.8012 42.6853 45.7648 42.6206 45.7002C42.5559 45.6355 42.5195 45.5477 42.5195 45.4563C42.5195 45.3648 42.5559 45.277 42.6206 45.2124C42.6853 45.1477 42.773 45.1113 42.8645 45.1113H52.2387C52.3302 45.1113 52.418 45.1477 52.4827 45.2124C52.5473 45.277 52.5837 45.3648 52.5837 45.4563C52.5837 45.5477 52.5473 45.6355 52.4827 45.7002C52.418 45.7648 52.3302 45.8012 52.2387 45.8012Z" fill="#3F3D56"/>
<path d="M58.7925 20.9662H49.4182C49.3267 20.9662 49.239 20.9299 49.1743 20.8652C49.1096 20.8005 49.0732 20.7128 49.0732 20.6213C49.0732 20.5298 49.1096 20.4421 49.1743 20.3774C49.239 20.3127 49.3267 20.2764 49.4182 20.2764H58.7925C58.8839 20.2764 58.9717 20.3127 59.0364 20.3774C59.1011 20.4421 59.1374 20.5298 59.1374 20.6213C59.1374 20.7128 59.1011 20.8005 59.0364 20.8652C58.9717 20.9299 58.8839 20.9662 58.7925 20.9662Z" fill="#3F3D56"/>
<path d="M58.7925 18.207H49.4182C49.3267 18.207 49.239 18.1706 49.1743 18.1059C49.1096 18.0412 49.0732 17.9535 49.0732 17.862C49.0732 17.7705 49.1096 17.6828 49.1743 17.6181C49.239 17.5534 49.3267 17.5171 49.4182 17.5171H58.7925C58.8839 17.5171 58.9717 17.5534 59.0364 17.6181C59.1011 17.6828 59.1374 17.7705 59.1374 17.862C59.1374 17.9535 59.1011 18.0412 59.0364 18.1059C58.9717 18.1706 58.8839 18.207 58.7925 18.207Z" fill="#3F3D56"/>
<path d="M59.1362 33.6582H55.5757C55.3471 33.658 55.1279 33.567 54.9662 33.4054C54.8045 33.2437 54.7136 33.0245 54.7134 32.7959V26.6299H59.9985V32.7959C59.9983 33.0245 59.9073 33.2437 59.7457 33.4054C59.584 33.567 59.3648 33.658 59.1362 33.6582Z" fill="#3F3D56"/>
</svg>
