<svg width="80" height="60" viewBox="0 0 80 60" fill="none" xmlns="http://www.w3.org/2000/svg">
<path d="M80 4.20496V13.2391H79.7623V13.1428H0.237741V13.2391H0V4.20496C0.00102091 3.1649 0.414635 2.16773 1.15007 1.4323C1.8855 0.696862 2.88267 0.283247 3.92273 0.282227H76.0773C77.1173 0.283247 78.1145 0.696862 78.8499 1.4323C79.5854 2.16773 79.999 3.1649 80 4.20496Z" fill="#44D600"/>
<path d="M76.0773 0.282227H3.92273C2.88267 0.283247 1.8855 0.696862 1.15007 1.4323C0.414635 2.16773 0.00102091 3.1649 0 4.20496V55.7949C0.00102091 56.8349 0.414635 57.8321 1.15007 58.5675C1.8855 59.303 2.88267 59.7166 3.92273 59.7176H76.0773C77.1173 59.7166 78.1145 59.303 78.8499 58.5675C79.5854 57.8321 79.999 56.8349 80 55.7949V4.20496C79.999 3.1649 79.5854 2.16773 78.8499 1.4323C78.1145 0.696862 77.1173 0.283247 76.0773 0.282227ZM79.7623 55.7949C79.761 56.7718 79.3724 57.7084 78.6816 58.3992C77.9908 59.09 77.0542 59.4786 76.0773 59.4799H3.92273C2.9458 59.4786 2.00923 59.09 1.31843 58.3992C0.627626 57.7084 0.238988 56.7718 0.237741 55.7949V4.20496C0.238988 3.22802 0.627626 2.29146 1.31843 1.60066C2.00923 0.909855 2.9458 0.521215 3.92273 0.519968H76.0773C77.0542 0.521215 77.9908 0.909855 78.6816 1.60066C79.3724 2.29146 79.761 3.22802 79.7623 4.20496V55.7949Z" fill="#3F3D56"/>
<path d="M16.1667 9.13813C17.4797 9.13813 18.5441 8.07373 18.5441 6.76072C18.5441 5.44771 17.4797 4.3833 16.1667 4.3833C14.8537 4.3833 13.7893 5.44771 13.7893 6.76072C13.7893 8.07373 14.8537 9.13813 16.1667 9.13813Z" fill="white"/>
<path d="M63.8342 9.13813C65.1472 9.13813 66.2116 8.07373 66.2116 6.76072C66.2116 5.44771 65.1472 4.3833 63.8342 4.3833C62.5212 4.3833 61.4568 5.44771 61.4568 6.76072C61.4568 8.07373 62.5212 9.13813 63.8342 9.13813Z" fill="white"/>
<path d="M23.0355 33.2692H8.89272C8.29356 33.2685 7.71914 33.0302 7.29547 32.6065C6.8718 32.1828 6.63349 31.6084 6.63281 31.0093V24.3248C6.63349 23.7257 6.8718 23.1513 7.29547 22.7276C7.71914 22.3039 8.29356 22.0656 8.89272 22.0649H23.0355C23.6347 22.0656 24.2091 22.3039 24.6327 22.7276C25.0564 23.1513 25.2947 23.7257 25.2954 24.3248V31.0093C25.2947 31.6084 25.0564 32.1828 24.6327 32.6065C24.2091 33.0302 23.6347 33.2685 23.0355 33.2692Z" fill="#44D600"/>
<path d="M23.0355 33.2692H8.89272C8.29356 33.2685 7.71914 33.0302 7.29547 32.6065C6.8718 32.1828 6.63349 31.6084 6.63281 31.0093V24.3248C6.63349 23.7257 6.8718 23.1513 7.29547 22.7276C7.71914 22.3039 8.29356 22.0656 8.89272 22.0649H23.0355C23.6347 22.0656 24.2091 22.3039 24.6327 22.7276C25.0564 23.1513 25.2947 23.7257 25.2954 24.3248V31.0093C25.2947 31.6084 25.0564 32.1828 24.6327 32.6065C24.2091 33.0302 23.6347 33.2685 23.0355 33.2692Z" fill="white" fill-opacity="0.8"/>
<path d="M47.0956 33.2692H32.9528C32.3536 33.2685 31.7792 33.0302 31.3555 32.6065C30.9319 32.1828 30.6935 31.6084 30.6929 31.0093V24.3248C30.6935 23.7257 30.9319 23.1513 31.3555 22.7276C31.7792 22.3039 32.3536 22.0656 32.9528 22.0649H47.0956C47.6947 22.0656 48.2691 22.3039 48.6928 22.7276C49.1165 23.1513 49.3548 23.7257 49.3555 24.3248V31.0093C49.3548 31.6084 49.1165 32.1828 48.6928 32.6065C48.2691 33.0302 47.6947 33.2685 47.0956 33.2692Z" fill="#44D600"/>
<path d="M47.0956 33.2692H32.9528C32.3536 33.2685 31.7792 33.0302 31.3555 32.6065C30.9319 32.1828 30.6935 31.6084 30.6929 31.0093V24.3248C30.6935 23.7257 30.9319 23.1513 31.3555 22.7276C31.7792 22.3039 32.3536 22.0656 32.9528 22.0649H47.0956C47.6947 22.0656 48.2691 22.3039 48.6928 22.7276C49.1165 23.1513 49.3548 23.7257 49.3555 24.3248V31.0093C49.3548 31.6084 49.1165 32.1828 48.6928 32.6065C48.2691 33.0302 47.6947 33.2685 47.0956 33.2692Z" fill="white" fill-opacity="0.8"/>
<path d="M47.0957 50.54H32.9529C32.3356 50.5393 31.7438 50.2938 31.3072 49.8572C30.8707 49.4207 30.6252 48.8289 30.6245 48.2116V41.5271C30.6252 40.9098 30.8707 40.318 31.3072 39.8815C31.7438 39.445 32.3356 39.1994 32.9529 39.1987H47.0957C47.713 39.1994 48.3048 39.445 48.7413 39.8815C49.1778 40.318 49.4234 40.9098 49.4241 41.5271V48.2116C49.4234 48.8289 49.1778 49.4207 48.7413 49.8572C48.3048 50.2937 47.713 50.5393 47.0957 50.54Z" fill="#F2F2F2"/>
<path d="M22.9892 50.54H8.84645C8.22914 50.5393 7.63731 50.2937 7.2008 49.8572C6.76429 49.4207 6.51876 48.8289 6.51807 48.2116V41.5271C6.51876 40.9098 6.76429 40.318 7.2008 39.8815C7.63731 39.445 8.22914 39.1994 8.84645 39.1987H22.9892C23.6066 39.1994 24.1984 39.445 24.6349 39.8815C25.0714 40.318 25.3169 40.9098 25.3176 41.5271V48.2116C25.3169 48.8289 25.0714 49.4207 24.6349 49.8572C24.1984 50.2937 23.6066 50.5393 22.9892 50.54Z" fill="#F2F2F2"/>
<path d="M71.1543 50.54H57.0115C56.3942 50.5393 55.8023 50.2937 55.3658 49.8572C54.9293 49.4207 54.6838 48.8289 54.6831 48.2116V41.5271C54.6838 40.9098 54.9293 40.318 55.3658 39.8815C55.8023 39.445 56.3942 39.1994 57.0115 39.1987H71.1543C71.7716 39.1994 72.3634 39.445 72.7999 39.8815C73.2364 40.318 73.482 40.9098 73.4827 41.5271V48.2116C73.482 48.8289 73.2364 49.4207 72.7999 49.8572C72.3634 50.2937 71.7716 50.5393 71.1543 50.54Z" fill="#F2F2F2"/>
<path d="M71.1543 33.2827H57.0115C56.3942 33.282 55.8023 33.0364 55.3658 32.5999C54.9293 32.1634 54.6838 31.5716 54.6831 30.9543V24.2698C54.6838 23.6525 54.9293 23.0607 55.3658 22.6241C55.8023 22.1876 56.3942 21.9421 57.0115 21.9414H71.1543C71.7716 21.9421 72.3634 22.1876 72.7999 22.6241C73.2364 23.0607 73.482 23.6525 73.4827 24.2698V30.9543C73.482 31.5716 73.2364 32.1634 72.7999 32.5999C72.3634 33.0364 71.7716 33.282 71.1543 33.2827Z" fill="#F2F2F2"/>
<path d="M15.9629 31.502C18.0809 31.502 19.7979 29.785 19.7979 27.667C19.7979 25.549 18.0809 23.832 15.9629 23.832C13.8449 23.832 12.1279 25.549 12.1279 27.667C12.1279 29.785 13.8449 31.502 15.9629 31.502Z" fill="white"/>
<path d="M15.5847 29.13C15.4985 29.1302 15.4145 29.1023 15.3454 29.0505L15.3412 29.0473L14.4399 28.3573C14.3981 28.3253 14.363 28.2854 14.3366 28.2399C14.3103 28.1944 14.2931 28.1441 14.2862 28.092C14.2793 28.0398 14.2827 27.9868 14.2963 27.936C14.3098 27.8851 14.3333 27.8375 14.3653 27.7957C14.3973 27.7539 14.4372 27.7189 14.4828 27.6925C14.5283 27.6662 14.5786 27.6491 14.6308 27.6422C14.6829 27.6354 14.7359 27.6388 14.7868 27.6525C14.8376 27.6661 14.8852 27.6896 14.927 27.7216L15.5107 28.1692L16.8902 26.3701C16.9222 26.3284 16.9621 26.2934 17.0077 26.2671C17.0532 26.2408 17.1035 26.2237 17.1556 26.2168C17.2077 26.2099 17.2607 26.2134 17.3115 26.227C17.3623 26.2406 17.4099 26.264 17.4516 26.296L17.443 26.3077L17.4518 26.2962C17.536 26.3609 17.5911 26.4563 17.605 26.5616C17.6189 26.6668 17.5904 26.7733 17.5259 26.8576L15.9033 28.9738C15.8658 29.0225 15.8175 29.062 15.7623 29.0891C15.707 29.1162 15.6463 29.1302 15.5847 29.13Z" fill="#6C63FF"/>
<path d="M40.0896 31.4468C42.2076 31.4468 43.9246 29.7298 43.9246 27.6118C43.9246 25.4938 42.2076 23.7769 40.0896 23.7769C37.9716 23.7769 36.2546 25.4938 36.2546 27.6118C36.2546 29.7298 37.9716 31.4468 40.0896 31.4468Z" fill="white"/>
<path d="M39.7111 29.0748C39.6249 29.075 39.5409 29.0471 39.4718 28.9954L39.4676 28.9921L38.5663 28.3021C38.482 28.2375 38.4268 28.1421 38.4129 28.0368C38.399 27.9315 38.4274 27.825 38.492 27.7408C38.5566 27.6565 38.652 27.6013 38.7573 27.5873C38.8626 27.5734 38.9691 27.6019 39.0534 27.6664L39.6371 28.1141L41.0166 26.315C41.0486 26.2732 41.0885 26.2382 41.1341 26.2119C41.1796 26.1856 41.2298 26.1685 41.282 26.1616C41.3341 26.1548 41.3871 26.1582 41.4379 26.1718C41.4887 26.1854 41.5363 26.2089 41.578 26.2409L41.5694 26.2525L41.5782 26.241C41.6624 26.3057 41.7175 26.4012 41.7314 26.5064C41.7453 26.6117 41.7168 26.7181 41.6523 26.8024L40.0297 28.9186C39.9922 28.9674 39.9439 29.0068 39.8887 29.0339C39.8334 29.061 39.7727 29.075 39.7111 29.0748Z" fill="#6C63FF"/>
</svg>
