<svg width="62" height="76" viewBox="0 0 62 76" fill="none" xmlns="http://www.w3.org/2000/svg">
<path d="M45.5391 17.4886C45.3695 17.063 45.0855 16.6993 44.7223 16.4424C44.3591 16.1856 43.9326 16.047 43.4956 16.0437H2.70623C2.1199 16.044 1.55768 16.2903 1.14308 16.7285C0.728487 17.1666 0.495429 17.7608 0.495117 18.3804V72.9134C0.495429 73.533 0.728487 74.1272 1.14308 74.5653C1.55768 75.0034 2.1199 75.2497 2.70623 75.2501H43.4971C44.0832 75.2492 44.6452 75.0028 45.0597 74.5648C45.4742 74.1267 45.7074 73.5329 45.7082 72.9134V18.3804C45.7091 18.0743 45.6521 17.7711 45.5406 17.4886H45.5391Z" fill="#E6E6E6"/>
<path d="M42.217 72.1884H4.0976C3.5483 72.1878 3.11816 71.5527 3.11816 70.7426V20.156C3.11874 19.3452 3.54916 18.7102 4.0976 18.7102H42.217C42.7666 18.711 43.1967 19.3459 43.1967 20.156V70.7426C43.1962 71.5533 42.7657 72.1884 42.217 72.1884Z" fill="white"/>
<path d="M45.5391 17.4886C45.3695 17.063 45.0855 16.6993 44.7223 16.4424C44.3591 16.1856 43.9326 16.047 43.4956 16.0437H2.70623C2.1199 16.044 1.55768 16.2903 1.14308 16.7285C0.728487 17.1666 0.495429 17.7608 0.495117 18.3804V72.9134C0.495429 73.533 0.728487 74.1272 1.14308 74.5653C1.55768 75.0034 2.1199 75.2497 2.70623 75.2501H43.4971C44.0832 75.2492 44.6452 75.0028 45.0597 74.5648C45.4742 74.1267 45.7074 73.5329 45.7082 72.9134V18.3804C45.7091 18.0743 45.6521 17.7711 45.5406 17.4886H45.5391ZM45.2156 72.9134C45.2151 73.3953 45.0337 73.8573 44.7113 74.1981C44.3888 74.5389 43.9516 74.7306 43.4956 74.7312H2.70623C2.25016 74.7311 1.81278 74.5396 1.49023 74.1989C1.16769 73.8581 0.986377 73.396 0.986143 72.914V18.3807C0.986765 17.8988 1.16819 17.4368 1.49063 17.0961C1.81307 16.7553 2.25023 16.5636 2.70623 16.5629H43.4971C43.8406 16.5643 44.1759 16.6738 44.4603 16.8775C44.7446 17.0812 44.9651 17.3697 45.0936 17.7064C45.1187 17.7735 45.1403 17.842 45.1583 17.9115C45.1974 18.0645 45.2171 18.2223 45.2171 18.3807L45.2156 72.9134Z" fill="#3F3D56"/>
<path d="M37.0261 28.9188H24.7398C24.4791 28.9188 24.2291 28.8094 24.0447 28.6146C23.8604 28.4198 23.7568 28.1556 23.7568 27.8801C23.7568 27.6046 23.8604 27.3404 24.0447 27.1456C24.2291 26.9508 24.4791 26.8413 24.7398 26.8413H37.0261C37.2868 26.8413 37.5368 26.9508 37.7212 27.1456C37.9055 27.3404 38.0091 27.6046 38.0091 27.8801C38.0091 28.1556 37.9055 28.4198 37.7212 28.6146C37.5368 28.8094 37.2868 28.9188 37.0261 28.9188Z" fill="#3F3D56"/>
<path d="M37.0261 34.372H24.7398C24.4791 34.372 24.2291 34.2625 24.0447 34.0677C23.8604 33.8729 23.7568 33.6087 23.7568 33.3332C23.7568 33.0577 23.8604 32.7935 24.0447 32.5987C24.2291 32.4039 24.4791 32.2944 24.7398 32.2944H37.0261C37.2868 32.2944 37.5368 32.4039 37.7212 32.5987C37.9055 32.7935 38.0091 33.0577 38.0091 33.3332C38.0091 33.6087 37.9055 33.8729 37.7212 34.0677C37.5368 34.2625 37.2868 34.372 37.0261 34.372Z" fill="#3F3D56"/>
<path d="M18.4352 37.4771H9.45643C9.16324 37.4768 8.88214 37.3536 8.67482 37.1345C8.4675 36.9154 8.3509 36.6183 8.35059 36.3085V25.111C8.3509 24.8012 8.4675 24.5041 8.67482 24.285C8.88214 24.0659 9.16324 23.9427 9.45643 23.9424H18.4352C18.7284 23.9427 19.0095 24.0659 19.2168 24.285C19.4242 24.5041 19.5408 24.8012 19.5411 25.111V36.3085C19.5408 36.6183 19.4242 36.9154 19.2168 37.1345C19.0095 37.3536 18.7284 37.4768 18.4352 37.4771Z" fill="#44D600"/>
<path d="M18.4352 37.4771H9.45643C9.16324 37.4768 8.88214 37.3536 8.67482 37.1345C8.4675 36.9154 8.3509 36.6183 8.35059 36.3085V25.111C8.3509 24.8012 8.4675 24.5041 8.67482 24.285C8.88214 24.0659 9.16324 23.9427 9.45643 23.9424H18.4352C18.7284 23.9427 19.0095 24.0659 19.2168 24.285C19.4242 24.5041 19.5408 24.8012 19.5411 25.111V36.3085C19.5408 36.6183 19.4242 36.9154 19.2168 37.1345C19.0095 37.3536 18.7284 37.4768 18.4352 37.4771Z" fill="white" fill-opacity="0.8"/>
<path d="M36.9404 45.5385H9.17336C8.91267 45.5385 8.66266 45.429 8.47832 45.2342C8.29398 45.0394 8.19043 44.7752 8.19043 44.4997C8.19043 44.2242 8.29398 43.96 8.47832 43.7652C8.66266 43.5704 8.91267 43.4609 9.17336 43.4609H36.9404C37.2011 43.4609 37.4511 43.5704 37.6355 43.7652C37.8198 43.96 37.9234 44.2242 37.9234 44.4997C37.9234 44.7752 37.8198 45.0394 37.6355 45.2342C37.4511 45.429 37.2011 45.5385 36.9404 45.5385Z" fill="#E6E6E6"/>
<path d="M36.9412 50.9918H9.17414C8.91345 50.9926 8.66314 50.8839 8.47829 50.6896C8.29344 50.4954 8.1892 50.2315 8.18848 49.956C8.18776 49.6805 8.29063 49.4159 8.47445 49.2206C8.65828 49.0252 8.90799 48.9151 9.16868 48.9143H36.9412C37.2019 48.9143 37.4519 49.0238 37.6362 49.2186C37.8206 49.4134 37.9241 49.6776 37.9241 49.9531C37.9241 50.2286 37.8206 50.4928 37.6362 50.6876C37.4519 50.8824 37.2019 50.9918 36.9412 50.9918Z" fill="#E6E6E6"/>
<path d="M36.9404 56.445H9.17336C8.91267 56.445 8.66266 56.3355 8.47832 56.1407C8.29398 55.9459 8.19043 55.6817 8.19043 55.4062C8.19043 55.1307 8.29398 54.8665 8.47832 54.6717C8.66266 54.4769 8.91267 54.3674 9.17336 54.3674H36.9404C37.2011 54.3667 37.4514 54.4754 37.6363 54.6696C37.8211 54.8639 37.9254 55.1278 37.9261 55.4033C37.9268 55.6788 37.8239 55.9433 37.6401 56.1387C37.4563 56.334 37.2066 56.4442 36.9459 56.445H36.9404Z" fill="#E6E6E6"/>
<path d="M36.9412 61.8983H9.17414C9.04506 61.8987 8.91718 61.8722 8.79779 61.8204C8.6784 61.7685 8.56982 61.6923 8.47829 61.5961C8.38677 61.4999 8.31407 61.3856 8.26434 61.2597C8.21461 61.1339 8.18884 60.9989 8.18848 60.8624C8.18812 60.726 8.21319 60.5909 8.26226 60.4647C8.31132 60.3385 8.38343 60.2238 8.47445 60.1271C8.56547 60.0304 8.67363 59.9535 8.79275 59.901C8.91187 59.8484 9.0396 59.8212 9.16868 59.8208H36.9412C37.2019 59.8208 37.4519 59.9302 37.6362 60.125C37.8206 60.3199 37.9241 60.5841 37.9241 60.8596C37.9241 61.1351 37.8206 61.3993 37.6362 61.5941C37.4519 61.7889 37.2019 61.8983 36.9412 61.8983Z" fill="#E6E6E6"/>
<path d="M36.9412 67.3515H9.17414C8.91345 67.3522 8.66314 67.2435 8.47829 67.0492C8.29344 66.855 8.1892 66.5911 8.18848 66.3156C8.18776 66.0401 8.29063 65.7756 8.47445 65.5802C8.65828 65.3849 8.90799 65.2747 9.16868 65.2739H36.9412C37.2019 65.2739 37.4519 65.3834 37.6362 65.5782C37.8206 65.773 37.9241 66.0372 37.9241 66.3127C37.9241 66.5882 37.8206 66.8524 37.6362 67.0472C37.4519 67.242 37.2019 67.3515 36.9412 67.3515Z" fill="#E6E6E6"/>
<path d="M50.5049 23.75C56.58 23.75 61.5049 18.6013 61.5049 12.25C61.5049 5.89873 56.58 0.75 50.5049 0.75C44.4298 0.75 39.5049 5.89873 39.5049 12.25C39.5049 18.6013 44.4298 23.75 50.5049 23.75Z" fill="#44D600"/>
<mask id="mask0_157_12635" style="mask-type:alpha" maskUnits="userSpaceOnUse" x="42" y="3" width="18" height="18">
<rect x="42.7217" y="3.03467" width="16.4276" height="17.3554" fill="#D9D9D9"/>
</mask>
<g mask="url(#mask0_157_12635)">
<path d="M50.9356 14.2976C50.8443 14.2976 50.7588 14.2825 50.6789 14.2524C50.599 14.2223 50.5249 14.1711 50.4564 14.0987L47.9923 11.4954C47.8554 11.3508 47.7898 11.1821 47.7955 10.9892C47.8012 10.7964 47.8668 10.6277 47.9923 10.483C48.1292 10.3384 48.2918 10.2631 48.48 10.2571C48.6682 10.251 48.8308 10.3203 48.9677 10.465L50.2511 11.8209V6.65039C50.2511 6.4455 50.3167 6.27375 50.4479 6.13515C50.5791 5.99655 50.7416 5.92725 50.9356 5.92725C51.1295 5.92725 51.2921 5.99655 51.4233 6.13515C51.5545 6.27375 51.6201 6.4455 51.6201 6.65039V11.8209L52.9035 10.465C53.0404 10.3203 53.2029 10.251 53.3912 10.2571C53.5794 10.2631 53.742 10.3384 53.8789 10.483C54.0043 10.6277 54.0699 10.7964 54.0756 10.9892C54.0813 11.1821 54.0157 11.3508 53.8789 11.4954L51.4147 14.0987C51.3463 14.1711 51.2721 14.2223 51.1923 14.2524C51.1124 14.2825 51.0268 14.2976 50.9356 14.2976ZM46.8287 17.4975C46.4522 17.4975 46.1299 17.3559 45.8619 17.0727C45.5938 16.7894 45.4597 16.449 45.4597 16.0512V14.6049C45.4597 14.4001 45.5253 14.2283 45.6565 14.0897C45.7877 13.9511 45.9503 13.8818 46.1442 13.8818C46.3381 13.8818 46.5007 13.9511 46.6319 14.0897C46.7631 14.2283 46.8287 14.4001 46.8287 14.6049V16.0512H55.0425V14.6049C55.0425 14.4001 55.1081 14.2283 55.2393 14.0897C55.3705 13.9511 55.533 13.8818 55.727 13.8818C55.9209 13.8818 56.0835 13.9511 56.2146 14.0897C56.3458 14.2283 56.4114 14.4001 56.4114 14.6049V16.0512C56.4114 16.449 56.2774 16.7894 56.0093 17.0727C55.7412 17.3559 55.4189 17.4975 55.0425 17.4975H46.8287Z" fill="white"/>
</g>
</svg>
