<svg width="16" height="17" viewBox="0 0 16 17" fill="none" xmlns="http://www.w3.org/2000/svg">
<mask id="mask0_246_833" style="mask-type:alpha" maskUnits="userSpaceOnUse" x="0" y="0" width="16" height="17">
<rect y="0.5" width="16" height="16" fill="#D9D9D9"/>
</mask>
<g mask="url(#mask0_246_833)">
<path d="M3.33398 15.1666C2.96732 15.1666 2.65343 15.0361 2.39232 14.775C2.13121 14.5139 2.00065 14.2 2.00065 13.8333V6.31665C1.80065 6.19442 1.63954 6.03609 1.51732 5.84165C1.3951 5.6472 1.33398 5.4222 1.33398 5.16665V3.16665C1.33398 2.79998 1.46454 2.48609 1.72565 2.22498C1.98676 1.96387 2.30065 1.83331 2.66732 1.83331H13.334C13.7007 1.83331 14.0145 1.96387 14.2757 2.22498C14.5368 2.48609 14.6673 2.79998 14.6673 3.16665V5.16665C14.6673 5.4222 14.6062 5.6472 14.484 5.84165C14.3618 6.03609 14.2007 6.19442 14.0007 6.31665V13.8333C14.0007 14.2 13.8701 14.5139 13.609 14.775C13.3479 15.0361 13.034 15.1666 12.6673 15.1666H3.33398ZM2.66732 5.16665H13.334V3.16665H2.66732V5.16665ZM6.66732 9.83331H9.33398C9.52287 9.83331 9.68121 9.76942 9.80898 9.64165C9.93676 9.51387 10.0007 9.35554 10.0007 9.16665C10.0007 8.97776 9.93676 8.81942 9.80898 8.69165C9.68121 8.56387 9.52287 8.49998 9.33398 8.49998H6.66732C6.47843 8.49998 6.3201 8.56387 6.19232 8.69165C6.06454 8.81942 6.00065 8.97776 6.00065 9.16665C6.00065 9.35554 6.06454 9.51387 6.19232 9.64165C6.3201 9.76942 6.47843 9.83331 6.66732 9.83331Z" fill="black"/>
</g>
</svg>
