<svg width="16" height="16" viewBox="0 0 16 16" fill="none" xmlns="http://www.w3.org/2000/svg">
<mask id="mask0_319_4804" style="mask-type:alpha" maskUnits="userSpaceOnUse" x="0" y="0" width="16" height="16">
<rect width="16" height="16" fill="#D9D9D9"/>
</mask>
<g mask="url(#mask0_319_4804)">
<path d="M3.88334 8.6667H14C14.1889 8.6667 14.3472 8.60281 14.475 8.47503C14.6028 8.34725 14.6667 8.18892 14.6667 8.00003C14.6667 7.81114 14.6028 7.65281 14.475 7.52503C14.3472 7.39725 14.1889 7.33337 14 7.33337H3.88334L6.46667 4.73337C6.58889 4.61114 6.65278 4.45837 6.65834 4.27503C6.66389 4.0917 6.6 3.93337 6.46667 3.80003C6.34445 3.67781 6.18889 3.6167 6 3.6167C5.81111 3.6167 5.65556 3.67781 5.53334 3.80003L1.8 7.53337C1.73334 7.60003 1.68611 7.67225 1.65834 7.75003C1.63056 7.82781 1.61667 7.91114 1.61667 8.00003C1.61667 8.08892 1.63056 8.17225 1.65834 8.25003C1.68611 8.32781 1.73334 8.40003 1.8 8.4667L5.53334 12.2C5.65556 12.3223 5.80834 12.3834 5.99167 12.3834C6.175 12.3834 6.33333 12.3223 6.46667 12.2C6.6 12.0667 6.66667 11.9084 6.66667 11.725C6.66667 11.5417 6.6 11.3834 6.46667 11.25L3.88334 8.6667Z" fill="#44D600"/>
</g>
</svg>
