<svg width="16" height="14" viewBox="0 0 16 14" fill="none" xmlns="http://www.w3.org/2000/svg">
<g clip-path="url(#clip0_156_4411)">
<path d="M0 0.65625C0 0.292578 0.297222 0 0.666667 0H1.93056C2.54167 0 3.08333 0.35 3.33611 0.875H14.7528C15.4833 0.875 16.0167 1.55859 15.825 2.25312L14.6861 6.41758C14.45 7.27617 13.6583 7.875 12.7556 7.875H4.74167L4.89167 8.6543C4.95278 8.96328 5.22778 9.1875 5.54722 9.1875H13.5556C13.925 9.1875 14.2222 9.48008 14.2222 9.84375C14.2222 10.2074 13.925 10.5 13.5556 10.5H5.54722C4.58611 10.5 3.76111 9.82734 3.58333 8.90039L2.15 1.49023C2.13056 1.38633 2.03889 1.3125 1.93056 1.3125H0.666667C0.297222 1.3125 0 1.01992 0 0.65625ZM3.55556 12.6875C3.55556 12.5151 3.59004 12.3445 3.65705 12.1852C3.72406 12.026 3.82227 11.8813 3.94608 11.7594C4.06989 11.6375 4.21688 11.5409 4.37864 11.4749C4.54041 11.4089 4.71379 11.375 4.88889 11.375C5.06398 11.375 5.23737 11.4089 5.39913 11.4749C5.5609 11.5409 5.70789 11.6375 5.8317 11.7594C5.95551 11.8813 6.05372 12.026 6.12073 12.1852C6.18773 12.3445 6.22222 12.5151 6.22222 12.6875C6.22222 12.8599 6.18773 13.0305 6.12073 13.1898C6.05372 13.349 5.95551 13.4937 5.8317 13.6156C5.70789 13.7375 5.5609 13.8341 5.39913 13.9001C5.23737 13.9661 5.06398 14 4.88889 14C4.71379 14 4.54041 13.9661 4.37864 13.9001C4.21688 13.8341 4.06989 13.7375 3.94608 13.6156C3.82227 13.4937 3.72406 13.349 3.65705 13.1898C3.59004 13.0305 3.55556 12.8599 3.55556 12.6875ZM12.8889 11.375C13.2425 11.375 13.5816 11.5133 13.8317 11.7594C14.0817 12.0056 14.2222 12.3394 14.2222 12.6875C14.2222 13.0356 14.0817 13.3694 13.8317 13.6156C13.5816 13.8617 13.2425 14 12.8889 14C12.5353 14 12.1961 13.8617 11.9461 13.6156C11.696 13.3694 11.5556 13.0356 11.5556 12.6875C11.5556 12.3394 11.696 12.0056 11.9461 11.7594C12.1961 11.5133 12.5353 11.375 12.8889 11.375Z" fill="white"/>
</g>
<defs>
<clipPath id="clip0_156_4411">
<rect width="16" height="14" fill="white"/>
</clipPath>
</defs>
</svg>
