<svg width="16" height="16" viewBox="0 0 16 16" fill="none" xmlns="http://www.w3.org/2000/svg">
<mask id="mask0_246_1567" style="mask-type:alpha" maskUnits="userSpaceOnUse" x="0" y="0" width="16" height="16">
<rect width="16" height="16" fill="#D9D9D9"/>
</mask>
<g mask="url(#mask0_246_1567)">
<path d="M7.99987 9.96676C7.91098 9.96676 7.82765 9.95288 7.74987 9.9251C7.67209 9.89732 7.59987 9.8501 7.5332 9.78343L4.46654 6.71676C4.34431 6.59454 4.2832 6.43899 4.2832 6.2501C4.2832 6.06121 4.34431 5.90565 4.46654 5.78343C4.58876 5.66121 4.74431 5.6001 4.9332 5.6001C5.12209 5.6001 5.27765 5.66121 5.39987 5.78343L7.99987 8.38343L10.5999 5.78343C10.7221 5.66121 10.8776 5.6001 11.0665 5.6001C11.2554 5.6001 11.411 5.66121 11.5332 5.78343C11.6554 5.90565 11.7165 6.06121 11.7165 6.2501C11.7165 6.43899 11.6554 6.59454 11.5332 6.71676L8.46654 9.78343C8.39987 9.8501 8.32765 9.89732 8.24987 9.9251C8.17209 9.95288 8.08876 9.96676 7.99987 9.96676Z" fill="white"/>
</g>
</svg>
