<svg width="8" height="5" viewBox="0 0 8 5" fill="none" xmlns="http://www.w3.org/2000/svg">
<path d="M3.99987 4.96628C3.91098 4.96628 3.82765 4.95239 3.74987 4.92461C3.67209 4.89683 3.59987 4.84961 3.5332 4.78294L0.466536 1.71628C0.344314 1.59405 0.283203 1.4385 0.283203 1.24961C0.283203 1.06072 0.344314 0.905165 0.466536 0.782943C0.588759 0.66072 0.744314 0.599609 0.933203 0.599609C1.12209 0.599609 1.27765 0.66072 1.39987 0.782943L3.99987 3.38294L6.59987 0.782943C6.72209 0.66072 6.87765 0.599609 7.06654 0.599609C7.25542 0.599609 7.41098 0.66072 7.5332 0.782943C7.65543 0.905165 7.71654 1.06072 7.71654 1.24961C7.71654 1.4385 7.65543 1.59405 7.5332 1.71628L4.46654 4.78294C4.39987 4.84961 4.32765 4.89683 4.24987 4.92461C4.17209 4.95239 4.08876 4.96628 3.99987 4.96628Z" fill="#44d600"/>
</svg>
