<svg width="17" height="17" viewBox="0 0 17 17" fill="none" xmlns="http://www.w3.org/2000/svg">
<mask id="mask0_119_6406" style="mask-type:alpha" maskUnits="userSpaceOnUse" x="0" y="0" width="17" height="17">
<rect x="0.5" y="0.5" width="16" height="16" fill="#D9D9D9"/>
</mask>
<g mask="url(#mask0_119_6406)">
<path d="M6.5 12.5C6.13333 12.5 5.81944 12.3695 5.55833 12.1084C5.29722 11.8473 5.16667 11.5334 5.16667 11.1667V3.16671C5.16667 2.80004 5.29722 2.48615 5.55833 2.22504C5.81944 1.96393 6.13333 1.83337 6.5 1.83337H12.5C12.8667 1.83337 13.1806 1.96393 13.4417 2.22504C13.7028 2.48615 13.8333 2.80004 13.8333 3.16671V11.1667C13.8333 11.5334 13.7028 11.8473 13.4417 12.1084C13.1806 12.3695 12.8667 12.5 12.5 12.5H6.5ZM6.5 11.1667H12.5V3.16671H6.5V11.1667ZM3.83333 15.1667C3.46667 15.1667 3.15278 15.0362 2.89167 14.775C2.63056 14.5139 2.5 14.2 2.5 13.8334V5.16671C2.5 4.97782 2.56389 4.81948 2.69167 4.69171C2.81944 4.56393 2.97778 4.50004 3.16667 4.50004C3.35556 4.50004 3.51389 4.56393 3.64167 4.69171C3.76944 4.81948 3.83333 4.97782 3.83333 5.16671V13.8334H10.5C10.6889 13.8334 10.8472 13.8973 10.975 14.025C11.1028 14.1528 11.1667 14.3112 11.1667 14.5C11.1667 14.6889 11.1028 14.8473 10.975 14.975C10.8472 15.1028 10.6889 15.1667 10.5 15.1667H3.83333Z" fill="#5C5C5C"/>
</g>
</svg>
