<svg width="16" height="17" viewBox="0 0 16 17" fill="none" xmlns="http://www.w3.org/2000/svg">
<mask id="mask0_246_838" style="mask-type:alpha" maskUnits="userSpaceOnUse" x="0" y="0" width="16" height="17">
<rect y="0.5" width="16" height="16" fill="#D9D9D9"/>
</mask>
<g mask="url(#mask0_246_838)">
<path d="M4.66602 14.5C4.29935 14.5 3.98546 14.3694 3.72435 14.1083C3.46324 13.8472 3.33268 13.5333 3.33268 13.1667V4.5C3.14379 4.5 2.98546 4.43611 2.85768 4.30833C2.7299 4.18056 2.66602 4.02222 2.66602 3.83333C2.66602 3.64444 2.7299 3.48611 2.85768 3.35833C2.98546 3.23056 3.14379 3.16667 3.33268 3.16667H5.99935C5.99935 2.97778 6.06324 2.81944 6.19102 2.69167C6.31879 2.56389 6.47713 2.5 6.66602 2.5H9.33268C9.52157 2.5 9.6799 2.56389 9.80768 2.69167C9.93546 2.81944 9.99935 2.97778 9.99935 3.16667H12.666C12.8549 3.16667 13.0132 3.23056 13.141 3.35833C13.2688 3.48611 13.3327 3.64444 13.3327 3.83333C13.3327 4.02222 13.2688 4.18056 13.141 4.30833C13.0132 4.43611 12.8549 4.5 12.666 4.5V13.1667C12.666 13.5333 12.5355 13.8472 12.2743 14.1083C12.0132 14.3694 11.6993 14.5 11.3327 14.5H4.66602ZM6.66602 11.8333C6.8549 11.8333 7.01324 11.7694 7.14102 11.6417C7.26879 11.5139 7.33268 11.3556 7.33268 11.1667V6.5C7.33268 6.31111 7.26879 6.15278 7.14102 6.025C7.01324 5.89722 6.8549 5.83333 6.66602 5.83333C6.47713 5.83333 6.31879 5.89722 6.19102 6.025C6.06324 6.15278 5.99935 6.31111 5.99935 6.5V11.1667C5.99935 11.3556 6.06324 11.5139 6.19102 11.6417C6.31879 11.7694 6.47713 11.8333 6.66602 11.8333ZM9.33268 11.8333C9.52157 11.8333 9.6799 11.7694 9.80768 11.6417C9.93546 11.5139 9.99935 11.3556 9.99935 11.1667V6.5C9.99935 6.31111 9.93546 6.15278 9.80768 6.025C9.6799 5.89722 9.52157 5.83333 9.33268 5.83333C9.14379 5.83333 8.98546 5.89722 8.85768 6.025C8.7299 6.15278 8.66602 6.31111 8.66602 6.5V11.1667C8.66602 11.3556 8.7299 11.5139 8.85768 11.6417C8.98546 11.7694 9.14379 11.8333 9.33268 11.8333Z" fill="#DD0000"/>
</g>
</svg>
