<svg width="22" height="28" viewBox="0 0 22 28" fill="none" xmlns="http://www.w3.org/2000/svg">
<path d="M12.332 15.5337V11.3337C12.332 10.9559 12.2043 10.6392 11.9487 10.3837C11.6931 10.1281 11.3765 10.0003 10.9987 10.0003C10.6209 10.0003 10.3043 10.1281 10.0487 10.3837C9.79314 10.6392 9.66536 10.9559 9.66536 11.3337V15.5337L8.46536 14.367C8.22092 14.1225 7.91536 14.0003 7.5487 14.0003C7.18203 14.0003 6.86536 14.1337 6.5987 14.4003C6.35425 14.6448 6.23203 14.9559 6.23203 15.3337C6.23203 15.7114 6.35425 16.0225 6.5987 16.267L10.0654 19.7337C10.332 20.0003 10.6431 20.1337 10.9987 20.1337C11.3543 20.1337 11.6654 20.0003 11.932 19.7337L15.3987 16.267C15.6431 16.0225 15.7709 15.717 15.782 15.3503C15.7931 14.9837 15.6654 14.667 15.3987 14.4003C15.1543 14.1559 14.8487 14.0281 14.482 14.017C14.1154 14.0059 13.7987 14.1225 13.532 14.367L12.332 15.5337ZM2.9987 27.3337C2.26536 27.3337 1.63759 27.0725 1.11536 26.5503C0.593142 26.0281 0.332031 25.4003 0.332031 24.667V9.76699C0.332031 9.41144 0.398698 9.07255 0.532031 8.75033C0.665365 8.4281 0.854253 8.14477 1.0987 7.90033L7.56536 1.43366C7.80981 1.18921 8.09314 1.00033 8.41536 0.866992C8.73759 0.733659 9.07648 0.666992 9.43203 0.666992H18.9987C19.732 0.666992 20.3598 0.928103 20.882 1.45033C21.4043 1.97255 21.6654 2.60033 21.6654 3.33366V24.667C21.6654 25.4003 21.4043 26.0281 20.882 26.5503C20.3598 27.0725 19.732 27.3337 18.9987 27.3337H2.9987ZM2.9987 24.667H18.9987V3.33366H9.46536L2.9987 9.80032V24.667Z" fill="#1C1B1F"/>
</svg>
