<svg width="16" height="17" viewBox="0 0 16 17" fill="none" xmlns="http://www.w3.org/2000/svg">
<mask id="mask0_246_828" style="mask-type:alpha" maskUnits="userSpaceOnUse" x="0" y="0" width="16" height="17">
<rect y="0.5" width="16" height="16" fill="#D9D9D9"/>
</mask>
<g mask="url(#mask0_246_828)">
<path d="M2.79975 14.4834C2.56642 14.539 2.36364 14.4806 2.19142 14.3084C2.0192 14.1362 1.96086 13.9334 2.01642 13.7001L2.59975 10.8668L5.63309 13.9001L2.79975 14.4834ZM6.71642 13.0834L3.41642 9.78342L10.2998 2.90009C10.5553 2.64453 10.872 2.51675 11.2498 2.51675C11.6275 2.51675 11.9442 2.64453 12.1998 2.90009L13.5998 4.30009C13.8553 4.55564 13.9831 4.87231 13.9831 5.25009C13.9831 5.62787 13.8553 5.94453 13.5998 6.20009L6.71642 13.0834Z" fill="black"/>
</g>
</svg>
