<svg width="16" height="16" viewBox="0 0 16 16" fill="none" xmlns="http://www.w3.org/2000/svg">
<mask id="mask0_246_1912" style="mask-type:alpha" maskUnits="userSpaceOnUse" x="0" y="0" width="16" height="16">
<rect width="16" height="16" fill="#D9D9D9"/>
</mask>
<g mask="url(#mask0_246_1912)">
<path d="M7.99935 13.3332C7.63268 13.3332 7.31879 13.2026 7.05768 12.9415C6.79657 12.6804 6.66602 12.3665 6.66602 11.9998C6.66602 11.6332 6.79657 11.3193 7.05768 11.0582C7.31879 10.7971 7.63268 10.6665 7.99935 10.6665C8.36602 10.6665 8.6799 10.7971 8.94102 11.0582C9.20213 11.3193 9.33268 11.6332 9.33268 11.9998C9.33268 12.3665 9.20213 12.6804 8.94102 12.9415C8.6799 13.2026 8.36602 13.3332 7.99935 13.3332ZM7.99935 9.33317C7.63268 9.33317 7.31879 9.20261 7.05768 8.9415C6.79657 8.68039 6.66602 8.3665 6.66602 7.99984C6.66602 7.63317 6.79657 7.31928 7.05768 7.05817C7.31879 6.79706 7.63268 6.6665 7.99935 6.6665C8.36602 6.6665 8.6799 6.79706 8.94102 7.05817C9.20213 7.31928 9.33268 7.63317 9.33268 7.99984C9.33268 8.3665 9.20213 8.68039 8.94102 8.9415C8.6799 9.20261 8.36602 9.33317 7.99935 9.33317ZM7.99935 5.33317C7.63268 5.33317 7.31879 5.20262 7.05768 4.9415C6.79657 4.68039 6.66602 4.3665 6.66602 3.99984C6.66602 3.63317 6.79657 3.31928 7.05768 3.05817C7.31879 2.79706 7.63268 2.6665 7.99935 2.6665C8.36602 2.6665 8.6799 2.79706 8.94102 3.05817C9.20213 3.31928 9.33268 3.63317 9.33268 3.99984C9.33268 4.3665 9.20213 4.68039 8.94102 4.9415C8.6799 5.20262 8.36602 5.33317 7.99935 5.33317Z" fill="black"/>
</g>
</svg>
