<svg width="16" height="16" viewBox="0 0 16 16" fill="none" xmlns="http://www.w3.org/2000/svg">
<mask id="mask0_509_26265" style="mask-type:alpha" maskUnits="userSpaceOnUse" x="0" y="0" width="16" height="16">
<rect width="16" height="16" fill="#D9D9D9"/>
</mask>
<g mask="url(#mask0_509_26265)">
<path d="M2.0013 12.6663C1.63464 12.6663 1.32075 12.5358 1.05964 12.2747C0.798524 12.0136 0.667969 11.6997 0.667969 11.333V4.66634C0.667969 4.29967 0.798524 3.98579 1.05964 3.72467C1.32075 3.46356 1.63464 3.33301 2.0013 3.33301H8.66797C9.03464 3.33301 9.34853 3.46356 9.60964 3.72467C9.87075 3.98579 10.0013 4.29967 10.0013 4.66634V11.333C10.0013 11.6997 9.87075 12.0136 9.60964 12.2747C9.34853 12.5358 9.03464 12.6663 8.66797 12.6663H2.0013ZM12.0013 7.33301C11.8124 7.33301 11.6541 7.26912 11.5263 7.14134C11.3985 7.01356 11.3346 6.85523 11.3346 6.66634V3.99967C11.3346 3.81079 11.3985 3.65245 11.5263 3.52467C11.6541 3.3969 11.8124 3.33301 12.0013 3.33301H14.668C14.8569 3.33301 15.0152 3.3969 15.143 3.52467C15.2707 3.65245 15.3346 3.81079 15.3346 3.99967V6.66634C15.3346 6.85523 15.2707 7.01356 15.143 7.14134C15.0152 7.26912 14.8569 7.33301 14.668 7.33301H12.0013ZM12.668 5.99967H14.0013V4.66634H12.668V5.99967ZM2.0013 11.333H8.66797V4.66634H2.0013V11.333ZM3.33464 9.99967H7.33464C7.46797 9.99967 7.56797 9.93856 7.63464 9.81634C7.7013 9.69412 7.69019 9.57745 7.6013 9.46634L6.51797 8.01634C6.4513 7.92745 6.36241 7.88301 6.2513 7.88301C6.14019 7.88301 6.0513 7.92745 5.98464 8.01634L5.0013 9.33301L4.3513 8.46634C4.28464 8.37745 4.19575 8.33301 4.08464 8.33301C3.97352 8.33301 3.88464 8.37745 3.81797 8.46634L3.06797 9.46634C2.97908 9.57745 2.96797 9.69412 3.03464 9.81634C3.1013 9.93856 3.2013 9.99967 3.33464 9.99967ZM12.0013 12.6663C11.8124 12.6663 11.6541 12.6025 11.5263 12.4747C11.3985 12.3469 11.3346 12.1886 11.3346 11.9997V9.33301C11.3346 9.14412 11.3985 8.98579 11.5263 8.85801C11.6541 8.73023 11.8124 8.66634 12.0013 8.66634H14.668C14.8569 8.66634 15.0152 8.73023 15.143 8.85801C15.2707 8.98579 15.3346 9.14412 15.3346 9.33301V11.9997C15.3346 12.1886 15.2707 12.3469 15.143 12.4747C15.0152 12.6025 14.8569 12.6663 14.668 12.6663H12.0013ZM12.668 11.333H14.0013V9.99967H12.668V11.333Z" fill="#1C1B1F"/>
</g>
</svg>
