<svg width="16" height="17" viewBox="0 0 16 17" fill="none" xmlns="http://www.w3.org/2000/svg">
<mask id="mask0_246_1973" style="mask-type:alpha" maskUnits="userSpaceOnUse" x="0" y="0" width="16" height="17">
<rect y="0.5" width="16" height="16" fill="#D9D9D9"/>
</mask>
<g mask="url(#mask0_246_1973)">
<path d="M4.66732 11.8332C3.7451 11.8332 2.95898 11.5082 2.30898 10.8582C1.65898 10.2082 1.33398 9.42206 1.33398 8.49984C1.33398 7.57761 1.65898 6.7915 2.30898 6.1415C2.95898 5.4915 3.7451 5.1665 4.66732 5.1665H6.66732C6.85621 5.1665 7.01454 5.23039 7.14232 5.35817C7.2701 5.48595 7.33398 5.64428 7.33398 5.83317C7.33398 6.02206 7.2701 6.18039 7.14232 6.30817C7.01454 6.43595 6.85621 6.49984 6.66732 6.49984H4.66732C4.11176 6.49984 3.63954 6.69428 3.25065 7.08317C2.86176 7.47206 2.66732 7.94428 2.66732 8.49984C2.66732 9.05539 2.86176 9.52761 3.25065 9.9165C3.63954 10.3054 4.11176 10.4998 4.66732 10.4998H6.66732C6.85621 10.4998 7.01454 10.5637 7.14232 10.6915C7.2701 10.8193 7.33398 10.9776 7.33398 11.1665C7.33398 11.3554 7.2701 11.5137 7.14232 11.6415C7.01454 11.7693 6.85621 11.8332 6.66732 11.8332H4.66732ZM6.00065 9.1665C5.81176 9.1665 5.65343 9.10261 5.52565 8.97484C5.39787 8.84706 5.33398 8.68873 5.33398 8.49984C5.33398 8.31095 5.39787 8.15261 5.52565 8.02484C5.65343 7.89706 5.81176 7.83317 6.00065 7.83317H10.0007C10.1895 7.83317 10.3479 7.89706 10.4757 8.02484C10.6034 8.15261 10.6673 8.31095 10.6673 8.49984C10.6673 8.68873 10.6034 8.84706 10.4757 8.97484C10.3479 9.10261 10.1895 9.1665 10.0007 9.1665H6.00065ZM9.33398 11.8332C9.1451 11.8332 8.98676 11.7693 8.85898 11.6415C8.73121 11.5137 8.66732 11.3554 8.66732 11.1665C8.66732 10.9776 8.73121 10.8193 8.85898 10.6915C8.98676 10.5637 9.1451 10.4998 9.33398 10.4998H11.334C11.8895 10.4998 12.3618 10.3054 12.7507 9.9165C13.1395 9.52761 13.334 9.05539 13.334 8.49984C13.334 7.94428 13.1395 7.47206 12.7507 7.08317C12.3618 6.69428 11.8895 6.49984 11.334 6.49984H9.33398C9.1451 6.49984 8.98676 6.43595 8.85898 6.30817C8.73121 6.18039 8.66732 6.02206 8.66732 5.83317C8.66732 5.64428 8.73121 5.48595 8.85898 5.35817C8.98676 5.23039 9.1451 5.1665 9.33398 5.1665H11.334C12.2562 5.1665 13.0423 5.4915 13.6923 6.1415C14.3423 6.7915 14.6673 7.57761 14.6673 8.49984C14.6673 9.42206 14.3423 10.2082 13.6923 10.8582C13.0423 11.5082 12.2562 11.8332 11.334 11.8332H9.33398Z" fill="#1C1B1F"/>
</g>
</svg>
