<svg width="16" height="17" viewBox="0 0 16 17" fill="none" xmlns="http://www.w3.org/2000/svg">
<mask id="mask0_360_5226" style="mask-type:alpha" maskUnits="userSpaceOnUse" x="0" y="0" width="16" height="17">
<rect y="0.5" width="16" height="16" fill="#D9D9D9"/>
</mask>
<g mask="url(#mask0_360_5226)">
<path d="M3.33333 14.5C2.96667 14.5 2.65278 14.3694 2.39167 14.1083C2.13056 13.8472 2 13.5333 2 13.1667V3.83333C2 3.46667 2.13056 3.15278 2.39167 2.89167C2.65278 2.63056 2.96667 2.5 3.33333 2.5H7.33333C7.52222 2.5 7.68056 2.56389 7.80833 2.69167C7.93611 2.81944 8 2.97778 8 3.16667C8 3.35556 7.93611 3.51389 7.80833 3.64167C7.68056 3.76944 7.52222 3.83333 7.33333 3.83333H3.33333V13.1667H7.33333C7.52222 13.1667 7.68056 13.2306 7.80833 13.3583C7.93611 13.4861 8 13.6444 8 13.8333C8 14.0222 7.93611 14.1806 7.80833 14.3083C7.68056 14.4361 7.52222 14.5 7.33333 14.5H3.33333ZM11.45 9.16667H6.66667C6.47778 9.16667 6.31944 9.10278 6.19167 8.975C6.06389 8.84722 6 8.68889 6 8.5C6 8.31111 6.06389 8.15278 6.19167 8.025C6.31944 7.89722 6.47778 7.83333 6.66667 7.83333H11.45L10.2 6.58333C10.0778 6.46111 10.0167 6.31111 10.0167 6.13333C10.0167 5.95556 10.0778 5.8 10.2 5.66667C10.3222 5.53333 10.4778 5.46389 10.6667 5.45833C10.8556 5.45278 11.0167 5.51667 11.15 5.65L13.5333 8.03333C13.6667 8.16667 13.7333 8.32222 13.7333 8.5C13.7333 8.67778 13.6667 8.83333 13.5333 8.96667L11.15 11.35C11.0167 11.4833 10.8583 11.5472 10.675 11.5417C10.4917 11.5361 10.3333 11.4667 10.2 11.3333C10.0778 11.2 10.0194 11.0417 10.025 10.8583C10.0306 10.675 10.0944 10.5222 10.2167 10.4L11.45 9.16667Z" fill="black"/>
</g>
</svg>
