<svg width="24" height="24" viewBox="0 0 24 24" fill="none" xmlns="http://www.w3.org/2000/svg">
<g clip-path="url(#clip0_113_535)">
<path d="M0.755202 12.1969C-0.304173 12.8016 -0.205735 14.4141 0.923952 14.8828L7.50051 17.625V22.4672C7.50051 23.3156 8.18489 24 9.03333 24C9.48801 24 9.91926 23.7984 10.2099 23.4469L13.1161 19.9641L18.924 22.3828C19.8099 22.7531 20.8365 22.1719 20.9818 21.225L23.9818 1.725C24.0708 1.15781 23.8224 0.585934 23.349 0.262496C22.8755 -0.0609414 22.2568 -0.0890664 21.7552 0.196871L0.755202 12.1969ZM3.19739 13.3922L19.2052 4.24687L8.91145 15.75L8.9677 15.7969L3.19739 13.3922ZM18.9052 19.9406L11.0958 16.6828L21.1318 5.46562L18.9052 19.9406Z" fill="white"/>
</g>
<defs>
<clipPath id="clip0_113_535">
<rect width="24" height="24" fill="white"/>
</clipPath>
</defs>
</svg>
