<svg width="16" height="17" viewBox="0 0 16 17" fill="none" xmlns="http://www.w3.org/2000/svg">
<mask id="mask0_360_5209" style="mask-type:alpha" maskUnits="userSpaceOnUse" x="0" y="0" width="16" height="17">
<rect y="0.5" width="16" height="16" fill="#D9D9D9"/>
</mask>
<g mask="url(#mask0_360_5209)">
<path d="M3.90065 11.8997C4.46732 11.4663 5.10065 11.1247 5.80065 10.8747C6.50065 10.6247 7.23398 10.4997 8.00065 10.4997C8.76732 10.4997 9.50065 10.6247 10.2007 10.8747C10.9007 11.1247 11.534 11.4663 12.1006 11.8997C12.4895 11.4441 12.7923 10.9275 13.009 10.3497C13.2257 9.7719 13.334 9.15523 13.334 8.49967C13.334 7.0219 12.8145 5.76356 11.7757 4.72467C10.7368 3.68579 9.47843 3.16634 8.00065 3.16634C6.52287 3.16634 5.26454 3.68579 4.22565 4.72467C3.18676 5.76356 2.66732 7.0219 2.66732 8.49967C2.66732 9.15523 2.77565 9.7719 2.99232 10.3497C3.20898 10.9275 3.51176 11.4441 3.90065 11.8997ZM8.00065 9.16634C7.3451 9.16634 6.79232 8.94134 6.34232 8.49134C5.89232 8.04134 5.66732 7.48856 5.66732 6.83301C5.66732 6.17745 5.89232 5.62467 6.34232 5.17467C6.79232 4.72467 7.3451 4.49967 8.00065 4.49967C8.65621 4.49967 9.20898 4.72467 9.65898 5.17467C10.109 5.62467 10.334 6.17745 10.334 6.83301C10.334 7.48856 10.109 8.04134 9.65898 8.49134C9.20898 8.94134 8.65621 9.16634 8.00065 9.16634ZM8.00065 15.1663C7.07843 15.1663 6.21176 14.9913 5.40065 14.6413C4.58954 14.2913 3.88398 13.8163 3.28398 13.2163C2.68398 12.6163 2.20898 11.9108 1.85898 11.0997C1.50898 10.2886 1.33398 9.4219 1.33398 8.49967C1.33398 7.57745 1.50898 6.71079 1.85898 5.89967C2.20898 5.08856 2.68398 4.38301 3.28398 3.78301C3.88398 3.18301 4.58954 2.70801 5.40065 2.35801C6.21176 2.00801 7.07843 1.83301 8.00065 1.83301C8.92287 1.83301 9.78954 2.00801 10.6007 2.35801C11.4118 2.70801 12.1173 3.18301 12.7173 3.78301C13.3173 4.38301 13.7923 5.08856 14.1423 5.89967C14.4923 6.71079 14.6673 7.57745 14.6673 8.49967C14.6673 9.4219 14.4923 10.2886 14.1423 11.0997C13.7923 11.9108 13.3173 12.6163 12.7173 13.2163C12.1173 13.8163 11.4118 14.2913 10.6007 14.6413C9.78954 14.9913 8.92287 15.1663 8.00065 15.1663Z" fill="#1C1B1F"/>
</g>
</svg>
