<svg width="12" height="13" viewBox="0 0 12 13" fill="none" xmlns="http://www.w3.org/2000/svg">
<path d="M6 12.5C5.81111 12.5 5.65278 12.4361 5.525 12.3083C5.39722 12.1806 5.33333 12.0222 5.33333 11.8333V9.16667C5.33333 8.97778 5.39722 8.81944 5.525 8.69167C5.65278 8.56389 5.81111 8.5 6 8.5C6.18889 8.5 6.34722 8.56389 6.475 8.69167C6.60278 8.81944 6.66667 8.97778 6.66667 9.16667V9.83333H11.3333C11.5222 9.83333 11.6806 9.89722 11.8083 10.025C11.9361 10.1528 12 10.3111 12 10.5C12 10.6889 11.9361 10.8472 11.8083 10.975C11.6806 11.1028 11.5222 11.1667 11.3333 11.1667H6.66667V11.8333C6.66667 12.0222 6.60278 12.1806 6.475 12.3083C6.34722 12.4361 6.18889 12.5 6 12.5ZM0.666667 11.1667C0.477778 11.1667 0.319444 11.1028 0.191667 10.975C0.0638889 10.8472 0 10.6889 0 10.5C0 10.3111 0.0638889 10.1528 0.191667 10.025C0.319444 9.89722 0.477778 9.83333 0.666667 9.83333H3.33333C3.52222 9.83333 3.68056 9.89722 3.80833 10.025C3.93611 10.1528 4 10.3111 4 10.5C4 10.6889 3.93611 10.8472 3.80833 10.975C3.68056 11.1028 3.52222 11.1667 3.33333 11.1667H0.666667ZM3.33333 8.5C3.14444 8.5 2.98611 8.43611 2.85833 8.30833C2.73056 8.18056 2.66667 8.02222 2.66667 7.83333V7.16667H0.666667C0.477778 7.16667 0.319444 7.10278 0.191667 6.975C0.0638889 6.84722 0 6.68889 0 6.5C0 6.31111 0.0638889 6.15278 0.191667 6.025C0.319444 5.89722 0.477778 5.83333 0.666667 5.83333H2.66667V5.16667C2.66667 4.97778 2.73056 4.81944 2.85833 4.69167C2.98611 4.56389 3.14444 4.5 3.33333 4.5C3.52222 4.5 3.68056 4.56389 3.80833 4.69167C3.93611 4.81944 4 4.97778 4 5.16667V7.83333C4 8.02222 3.93611 8.18056 3.80833 8.30833C3.68056 8.43611 3.52222 8.5 3.33333 8.5ZM6 7.16667C5.81111 7.16667 5.65278 7.10278 5.525 6.975C5.39722 6.84722 5.33333 6.68889 5.33333 6.5C5.33333 6.31111 5.39722 6.15278 5.525 6.025C5.65278 5.89722 5.81111 5.83333 6 5.83333H11.3333C11.5222 5.83333 11.6806 5.89722 11.8083 6.025C11.9361 6.15278 12 6.31111 12 6.5C12 6.68889 11.9361 6.84722 11.8083 6.975C11.6806 7.10278 11.5222 7.16667 11.3333 7.16667H6ZM8.66667 4.5C8.47778 4.5 8.31944 4.43611 8.19167 4.30833C8.06389 4.18056 8 4.02222 8 3.83333V1.16667C8 0.977778 8.06389 0.819444 8.19167 0.691667C8.31944 0.563889 8.47778 0.5 8.66667 0.5C8.85556 0.5 9.01389 0.563889 9.14167 0.691667C9.26945 0.819444 9.33333 0.977778 9.33333 1.16667V1.83333H11.3333C11.5222 1.83333 11.6806 1.89722 11.8083 2.025C11.9361 2.15278 12 2.31111 12 2.5C12 2.68889 11.9361 2.84722 11.8083 2.975C11.6806 3.10278 11.5222 3.16667 11.3333 3.16667H9.33333V3.83333C9.33333 4.02222 9.26945 4.18056 9.14167 4.30833C9.01389 4.43611 8.85556 4.5 8.66667 4.5ZM0.666667 3.16667C0.477778 3.16667 0.319444 3.10278 0.191667 2.975C0.0638889 2.84722 0 2.68889 0 2.5C0 2.31111 0.0638889 2.15278 0.191667 2.025C0.319444 1.89722 0.477778 1.83333 0.666667 1.83333H6C6.18889 1.83333 6.34722 1.89722 6.475 2.025C6.60278 2.15278 6.66667 2.31111 6.66667 2.5C6.66667 2.68889 6.60278 2.84722 6.475 2.975C6.34722 3.10278 6.18889 3.16667 6 3.16667H0.666667Z" fill="black"/>
</svg>
