<svg width="16" height="17" viewBox="0 0 16 17" fill="none" xmlns="http://www.w3.org/2000/svg">
<mask id="mask0_246_1978" style="mask-type:alpha" maskUnits="userSpaceOnUse" x="0" y="0" width="16" height="17">
<rect y="0.5" width="16" height="16" fill="#D9D9D9"/>
</mask>
<g mask="url(#mask0_246_1978)">
<path d="M7.00065 5.1665H4.33398C4.05621 5.1665 3.8201 5.06928 3.62565 4.87484C3.43121 4.68039 3.33398 4.44428 3.33398 4.1665C3.33398 3.88873 3.43121 3.65262 3.62565 3.45817C3.8201 3.26373 4.05621 3.1665 4.33398 3.1665H11.6673C11.9451 3.1665 12.1812 3.26373 12.3757 3.45817C12.5701 3.65262 12.6673 3.88873 12.6673 4.1665C12.6673 4.44428 12.5701 4.68039 12.3757 4.87484C12.1812 5.06928 11.9451 5.1665 11.6673 5.1665H9.00065V12.8332C9.00065 13.1109 8.90343 13.3471 8.70898 13.5415C8.51454 13.7359 8.27843 13.8332 8.00065 13.8332C7.72287 13.8332 7.48676 13.7359 7.29232 13.5415C7.09787 13.3471 7.00065 13.1109 7.00065 12.8332V5.1665Z" fill="#1C1B1F"/>
</g>
</svg>
