<svg width="16" height="17" viewBox="0 0 16 17" fill="none" xmlns="http://www.w3.org/2000/svg">
<mask id="mask0_246_1968" style="mask-type:alpha" maskUnits="userSpaceOnUse" x="0" y="0" width="16" height="17">
<rect y="0.5" width="16" height="16" fill="#D9D9D9"/>
</mask>
<g mask="url(#mask0_246_1968)">
<path d="M9.50065 14.7668C9.2451 15.0224 8.92843 15.1502 8.55065 15.1502C8.17287 15.1502 7.85621 15.0224 7.60065 14.7668L1.73398 8.90016C1.61176 8.77794 1.51454 8.6335 1.44232 8.46683C1.3701 8.30016 1.33398 8.12239 1.33398 7.9335V3.16683C1.33398 2.80016 1.46454 2.48627 1.72565 2.22516C1.98676 1.96405 2.30065 1.8335 2.66732 1.8335H7.43398C7.62287 1.8335 7.80065 1.86961 7.96732 1.94183C8.13398 2.01405 8.27843 2.11127 8.40065 2.2335L14.2673 8.11683C14.5229 8.37239 14.6507 8.68627 14.6507 9.0585C14.6507 9.43072 14.5229 9.74461 14.2673 10.0002L9.50065 14.7668ZM4.33398 5.8335C4.61176 5.8335 4.84787 5.73627 5.04232 5.54183C5.23676 5.34739 5.33398 5.11127 5.33398 4.8335C5.33398 4.55572 5.23676 4.31961 5.04232 4.12516C4.84787 3.93072 4.61176 3.8335 4.33398 3.8335C4.05621 3.8335 3.8201 3.93072 3.62565 4.12516C3.43121 4.31961 3.33398 4.55572 3.33398 4.8335C3.33398 5.11127 3.43121 5.34739 3.62565 5.54183C3.8201 5.73627 4.05621 5.8335 4.33398 5.8335Z" fill="#1C1B1F"/>
</g>
</svg>
