<svg width="12" height="13" viewBox="0 0 12 13" fill="none" xmlns="http://www.w3.org/2000/svg">
<mask id="mask0_319_4502" style="mask-type:alpha" maskUnits="userSpaceOnUse" x="0" y="0" width="12" height="13">
<rect y="0.5" width="12" height="12" fill="#D9D9D9"/>
</mask>
<g mask="url(#mask0_319_4502)">
<path d="M6 9C6.14167 9 6.26042 8.95208 6.35625 8.85625C6.45208 8.76042 6.5 8.64167 6.5 8.5V6.5C6.5 6.35833 6.45208 6.23958 6.35625 6.14375C6.26042 6.04792 6.14167 6 6 6C5.85833 6 5.73958 6.04792 5.64375 6.14375C5.54792 6.23958 5.5 6.35833 5.5 6.5V8.5C5.5 8.64167 5.54792 8.76042 5.64375 8.85625C5.73958 8.95208 5.85833 9 6 9ZM6 5C6.14167 5 6.26042 4.95208 6.35625 4.85625C6.45208 4.76042 6.5 4.64167 6.5 4.5C6.5 4.35833 6.45208 4.23958 6.35625 4.14375C6.26042 4.04792 6.14167 4 6 4C5.85833 4 5.73958 4.04792 5.64375 4.14375C5.54792 4.23958 5.5 4.35833 5.5 4.5C5.5 4.64167 5.54792 4.76042 5.64375 4.85625C5.73958 4.95208 5.85833 5 6 5ZM6 11.5C5.30833 11.5 4.65833 11.3687 4.05 11.1062C3.44167 10.8438 2.9125 10.4875 2.4625 10.0375C2.0125 9.5875 1.65625 9.05833 1.39375 8.45C1.13125 7.84167 1 7.19167 1 6.5C1 5.80833 1.13125 5.15833 1.39375 4.55C1.65625 3.94167 2.0125 3.4125 2.4625 2.9625C2.9125 2.5125 3.44167 2.15625 4.05 1.89375C4.65833 1.63125 5.30833 1.5 6 1.5C6.69167 1.5 7.34167 1.63125 7.95 1.89375C8.55833 2.15625 9.0875 2.5125 9.5375 2.9625C9.9875 3.4125 10.3438 3.94167 10.6062 4.55C10.8687 5.15833 11 5.80833 11 6.5C11 7.19167 10.8687 7.84167 10.6062 8.45C10.3438 9.05833 9.9875 9.5875 9.5375 10.0375C9.0875 10.4875 8.55833 10.8438 7.95 11.1062C7.34167 11.3687 6.69167 11.5 6 11.5Z" fill="black"/>
</g>
</svg>
