<?xml version="1.0" encoding="UTF-8"?>
<svg width="19px" height="18px" viewBox="0 0 19 18" version="1.1" xmlns="http://www.w3.org/2000/svg" xmlns:xlink="http://www.w3.org/1999/xlink">
    <title>D0B51346-D121-4F03-938A-D190C2AE3F1F</title>
    <g id="Page-1" stroke="none" stroke-width="1" fill="none" fill-rule="evenodd">
        <g id="Desktop-HD" transform="translate(-454.000000, -1443.000000)" fill="#49494C">
            <path d="M468.375,1452.625 L464.625,1452.625 L464.625,1456.375 C464.625,1456.72 464.345,1457 464,1457 C463.655,1457 463.375,1456.72 463.375,1456.375 L463.375,1452.625 L459.625,1452.625 C459.28,1452.625 459,1452.345 459,1452 C459,1451.655 459.28,1451.375 459.625,1451.375 L463.375,1451.375 L463.375,1447.625 C463.375,1447.28 463.655,1447 464,1447 C464.345,1447 464.625,1447.28 464.625,1447.625 L464.625,1451.375 L468.375,1451.375 C468.72,1451.375 469,1451.655 469,1452 C469,1452.345 468.72,1452.625 468.375,1452.625 M463.5,1443 C458.253467,1443 454,1447.0296 454,1452 C454,1456.9704 458.253467,1461 463.5,1461 C468.746533,1461 473,1456.9704 473,1452 C472.993667,1447.032 468.744,1443.006 463.5,1443" id="Fill-1"></path>
        </g>
    </g>
</svg>