<?xml version="1.0" encoding="UTF-8"?>
<svg width="21px" height="26px" viewBox="0 0 21 26" version="1.1" xmlns="http://www.w3.org/2000/svg" xmlns:xlink="http://www.w3.org/1999/xlink">
    <title>AE7470FC-8D83-4E95-84E6-E88464FB2557</title>
    <g id="Page-1" stroke="none" stroke-width="1" fill="none" fill-rule="evenodd">
        <g id="User-Dashboard-Edit-Payment" transform="translate(-1314.000000, -59.000000)" fill="#000000">
            <g id="Nav" transform="translate(105.000000, 46.000000)">
                <path d="M1215.69565,19.8735632 L1215.69565,19.4850575 C1215.69565,17.4229885 1217.4,15.6896552 1219.43913,15.6896552 L1219.56087,15.6896552 C1221.6,15.6896552 1223.30435,17.4229885 1223.30435,19.4850575 L1223.30435,19.8735632 L1215.69565,19.8735632 Z M1229.60435,20.291954 C1229.33043,20.0229885 1228.99565,19.8735632 1228.63043,19.8735632 L1226.04348,19.8735632 L1226.04348,19.4850575 C1226.04348,15.9885057 1223.0913,13 1219.56087,13 L1219.43913,13 C1215.93913,13 1212.95652,15.9586207 1212.95652,19.4850575 L1212.95652,19.8735632 L1210.36957,19.8735632 C1209.63913,19.8735632 1209,20.5011494 1209,21.2781609 L1209,37.6551724 C1209,38.4022989 1209.6087,39 1210.36957,39 L1228.63043,39 C1229.3913,39 1230,38.4022989 1230,37.6551724 L1230,21.2482759 C1230,20.8896552 1229.84783,20.5310345 1229.60435,20.291954 L1229.60435,20.291954 Z" id="Fill-1"></path>
            </g>
        </g>
    </g>
</svg>