<?xml version="1.0" encoding="UTF-8"?>
<svg width="20px" height="20px" viewBox="0 0 20 20" version="1.1" xmlns="http://www.w3.org/2000/svg" xmlns:xlink="http://www.w3.org/1999/xlink">
    <title>AFC6C0F5-85B3-46A2-885C-629EACC9769B</title>
    <g id="Page-1" stroke="none" stroke-width="1" fill="none" fill-rule="evenodd">
        <g id="Sign-Up---Free-Account" transform="translate(-1048.000000, -150.000000)" fill="#5C5C5C">
            <g id="Group-5" transform="translate(1048.000000, 150.000000)">
                <path d="M9.6,17.6 C14.0184,17.6 17.6,14.0184 17.6,9.6 C17.6,5.1816 14.0184,1.6 9.6,1.6 C5.1816,1.6 1.6,5.1816 1.6,9.6 C1.6,14.0184 5.1816,17.6 9.6,17.6 M9.6,19.2 C4.298,19.2 0,14.902 0,9.6 C0,4.298 4.298,0 9.6,0 C14.902,0 19.2,4.298 19.2,9.6 C19.2,14.902 14.902,19.2 9.6,19.2" id="Fill-1"></path>
                <path d="M10.73136,9.6 L12.71376,11.5824 C13.02496,11.8936 13.02576,12.3968 12.71136,12.7112 C12.39896,13.0236 11.89376,13.0252 11.58256,12.7136 L9.60016,10.7312 L7.61776,12.7136 C7.30656,13.0248 6.80336,13.026 6.48856,12.7112 C6.17616,12.3988 6.17456,11.894 6.48616,11.5824 L8.46856,9.6 L6.48616,7.6176 C6.17536,7.3064 6.17416,6.8032 6.48856,6.4888 C6.80096,6.1764 7.30616,6.1748 7.61776,6.4864 L9.60016,8.4688 L11.58256,6.4864 C11.89336,6.1752 12.39656,6.174 12.71136,6.4888 C13.02376,6.8012 13.02536,7.306 12.71376,7.6176 L10.73136,9.6 Z" id="Fill-3"></path>
            </g>
        </g>
    </g>
</svg>