<?xml version="1.0" encoding="UTF-8"?>
<svg width="95px" height="36px" viewBox="0 0 95 36" version="1.1" xmlns="http://www.w3.org/2000/svg" xmlns:xlink="http://www.w3.org/1999/xlink">
    <title>B184BFB7-8AB4-4247-9A43-DE7BFFCF3376</title>
    <g id="Page-1" stroke="none" stroke-width="1" fill="none" fill-rule="evenodd">
        <g id="Checkout-1" transform="translate(-105.000000, -52.000000)" fill="#000000" fill-rule="nonzero">
            <g id="feel-logo-black" transform="translate(105.000000, 52.000000)">
                <g id="Group" transform="translate(0.000000, 10.710000)">
                    <path d="M9.051,7.602 L9.051,8.043 L16.359,8.043 L16.359,12.369 L9.051,12.369 L9.051,23.646 L3.486,23.646 L3.486,12.369 L0,12.369 L0,8.022 L3.486,8.022 L3.486,7.623 C3.486,1.701 7.875,0.084 12.621,0.084 C14.532,0.084 16.842,0.693 17.115,0.819 L17.115,5.145 C16.569,4.935 15.099,4.473 13.251,4.473 C10.941,4.494 9.051,5.187 9.051,7.602 Z" id="Path"></path>
                    <path d="M42.903,14.973 L42.798,16.506 L23.478,16.506 C24.549,19.572 28.77,20.139 31.563,20.139 C34.734,20.139 37.758,19.404 40.719,18.459 L40.719,23.247 C37.632,24.108 34.356,24.528 31.248,24.528 C24.654,24.528 17.661,22.68 17.661,14.973 C17.661,7.014 25.116,5.376 30.282,5.376 C35.469,5.397 42.903,7.035 42.903,14.973 Z M23.541,13.251 L37.065,13.251 C37.065,12.159 35.931,9.807 30.282,9.807 C24.633,9.807 23.541,12.159 23.541,13.251 Z" id="Shape"></path>
                    <path d="M69.972,14.973 L69.867,16.506 L50.547,16.506 C51.618,19.572 55.839,20.139 58.632,20.139 C61.803,20.139 64.827,19.404 67.788,18.459 L67.788,23.247 C64.701,24.108 61.425,24.528 58.317,24.528 C51.723,24.528 44.73,22.68 44.73,14.973 C44.73,7.014 52.185,5.376 57.351,5.376 C62.538,5.397 69.972,7.035 69.972,14.973 Z M50.61,13.251 L64.134,13.251 C64.134,12.159 63,9.807 57.351,9.807 C51.702,9.807 50.61,12.159 50.61,13.251 Z" id="Shape"></path>
                    <polygon id="Path" points="72.513 1.386 78.078 1.386 78.078 23.646 72.513 23.646"></polygon>
                </g>
                <g id="Group" transform="translate(57.960000, 0.000000)">
                    <polygon id="Path" points="3.339 8.799 4.221 9.45 3.738 10.101 2.835 9.45 0 9.66 0.651 8.799 2.499 8.673 2.079 6.867 2.688 6.027"></polygon>
                    <path d="M8.526,3.57 C9.303,4.641 8.484,5.754 7.581,6.405 C6.678,7.035 5.376,7.455 4.599,6.384 C3.822,5.313 4.641,4.2 5.544,3.549 C6.426,2.919 7.749,2.499 8.526,3.57 Z M7.854,4.053 C7.371,3.36 6.468,3.738 5.943,4.116 C5.418,4.494 4.767,5.208 5.271,5.901 C5.754,6.594 6.657,6.216 7.182,5.838 C7.707,5.46 8.337,4.746 7.854,4.053 Z" id="Shape"></path>
                    <path d="M13.335,0.273 L13.86,2.058 C14.175,3.129 13.188,3.843 12.327,4.095 C11.466,4.347 10.248,4.284 9.933,3.213 L9.408,1.428 L10.185,1.197 L10.71,2.961 C10.899,3.591 11.676,3.57 12.138,3.444 C12.6,3.297 13.251,2.898 13.083,2.268 L12.558,0.504 L13.335,0.273 Z" id="Path"></path>
                    <path d="M19.467,3.423 L18.522,3.381 L17.955,2.289 L16.086,2.226 L16.044,3.297 L15.225,3.276 L15.33,0 L18.207,0.105 C18.522,0.126 18.816,0.147 19.068,0.294 C19.404,0.504 19.572,0.882 19.551,1.26 C19.53,1.701 19.278,2.1 18.858,2.247 L19.467,3.423 Z M16.128,0.714 L16.107,1.554 L18.039,1.617 C18.375,1.638 18.732,1.638 18.732,1.218 C18.753,0.798 18.396,0.798 18.06,0.777 L16.128,0.714 Z" id="Shape"></path>
                    <path d="M25.956,5.397 C26.376,5.523 26.712,5.607 26.922,5.628 L26.565,6.258 C26.334,6.216 25.977,6.111 25.578,5.964 C25.284,5.859 24.99,5.712 24.738,5.565 C23.835,5.061 22.89,4.032 23.541,2.877 C24.192,1.722 25.557,1.995 26.46,2.499 C26.712,2.646 26.985,2.814 27.237,3.003 C27.573,3.255 27.846,3.528 27.993,3.696 L27.636,4.326 C27.489,4.158 27.258,3.927 26.922,3.633 C26.691,3.444 26.334,3.213 26.124,3.087 C25.599,2.793 24.675,2.52 24.255,3.255 C23.835,3.99 24.549,4.641 25.074,4.935 C25.284,5.103 25.683,5.313 25.956,5.397 Z" id="Path"></path>
                    <path d="M31.584,9.471 C30.576,10.353 29.4,9.639 28.665,8.82 C27.93,8.001 27.384,6.72 28.392,5.859 C29.379,4.977 30.576,5.691 31.311,6.51 C32.025,7.329 32.571,8.589 31.584,9.471 Z M31.038,8.862 C31.668,8.295 31.206,7.455 30.786,6.972 C30.345,6.489 29.568,5.922 28.938,6.489 C28.308,7.056 28.749,7.896 29.19,8.379 C29.631,8.862 30.408,9.408 31.038,8.862 Z" id="Shape"></path>
                    <polygon id="Path" points="33.495 11.235 32.886 11.487 33.915 13.902 33.285 14.175 32.256 11.76 31.122 12.243 30.807 11.487 33.831 10.206 35.259 13.566 34.629 13.839"></polygon>
                    <polygon id="Path" points="35.091 16.338 34.44 16.422 34.734 19.026 34.041 19.11 33.747 16.506 32.508 16.653 32.424 15.834 35.679 15.456 36.099 19.089 35.406 19.173"></polygon>
                    <polygon id="Path" points="35.28 24.78 34.629 24.654 35.196 21.693 34.566 21.567 34.041 24.318 33.39 24.192 33.915 21.441 33.285 21.315 32.718 24.276 32.067 24.15 32.802 20.391 36.015 21.021"></polygon>
                    <polygon id="Path" points="32.76 30.093 32.172 29.778 33.6 27.132 33.033 26.838 31.71 29.295 31.122 28.98 32.445 26.523 31.878 26.229 30.45 28.875 29.862 28.56 31.689 25.2 34.566 26.754"></polygon>
                </g>
            </g>
        </g>
    </g>
</svg>