<?xml version="1.0" encoding="UTF-8"?>
<svg width="197px" height="52px" viewBox="0 0 197 52" version="1.1" xmlns="http://www.w3.org/2000/svg" xmlns:xlink="http://www.w3.org/1999/xlink">
    <title>78E18F7F-670F-4C9F-BA85-7A74F100D466</title>
    <defs>
        <polygon id="path-1" points="0.0135523991 0.00606958345 50.679228 0.00606958345 50.679228 50.7445372 0.0135523991 50.7445372"></polygon>
        <polygon id="path-3" points="0 0.00606958345 61.7573804 0.00606958345 61.7573804 44.3562335 0 44.3562335"></polygon>
    </defs>
    <g id="Page-1" stroke="none" stroke-width="1" fill="none" fill-rule="evenodd">
        <g id="Landing-Page" transform="translate(-105.000000, -14.000000)">
            <g id="Group-5" transform="translate(105.000000, 14.000000)">
                <text id="CupWise" font-family="Inter-Bold, Inter" font-size="20.8" font-weight="bold" fill="#000000">
                    <tspan x="70.2" y="34.3">Cup</tspan>
                    <tspan x="111.932955" y="34.3" font-family="Inter-Regular, Inter" font-weight="normal">Wise</tspan>
                </text>
                <g id="Group-7">
                    <g id="Group-3" transform="translate(5.532311, 0.029289)">
                        <mask id="mask-2" fill="white">
                            <use xlink:href="#path-1"></use>
                        </mask>
                        <g id="Clip-2"></g>
                        <path d="M50.679228,25.3753016 C50.679228,39.3863351 39.3373218,50.7445372 25.3463902,50.7445372 C11.3554586,50.7445372 0.0135523991,39.3863351 0.0135523991,25.3753016 C0.0135523991,11.3642681 11.3554586,0.00606605462 25.3463902,0.00606605462 C39.3373218,0.00606605462 50.679228,11.3642681 50.679228,25.3753016" id="Fill-1" fill="#B6FAF1" mask="url(#mask-2)"></path>
                    </g>
                    <g id="Group-6" transform="translate(0.000000, 0.029289)">
                        <mask id="mask-4" fill="white">
                            <use xlink:href="#path-3"></use>
                        </mask>
                        <g id="Clip-5"></g>
                        <path d="M39.150527,9.68631413 L39.150527,4.03182667 C39.150527,3.56072819 39.5340536,3.17647415 40.0044409,3.17647415 L40.4076653,3.17647415 C40.8775946,3.17647415 41.2615792,3.56072819 41.2615792,4.03182667 L41.2615792,9.68631413 C41.2615792,10.1573773 40.8775946,10.5416314 40.4076653,10.5416314 L40.0044409,10.5416314 C39.5340536,10.5416314 39.150527,10.1573773 39.150527,9.68631413 L39.150527,9.68631413 Z M41.4429121,37.5851897 C40.59668,39.418945 39.2882005,40.9951664 37.6671278,42.1639141 C35.7527721,43.543474 33.407601,44.3562335 30.8788417,44.3562335 C28.3500825,44.3562335 26.0050875,43.543474 24.0907319,42.1639141 C22.4696239,40.9951664 21.1611444,39.418945 20.3144542,37.5851897 C20.1730455,37.2780406 20.1685703,36.9589993 20.3026143,36.6486389 C20.4367993,36.3377845 20.6711649,36.1219614 20.9917218,36.0145792 L21.0306594,36.0013813 C21.587978,35.8148122 22.1892027,36.0746045 22.4354786,36.6084808 C23.1122529,38.0736148 24.1584234,39.333865 25.4537241,40.2673457 C26.9762371,41.3646347 28.8497171,42.0113629 30.8788417,42.0113629 C32.9081778,42.0113629 34.7814816,41.3646347 36.3039594,40.2673457 C37.5992601,39.333865 38.645642,38.0736148 39.3222048,36.6084808 C39.5686217,36.0746045 40.170375,35.8148122 40.7270241,36.0013813 L40.7661731,36.0145792 C41.0865186,36.1219614 41.3210956,36.3377845 41.4551044,36.6486389 C41.5888312,36.9589993 41.5846732,37.2780406 41.4429121,37.5851897 L41.4429121,37.5851897 Z M22.6068746,9.68631413 L22.6068746,4.03182667 C22.6068746,3.56072819 22.223348,3.17647415 21.7532426,3.17647415 L21.3502296,3.17647415 C20.8797718,3.17647415 20.4962452,3.56072819 20.4962452,4.03182667 L20.4962452,9.68631413 C20.4962452,10.1573773 20.8797718,10.5416314 21.3502296,10.5416314 L21.7532426,10.5416314 C22.223348,10.5416314 22.6068746,10.1573773 22.6068746,9.68631413 L22.6068746,9.68631413 Z M5.85369907,14.4384451 L5.85369907,18.9956789 C5.85369907,19.2628464 5.86335419,19.5272968 5.88241775,19.7894887 L4.7830384,19.7894887 C4.04900298,19.7894887 3.38139052,19.4880915 2.89637954,19.0025601 C2.4118619,18.5173463 2.11110858,17.8487746 2.11110858,17.1137199 C2.11110858,16.3791591 2.4118619,15.7105874 2.89637954,15.2248796 C3.38139052,14.7396658 4.04900298,14.4384451 4.7830384,14.4384451 L5.85369907,14.4384451 Z M6.24910071,21.9031152 C6.7595885,23.7376821 7.73937128,25.3816923 9.04961271,26.6938163 C11.0216524,28.6687246 13.7426683,29.8947452 16.7368464,29.8947452 C19.730355,29.8947452 22.4513708,28.6687246 24.4239038,26.6938163 C26.3958378,24.7190491 27.6198175,21.994159 27.6198175,18.9956789 L27.6198175,18.6657335 L34.1380774,18.6657335 L34.1380774,18.9956789 C34.1380774,21.994159 35.3618809,24.7190491 37.3339206,26.6938163 C39.3058898,28.6687246 42.0273285,29.8947452 45.0210485,29.8947452 C48.0147333,29.8947452 50.736172,28.6687246 52.7081412,26.6938163 C54.0183474,25.3816923 54.9983064,23.7376821 55.5086532,21.9031152 L56.9748565,21.9031152 C58.2915112,21.9031152 59.4872303,21.3645809 60.3535126,20.4972656 C61.2196187,19.6297386 61.7573804,18.4317722 61.7573804,17.1137199 C61.7573804,15.7956675 61.2196187,14.5981951 60.3535126,13.7306681 C59.4872303,12.8631765 58.2915112,12.3243245 56.9748565,12.3243245 L55.9039844,12.3243245 L54.8486873,12.3243245 L35.1933745,12.3243245 L34.1380774,12.3243245 L34.1380774,13.3811378 L34.1380774,16.5520717 L27.6198175,16.5520717 L27.6198175,13.3811378 L27.6198175,12.3243245 L26.5645204,12.3243245 L6.90899613,12.3243245 L5.85369907,12.3243245 L4.7830384,12.3243245 C3.46638372,12.3243245 2.27062941,12.8631765 1.40438233,13.7306681 C0.538064776,14.5981951 -1.4095059e-05,15.7956675 -1.4095059e-05,17.1137199 C-1.4095059e-05,18.4317722 0.538064776,19.6297386 1.40438233,20.4972656 C2.27062941,21.3645809 3.46638372,21.9031152 4.7830384,21.9031152 L6.24910071,21.9031152 Z M7.96429318,18.9956789 L7.96429318,14.4384451 L25.5092234,14.4384451 L25.5092234,18.9956789 C25.5092234,21.4106673 24.5220407,23.606692 22.9313781,25.1996048 L22.9286648,25.202322 C22.394603,25.7384568 21.791123,26.2055324 21.1334124,26.589116 C19.838605,27.3459789 18.3356489,27.7806246 16.7368464,27.7806246 C15.1378324,27.7806246 13.6349115,27.3459789 12.3400337,26.589116 C11.6825345,26.2055324 11.0789136,25.7384568 10.5444994,25.202322 L10.5417861,25.1996048 C8.95147586,23.606692 7.96429318,21.4106673 7.96429318,18.9956789 L7.96429318,18.9956789 Z M12.9772009,9.68631413 L12.9772009,4.03182667 C12.9772009,3.56072819 12.5937095,3.17647415 12.1232869,3.17647415 L11.7202035,3.17647415 C11.2503095,3.17647415 10.8662896,3.56072819 10.8662896,4.03182667 L10.8662896,9.68631413 C10.8662896,10.1573773 11.2503095,10.5416314 11.7202035,10.5416314 L12.1232869,10.5416314 C12.5937095,10.5416314 12.9772009,10.1573773 12.9772009,9.68631413 L12.9772009,9.68631413 Z M17.7921434,9.68631413 L17.7921434,0.861210372 C17.7921434,0.390253043 17.4084407,0.00606958345 16.9380181,0.00606958345 L16.5349346,0.00606958345 C16.0650406,0.00606958345 15.6815141,0.390253043 15.6815141,0.861210372 L15.6815141,9.68631413 C15.6815141,10.1573773 16.0650406,10.5416314 16.5349346,10.5416314 L16.9380181,10.5416314 C17.4084407,10.5416314 17.7921434,10.1573773 17.7921434,9.68631413 L17.7921434,9.68631413 Z M55.9039844,14.4384451 L55.9039844,18.9956789 C55.9039844,19.2628464 55.8940474,19.5272968 55.8754771,19.7894887 L56.9748565,19.7894887 C57.7088567,19.7894887 58.3764691,19.4880915 58.8613392,19.0025601 C59.3458216,18.5173463 59.6467863,17.8487746 59.6467863,17.1137199 C59.6467863,16.3791591 59.3458216,15.7105874 58.8613392,15.2248796 C58.3764691,14.7396658 57.7088567,14.4384451 56.9748565,14.4384451 L55.9039844,14.4384451 Z M53.7933903,18.9956789 L53.7933903,14.4384451 L36.2486715,14.4384451 L36.2486715,18.9956789 C36.2486715,21.4106673 37.235819,23.606692 38.8264816,25.1996048 L38.8287368,25.202322 C39.3631157,25.7384568 39.9667719,26.2055324 40.6244121,26.589116 C41.9192899,27.3459789 43.4222108,27.7806246 45.0210485,27.7806246 C46.6198511,27.7806246 48.1228424,27.3459789 49.4176498,26.589116 C50.07529,26.2055324 50.678488,25.7384568 51.2133602,25.202322 L51.2155802,25.1996048 C52.8062428,23.606692 53.7933903,21.4106673 53.7933903,18.9956789 L53.7933903,18.9956789 Z M48.7804826,9.68631413 L48.7804826,4.03182667 C48.7804826,3.56072819 49.1641501,3.17647415 49.6343965,3.17647415 L50.0376209,3.17647415 C50.5075854,3.17647415 50.8910767,3.56072819 50.8910767,4.03182667 L50.8910767,9.68631413 C50.8910767,10.1573773 50.5075854,10.5416314 50.0376209,10.5416314 L49.6343965,10.5416314 C49.1641501,10.5416314 48.7804826,10.1573773 48.7804826,9.68631413 L48.7804826,9.68631413 Z M43.9657515,9.68631413 L43.9657515,0.861210372 C43.9657515,0.390253043 44.3492428,0.00606958345 44.8196654,0.00606958345 L45.2223964,0.00606958345 C45.692819,0.00606958345 46.0763103,0.390253043 46.0763103,0.861210372 L46.0763103,9.68631413 C46.0763103,10.1573773 45.692819,10.5416314 45.2223964,10.5416314 L44.8196654,10.5416314 C44.3492428,10.5416314 43.9657515,10.1573773 43.9657515,9.68631413 L43.9657515,9.68631413 Z" id="Fill-4" fill="#1A1A1A" mask="url(#mask-4)"></path>
                    </g>
                </g>
            </g>
        </g>
    </g>
</svg>