<?xml version="1.0" encoding="UTF-8"?>
<svg width="19px" height="19px" viewBox="0 0 19 19" version="1.1" xmlns="http://www.w3.org/2000/svg" xmlns:xlink="http://www.w3.org/1999/xlink">
    <title>22001C5F-5674-42C6-8A43-CEEE985E5B18</title>
    <g id="Page-1" stroke="none" stroke-width="1" fill="none" fill-rule="evenodd" opacity="1">
        <g id="New-Cupping-Session---Add-Coffee---Select-Existing-Coffee---More-Options-Copy" transform="translate(-569.000000, -317.000000)" fill="#5C5C5C">
            <path d="M578.5,334.416667 C582.872375,334.416667 586.416667,330.872375 586.416667,326.5 C586.416667,322.127625 582.872375,318.583333 578.5,318.583333 C574.127625,318.583333 570.583333,322.127625 570.583333,326.5 C570.583333,330.872375 574.127625,334.416667 578.5,334.416667 L578.5,334.416667 Z M578.5,336 C573.253229,336 569,331.746771 569,326.5 C569,321.253229 573.253229,317 578.5,317 C583.746771,317 588,321.253229 588,326.5 C588,331.746771 583.746771,336 578.5,336 L578.5,336 Z M579.291667,325.708333 L582.066063,325.708333 C582.501479,325.708333 582.854167,326.059833 582.854167,326.5 C582.854167,326.937396 582.501875,327.291667 582.066063,327.291667 L579.291667,327.291667 L579.291667,330.066062 C579.291667,330.501479 578.940167,330.854167 578.5,330.854167 C578.062604,330.854167 577.708333,330.501875 577.708333,330.066062 L577.708333,327.291667 L574.933937,327.291667 C574.498521,327.291667 574.145833,326.940167 574.145833,326.5 C574.145833,326.062604 574.498125,325.708333 574.933937,325.708333 L577.708333,325.708333 L577.708333,322.933938 C577.708333,322.498521 578.059833,322.145833 578.5,322.145833 C578.937396,322.145833 579.291667,322.498125 579.291667,322.933938 L579.291667,325.708333 Z" id="Fill-1-Copy-2"></path>
        </g>
    </g>
</svg>