<?xml version="1.0" encoding="UTF-8"?>
<svg width="27px" height="26px" viewBox="0 0 27 26" version="1.1" xmlns="http://www.w3.org/2000/svg" xmlns:xlink="http://www.w3.org/1999/xlink">
    <title>0BD6A628-7E12-49A1-BA81-0FA1E9CA589F</title>
    <defs>
        <polygon id="path-1" points="3.33426135e-05 8e-05 26.6596 8e-05 26.6596 25.55928 3.33426135e-05 25.55928"></polygon>
    </defs>
    <g id="Page-1" stroke="none" stroke-width="1" fill="none" fill-rule="evenodd">
        <g id="Home" transform="translate(-51.000000, -126.000000)">
            <g id="Group-3" transform="translate(51.000000, 126.000000)">
                <mask id="mask-2" fill="white">
                    <use xlink:href="#path-1"></use>
                </mask>
                <g id="Clip-2"></g>
                <path d="M21.96812,23.92568 C21.96812,23.95728 21.94172,23.98328 21.90932,23.98328 L17.39692,23.98328 L17.39692,14.59448 L9.24852,14.59448 L9.24852,23.98288 L4.75252,23.98288 C4.71972,23.98288 4.69292,23.95688 4.69292,23.92528 L4.69172,13.44808 L4.78532,12.57568 L1.90372,12.57568 C1.78572,12.57568 1.70052,12.53128 1.63572,12.43568 C1.56852,12.33568 1.55852,12.24128 1.60252,12.12968 C1.73532,11.79528 1.92292,11.51648 2.15972,11.30168 L12.60972,1.89888 C13.08772,1.46928 13.57172,1.47008 14.04932,1.89888 L24.49492,11.29968 C24.73892,11.52048 24.92812,11.79968 25.05852,12.13008 C25.10172,12.23888 25.09172,12.33488 25.02612,12.43208 C24.95892,12.53128 24.87492,12.57568 24.75332,12.57568 L21.96412,12.57568 L21.96812,23.92568 Z M26.52292,11.54968 C26.30132,10.99128 25.97452,10.51368 25.55012,10.13048 L15.10292,0.72728 C14.02652,-0.24232 12.63412,-0.24232 11.55612,0.72728 L1.10412,10.13208 C0.68412,10.51168 0.35932,10.98848 0.13772,11.54808 C-0.09868,12.14128 -0.02828,12.78648 0.33052,13.31968 C0.69212,13.84848 1.26532,14.15128 1.90332,14.15128 L3.11612,14.15128 L3.11612,23.92568 C3.11612,24.82648 3.85012,25.55928 4.75212,25.55928 L10.82492,25.55928 L10.82492,16.17048 L15.82092,16.17048 L15.82092,25.55928 L21.90892,25.55928 C22.34532,25.55928 22.75652,25.38888 23.06532,25.07928 C23.37412,24.77008 23.54332,24.36048 23.54292,23.92528 L23.54292,14.15168 L24.75252,14.15168 C25.39412,14.15168 25.96892,13.84768 26.32972,13.31648 C26.68812,12.78648 26.75812,12.14248 26.52292,11.54968 L26.52292,11.54968 Z" id="Fill-1" fill="#38D5FF" mask="url(#mask-2)"></path>
            </g>
        </g>
    </g>
</svg>