<?xml version="1.0" encoding="UTF-8"?>
<svg width="26px" height="23px" viewBox="0 0 26 23" version="1.1" xmlns="http://www.w3.org/2000/svg" xmlns:xlink="http://www.w3.org/1999/xlink">
    <title>B8729EA4-F388-4107-81CD-3547D3F74C0F</title>
    <g id="Page-1" stroke="none" stroke-width="1" fill="none" fill-rule="evenodd">
        <g id="Coffees---List-View" transform="translate(-51.000000, -968.000000)" fill="#5C5C5C">
            <g id="Group-5" transform="translate(51.000000, 968.000000)">
                <path d="M0.9924,22.93568 C0.4444,22.93568 0,22.49128 0,21.94328 L0,0.99248 C0,0.44448 0.4444,8e-05 0.9924,8e-05 C1.5404,8e-05 1.9848,0.44448 1.9848,0.99248 L1.9848,21.94328 C1.9848,22.20648 1.8824,22.44608 1.7152,22.62328 C1.5344,22.81568 1.2776,22.93568 0.9924,22.93568" id="Fill-1"></path>
                <path d="M8.69396,12.86604 L24.58116,12.86604 C25.13436,12.86604 25.58196,12.42964 25.58196,11.89044 C25.58196,11.35164 25.13436,10.91524 24.58116,10.91524 L8.69396,10.91524 L13.63636,6.05524 C14.00836,5.67044 13.99796,5.06524 13.61116,4.69324 C13.22596,4.32084 12.60676,4.31604 12.21476,4.68244 L5.58316,11.20564 C5.19636,11.58604 5.19636,12.19844 5.58316,12.57844 L12.21476,19.10124 C12.32516,19.21564 12.46036,19.30084 12.60916,19.35204 C12.70996,19.38644 12.81676,19.40524 12.92556,19.40724 C13.19596,19.41204 13.45596,19.30964 13.64756,19.12484 C13.83956,18.94004 13.94556,18.68684 13.94356,18.42364 C13.94276,18.29644 13.91596,18.17164 13.86716,18.05644 C13.81436,17.93404 13.73596,17.82204 13.63636,17.72844 L8.69396,12.86604 Z" id="Fill-3"></path>
            </g>
        </g>
    </g>
</svg>