<?xml version="1.0" encoding="UTF-8"?>
<svg width="20px" height="16px" viewBox="0 0 20 16" version="1.1" xmlns="http://www.w3.org/2000/svg" xmlns:xlink="http://www.w3.org/1999/xlink">
    <title>FFEA6481-87DA-406D-B5CE-F303A63FE0B6</title>
    <defs>
        <polygon id="path-1" points="0 0 20 0 20 16 0 16"></polygon>
    </defs>
    <g id="Page-1" stroke="none" stroke-width="1" fill="none" fill-rule="evenodd">
        <g id="Buy-a-plan" transform="translate(-309.000000, -460.000000)">
            <g id="Group-3" transform="translate(309.000000, 460.000000)">
                <mask id="mask-2" fill="white">
                    <use xlink:href="#path-1"></use>
                </mask>
                <g id="Clip-2"></g>
                <path d="M1.39561799,2.9039332 L1.39561799,4.08580749 L18.6048048,4.08580749 L18.6048048,2.9039332 C18.6048048,1.88593607 18.089138,1.37708275 17.0583926,1.37708275 L2.95350059,1.37691675 C1.91573851,1.37691675 1.3964163,1.88577007 1.39561799,2.9039332 L1.39561799,2.9039332 Z M1.2878541e-06,2.9039332 C-0.0012999289,0.967618081 0.983437499,0 2.95362663,0 L17.0585187,0 C19.0193382,-0.000165993581 20.0000013,0.967576582 20.0000013,2.9039332 L20.0000013,13.0847345 C20.0000013,15.0296398 19.0193382,16.0014492 17.0583506,16 L2.95387873,16 C0.985034121,16 0.000254676422,15.0281873 0.000254676422,13.0847345 L1.2878541e-06,2.9039332 Z M1.39574404,13.0847345 C1.39574404,14.1100353 1.91502423,14.622914 2.95362663,14.622914 L17.0585187,14.622914 C18.089222,14.6216276 18.6049308,14.1087074 18.6049308,13.0847345 L18.6049308,7.94266834 L1.39612219,7.94266834 L1.39574404,13.0847345 Z" id="Fill-1" fill="#000000" mask="url(#mask-2)"></path>
            </g>
        </g>
    </g>
</svg>