<?xml version="1.0" encoding="UTF-8"?>
<svg width="19px" height="18px" viewBox="0 0 19 18" version="1.1" xmlns="http://www.w3.org/2000/svg" xmlns:xlink="http://www.w3.org/1999/xlink">
    <title>43D26058-BD6D-4AC9-858C-669C47F8074F</title>
    <defs>
        <polygon id="path-1" points="0.00484 0.2352 10.454 0.2352 10.454 16.39996 0.00484 16.39996"></polygon>
    </defs>
    <g id="Page-1" stroke="none" stroke-width="1" fill="none" fill-rule="evenodd">
        <g id="Profile-Hover" transform="translate(-1290.000000, -211.000000)">
            <g id="Profile-hover" transform="translate(1277.000000, 68.000000)">
                <g id="Group-6" transform="translate(13.000000, 143.000000)">
                    <g id="Group-3" transform="translate(7.200000, 0.164840)">
                        <mask id="mask-2" fill="white">
                            <use xlink:href="#path-1"></use>
                        </mask>
                        <g id="Clip-2"></g>
                        <path d="M8.33164,0.23516 L2.14564,0.23516 C0.96524,0.23516 0.00484,1.18716 0.00484,2.35756 L0.00484,3.99836 C0.00484,4.41356 0.34244,4.75156 0.75804,4.75156 C1.17324,4.75156 1.51124,4.41356 1.51124,3.99836 L1.51124,2.35756 C1.51124,2.01756 1.79604,1.74156 2.14564,1.74156 L8.33164,1.74156 C8.67684,1.74156 8.94764,2.01196 8.94764,2.35756 L8.94764,14.27756 C8.94764,14.62316 8.67684,14.89356 8.33164,14.89356 L2.14564,14.89356 C1.79604,14.89356 1.51124,14.61756 1.51124,14.27756 L1.51124,12.66916 C1.51124,12.25396 1.17324,11.91596 0.75804,11.91596 C0.34244,11.91596 0.00484,12.25396 0.00484,12.66916 L0.00484,14.27756 C0.00484,15.44796 0.96524,16.39996 2.14564,16.39996 L8.33164,16.39996 C9.50204,16.39996 10.45404,15.44796 10.45404,14.27756 L10.45404,2.35756 C10.45404,1.18716 9.50204,0.23516 8.33164,0.23516" id="Fill-1" fill="#5C5C5C" mask="url(#mask-2)"></path>
                    </g>
                    <path d="M2.58204,9.23556 L12.78444,9.23556 C13.19964,9.23556 13.53764,8.89756 13.53764,8.48236 C13.53764,8.06716 13.19964,7.72916 12.78444,7.72916 L2.41284,7.72916 L4.35724,5.48756 C4.48804,5.33556 4.55244,5.14196 4.53844,4.94156 C4.52404,4.74036 4.43284,4.55716 4.28084,4.42676 C4.12764,4.29436 3.93004,4.22996 3.73044,4.24556 C3.53044,4.26076 3.34924,4.35236 3.22044,4.50236 L0.26444,7.91036 C0.09644,8.05276 4e-05,8.26116 4e-05,8.48236 C4e-05,8.71156 0.10724,8.93196 0.28884,9.07556 L3.25724,12.04396 C3.39684,12.18396 3.59124,12.26396 3.79084,12.26396 C3.98764,12.26396 4.17564,12.18716 4.32404,12.04396 C4.61804,11.75036 4.61804,11.27196 4.32404,10.97756 L2.58204,9.23556 Z" id="Fill-4" fill="#5C5C5C"></path>
                </g>
            </g>
        </g>
    </g>
</svg>