<?xml version="1.0" encoding="UTF-8"?>
<svg width="13px" height="12px" viewBox="0 0 13 12" version="1.1" xmlns="http://www.w3.org/2000/svg" xmlns:xlink="http://www.w3.org/1999/xlink">
    <title>14A90456-06FB-415A-B2E6-E5F2E879F461</title>
    <defs>
        <polygon id="path-1" points="0 1.5e-05 12.91005 1.5e-05 12.91005 11.9783597 0 11.9783597"></polygon>
    </defs>
    <g id="Page-1" stroke="none" stroke-width="1" fill="none" fill-rule="evenodd">
        <g id="Desktop-HD" transform="translate(-1020.000000, -251.000000)">
            <g id="Group-3" transform="translate(1020.000000, 251.000000)">
                <mask id="mask-2" fill="white">
                    <use xlink:href="#path-1"></use>
                </mask>
                <g id="Clip-2"></g>
                <path d="M3.56952,1.45779 C4.08012,1.45779 4.58952,1.68339 5.00397,2.13279 L5.90862,3.11244 C6.18972,3.41664 6.66432,3.43524 6.96852,3.15414 C6.98292,3.14079 6.99687,3.12684 7.01007,3.11244 L7.91007,2.13744 C8.73897,1.23864 9.95007,1.23864 10.77897,2.13744 C11.60772,3.03624 11.60772,4.53399 10.77897,5.43279 C9.33762,6.99579 7.89837,8.55729 6.45702,10.12029 L2.13507,5.42814 C1.30647,4.52769 1.30632,3.03159 2.13507,2.13279 C2.54952,1.68339 3.05892,1.45779 3.56952,1.45779 Z M3.56952,-6e-05 C2.64357,-6e-05 1.71537,0.37134 1.02897,1.11564 C-0.34398,2.60424 -0.34203,4.95114 1.02897,6.44064 L5.90397,11.73744 C6.18507,12.04164 6.65967,12.06024 6.96387,11.77914 C6.97827,11.76579 6.99207,11.75184 7.00542,11.73744 C8.63127,9.97449 10.25472,8.21304 11.88042,6.44994 C13.25337,4.96134 13.25322,2.60904 11.88042,1.12029 C10.50762,-0.36846 8.17677,-0.36846 6.80382,1.12029 L6.45702,1.49529 L6.10542,1.11564 C5.41902,0.37134 4.49547,-6e-05 3.56952,-6e-05 L3.56952,-6e-05 Z" id="Fill-1" fill="#959595" mask="url(#mask-2)"></path>
            </g>
        </g>
    </g>
</svg>