<?xml version="1.0" encoding="UTF-8"?>
<svg width="19px" height="19px" viewBox="0 0 19 19" version="1.1" xmlns="http://www.w3.org/2000/svg" xmlns:xlink="http://www.w3.org/1999/xlink">
    <title>73036D92-1BBA-4420-AB2A-E8EA9342528E</title>
    <g id="Page-1" stroke="none" stroke-width="1" fill="none" fill-rule="evenodd">
        <g id="New-Cupping-Session" transform="translate(-376.000000, -802.000000)" fill="#5C5C5C">
            <path d="M385.5,819.416667 C389.872375,819.416667 393.416667,815.872375 393.416667,811.5 C393.416667,807.127625 389.872375,803.583333 385.5,803.583333 C381.127625,803.583333 377.583333,807.127625 377.583333,811.5 C377.583333,815.872375 381.127625,819.416667 385.5,819.416667 L385.5,819.416667 Z M385.5,821 C380.253229,821 376,816.746771 376,811.5 C376,806.253229 380.253229,802 385.5,802 C390.746771,802 395,806.253229 395,811.5 C395,816.746771 390.746771,821 385.5,821 L385.5,821 Z M386.291667,810.708333 L389.066062,810.708333 C389.501479,810.708333 389.854167,811.059833 389.854167,811.5 C389.854167,811.937396 389.501875,812.291667 389.066062,812.291667 L386.291667,812.291667 L386.291667,815.066063 C386.291667,815.501479 385.940167,815.854167 385.5,815.854167 C385.062604,815.854167 384.708333,815.501875 384.708333,815.066063 L384.708333,812.291667 L381.933938,812.291667 C381.498521,812.291667 381.145833,811.940167 381.145833,811.5 C381.145833,811.062604 381.498125,810.708333 381.933938,810.708333 L384.708333,810.708333 L384.708333,807.933937 C384.708333,807.498521 385.059833,807.145833 385.5,807.145833 C385.937396,807.145833 386.291667,807.498125 386.291667,807.933937 L386.291667,810.708333 Z" id="Fill-1"></path>
        </g>
    </g>
</svg>