<svg data-v-0dd9719b="" version="1.0" xmlns="http://www.w3.org/2000/svg" xmlns:xlink="http://www.w3.org/1999/xlink" width="100%" height="100%" viewBox="0 0 238.61000061035156 63.000" preserveAspectRatio="xMidYMid meet" color-interpolation-filters="sRGB" style="margin: auto;">
    <rect data-v-0dd9719b="" x="0" y="0" width="100%" height="100%" fill="transparent" fill-opacity="1" class="background"></rect>
    <g data-v-0dd9719b="" fill="#333333" class="linesvg" transform="translate(0,0)">
        <g fill="#333333" transform="translate(0,10)">
            <g data-gra="path-name" fill-rule="" class="tp-name" transform="translate(7.0449981689453125,0)">
                <g transform="scale(1)">
                    <g>
                        <path d="M7.91 0L7.91-33.56 4.11-33.56 4.11 0ZM26.77-22.31C31.12-22.31 33.86-19.11 33.86-14.65L33.86 0 37.67 0 37.67-14.75C37.67-18.13 36.62-20.85 34.52-22.91 32.76-24.74 30.48-25.75 26.97-25.75 23.33-25.75 20.75-23.57 19.11-21.39L19.11-25.35 15.31-25.35 15.31 0 19.11 0 19.11-14.6C19.11-19 22.41-22.31 26.77-22.31ZM42.89-18.5C42.89-16.95 43.3-15.73 44.13-14.85 46.64-12.19 51.36-11.77 55.41-10.62 57.44-10.04 59.77-9.22 59.77-6.84 59.77-3.69 56.2-2.84 52.75-2.84 49-2.84 46.49-4.93 46.18-7.96L42.23-7.96C42.36-5.56 43.34-3.62 45.17-2.13 47.16-0.44 49.85 0.41 53.23 0.41 58.93 0.41 63.57-1.8 63.57-7.2 63.57-8.79 63.16-10.04 62.33-10.95 59.84-13.69 55.18-14.14 51.05-15.26 49.04-15.8 46.69-16.55 46.69-18.86 46.69-21.29 48.64-22.51 52.54-22.51 56.45-22.51 58.57-21.19 58.91-18.55L62.76-18.55C62.21-23.33 58.23-25.75 52.82-25.75 47.13-25.75 42.89-23.74 42.89-18.5ZM71.17 0L74.98 0 74.98-22 80.81-22 80.81-25.35 74.98-25.35 74.98-34.42 71.17-34.42 71.17-25.35 66-25.35 66-22 71.17-22ZM82.89-12.67C82.89-5.34 87.87 0.41 95.15 0.41 99.17 0.41 102.2-1.08 104.23-4.06L104.23 0 108.03 0 108.03-25.35 104.23-25.35 104.23-21.24C102.17-24.25 99.23-25.75 95.41-25.75 87.91-25.75 82.89-20.15 82.89-12.67ZM95.66-3.04C90.3-3.04 86.69-7.2 86.69-12.67 86.69-18.15 90.3-22.31 95.66-22.31 101.06-22.31 104.43-18.15 104.43-12.67 104.43-7.2 101.06-3.04 95.66-3.04ZM139.76-12.67C139.76-19.95 134.76-25.75 127.5-25.75 123.47-25.75 120.45-24.27 118.42-21.29L118.42-25.35 114.62-25.35 114.62 10.04 118.42 10.04 118.42-4.11C120.48-1.1 123.42 0.41 127.24 0.41 134.72 0.41 139.76-5.26 139.76-12.67ZM135.96-12.67C135.96-7.2 132.35-3.04 126.99-3.04 121.59-3.04 118.22-7.2 118.22-12.67 118.22-18.15 121.59-22.31 126.99-22.31 132.35-22.31 135.96-18.15 135.96-12.67ZM143.16-12.67C143.16-5.34 148.15 0.41 155.43 0.41 159.45 0.41 162.48-1.08 164.5-4.06L164.5 0 168.31 0 168.31-25.35 164.5-25.35 164.5-21.24C162.44-24.25 159.5-25.75 155.68-25.75 148.19-25.75 143.16-20.15 143.16-12.67ZM155.94-3.04C150.58-3.04 146.96-7.2 146.96-12.67 146.96-18.15 150.58-22.31 155.94-22.31 161.34-22.31 164.71-18.15 164.71-12.67 164.71-7.2 161.34-3.04 155.94-3.04ZM173.32-12.88C173.32-5.58 178.36 0 185.59 0 189.58 0 192.6-1.5 194.67-4.51L194.67-1.01C194.67 4.49 191.96 7 186.3 7 182.45 7 179.98 5.68 178.9 3.04L174.69 3.04C176.22 7.84 180.36 10.44 186.96 10.44 194.07 10.44 198.47 6.43 198.47-0.76L198.47-25.35 194.67-25.35 194.67-21.29C192.64-24.27 189.71-25.75 185.87-25.75 178.41-25.75 173.32-20.32 173.32-12.88ZM177.13-12.88C177.13-18.28 180.71-22.31 186.1-22.31 191.43-22.31 194.87-18.32 194.87-12.88 194.87-7.5 191.67-3.45 186.1-3.45 180.71-3.45 177.13-7.47 177.13-12.88ZM227.87-7.3L223.71-7.3C222.23-4.46 219.78-3.04 216.36-3.04 211.33-3.04 207.92-6.58 207.39-11.15L228.63-11.15 228.63-12.67C228.63-20.25 223.52-25.75 216.06-25.75 208.59-25.75 203.49-20.25 203.49-12.67 203.49-5.17 208.83 0.41 216.31 0.41 222.44 0.41 226.16-2.83 227.87-7.3ZM224.68-14.7L207.44-14.7C208.09-19.01 211.27-22.31 216.06-22.31 220.85-22.31 224.02-19.01 224.68-14.7Z" transform="translate(-4.110000133514404, 34.41999816894531)">
                        </path>
                    </g>
                </g>
            </g>
        </g>
    </g>
    <mask id="abcdefg-hijklmnop">
        <g transform="translate(5,2)" fill="black">
        <g transform="scale(1, 1)">
            <g transform="scale(1)">
                <path d="M0.62-3.89C0.62-3.26 0.70-2.69 0.87-2.19C1.04-1.69 1.28-1.26 1.58-0.92C1.89-0.58 2.25-0.31 2.66-0.13C3.08 0.05 3.53 0.14 4.02 0.14C4.52 0.14 4.96 0.04 5.35-0.15C5.74-0.35 6.09-0.63 6.39-0.98L5.84-1.59C5.58-1.31 5.32-1.10 5.04-0.95C4.76-0.80 4.43-0.72 4.05-0.72C3.67-0.72 3.34-0.80 3.04-0.95C2.75-1.10 2.50-1.31 2.29-1.59C2.08-1.87 1.92-2.20 1.81-2.59C1.69-2.98 1.64-3.42 1.64-3.92C1.64-4.40 1.70-4.83 1.82-5.22C1.93-5.61 2.10-5.94 2.31-6.21C2.53-6.48 2.78-6.69 3.08-6.84C3.39-6.99 3.72-7.06 4.09-7.06C4.43-7.06 4.72-6.99 4.97-6.86C5.21-6.73 5.44-6.56 5.65-6.34L6.20-6.96C5.98-7.22 5.68-7.44 5.33-7.63C4.97-7.83 4.56-7.93 4.08-7.93C3.58-7.93 3.12-7.83 2.70-7.65C2.28-7.46 1.91-7.19 1.60-6.85C1.29-6.50 1.05-6.07 0.88-5.58C0.70-5.08 0.62-4.52 0.62-3.89ZM8.83-4.09L8.83-6.99L10.13-6.99C10.74-6.99 11.21-6.89 11.53-6.68C11.86-6.47 12.02-6.11 12.02-5.60C12.02-5.09 11.86-4.72 11.53-4.47C11.21-4.22 10.74-4.09 10.13-4.09ZM12.11 0L13.23 0L11.26-3.39C11.79-3.53 12.21-3.78 12.53-4.14C12.85-4.50 13.00-4.99 13.00-5.60C13.00-6.00 12.94-6.34 12.80-6.62C12.67-6.90 12.48-7.12 12.24-7.30C12.00-7.47 11.71-7.60 11.37-7.67C11.04-7.75 10.67-7.78 10.27-7.78L7.84-7.78L7.84 0L8.83 0L8.83-3.29L10.24-3.29ZM14.74-7.78L14.74 0L19.34 0L19.34-0.84L15.72-0.84L15.72-3.67L18.67-3.67L18.67-4.51L15.72-4.51L15.72-6.95L19.22-6.95L19.22-7.78ZM24.30-3.17L21.96-3.17L22.33-4.35C22.47-4.79 22.61-5.22 22.73-5.65C22.86-6.08 22.98-6.53 23.10-6.98L23.15-6.98C23.27-6.53 23.40-6.08 23.53-5.65C23.65-5.22 23.79-4.79 23.93-4.35ZM24.55-2.37L25.28 0L26.34 0L23.70-7.78L22.59-7.78L19.96 0L20.96 0L21.71-2.37ZM28.58-6.95L28.58 0L29.58 0L29.58-6.95L31.93-6.95L31.93-7.78L26.23-7.78L26.23-6.95ZM33.33-7.78L33.33 0L37.93 0L37.93-0.84L34.31-0.84L34.31-3.67L37.27-3.67L37.27-4.51L34.31-4.51L34.31-6.95L37.81-6.95L37.81-7.78ZM45.29-3.17L42.95-3.17L43.32-4.35C43.46-4.79 43.59-5.22 43.72-5.65C43.85-6.08 43.97-6.53 44.09-6.98L44.13-6.98C44.26-6.53 44.39-6.08 44.51-5.65C44.64-5.22 44.78-4.79 44.92-4.35ZM45.53-2.37L46.27 0L47.33 0L44.69-7.78L43.58-7.78L40.94 0L41.95 0L42.70-2.37ZM50.85-1.70L50.26-1.01C50.60-0.65 51.00-0.37 51.47-0.17C51.93 0.04 52.44 0.14 52.99 0.14C53.40 0.14 53.76 0.09 54.09-0.03C54.41-0.14 54.69-0.30 54.92-0.50C55.15-0.71 55.32-0.94 55.45-1.21C55.57-1.48 55.63-1.77 55.63-2.08C55.63-2.36 55.59-2.61 55.51-2.83C55.42-3.05 55.31-3.24 55.17-3.40C55.03-3.56 54.86-3.70 54.66-3.83C54.46-3.95 54.25-4.06 54.03-4.15L52.93-4.63C52.77-4.69 52.61-4.76 52.46-4.83C52.31-4.91 52.17-5.00 52.05-5.10C51.92-5.19 51.82-5.31 51.75-5.44C51.67-5.57 51.63-5.73 51.63-5.92C51.63-6.28 51.77-6.55 52.03-6.76C52.30-6.96 52.65-7.06 53.08-7.06C53.44-7.06 53.77-6.99 54.06-6.86C54.35-6.73 54.61-6.55 54.85-6.32L55.38-6.96C55.11-7.25 54.77-7.48 54.37-7.66C53.98-7.84 53.55-7.93 53.08-7.93C52.72-7.93 52.40-7.87 52.10-7.77C51.81-7.67 51.55-7.52 51.33-7.34C51.11-7.15 50.94-6.93 50.82-6.68C50.70-6.43 50.64-6.15 50.64-5.86C50.64-5.58 50.68-5.33 50.78-5.11C50.87-4.89 51.00-4.70 51.15-4.54C51.30-4.39 51.47-4.25 51.66-4.14C51.85-4.03 52.03-3.93 52.21-3.86L53.33-3.37C53.51-3.28 53.68-3.20 53.84-3.12C54.00-3.04 54.13-2.95 54.25-2.85C54.36-2.75 54.45-2.64 54.52-2.50C54.59-2.36 54.62-2.19 54.62-1.99C54.62-1.61 54.48-1.31 54.20-1.07C53.91-0.84 53.51-0.72 53.00-0.72C52.59-0.72 52.20-0.81 51.83-0.99C51.45-1.17 51.13-1.40 50.85-1.70ZM57.16-7.78L57.16 0L58.15 0L58.15-7.78ZM60.28-7.78L60.28 0L61.22 0L61.22-4.07C61.22-4.48 61.21-4.89 61.18-5.30C61.15-5.70 61.12-6.11 61.09-6.50L61.14-6.50L61.98-4.90L64.80 0L65.82 0L65.82-7.78L64.89-7.78L64.89-3.76C64.89-3.35 64.90-2.93 64.93-2.51C64.95-2.09 64.98-1.68 65.00-1.28L64.96-1.28L64.11-2.89L61.30-7.78ZM67.51-3.89C67.51-3.26 67.59-2.69 67.77-2.19C67.94-1.69 68.18-1.26 68.49-0.92C68.80-0.58 69.17-0.31 69.60-0.13C70.02 0.05 70.49 0.14 71.01 0.14C71.53 0.14 72.00 0.06 72.41-0.11C72.83-0.28 73.16-0.50 73.42-0.76L73.42-4.03L70.87-4.03L70.87-3.22L72.51-3.22L72.51-1.19C72.36-1.04 72.15-0.93 71.90-0.85C71.65-0.77 71.39-0.72 71.11-0.72C70.70-0.72 70.33-0.80 70.00-0.95C69.68-1.10 69.42-1.31 69.20-1.59C68.98-1.87 68.81-2.20 68.70-2.59C68.59-2.98 68.53-3.42 68.53-3.92C68.53-4.40 68.59-4.83 68.71-5.22C68.83-5.61 69.01-5.94 69.23-6.21C69.45-6.48 69.72-6.69 70.03-6.84C70.35-6.99 70.71-7.06 71.10-7.06C71.50-7.06 71.82-6.99 72.08-6.85C72.34-6.71 72.57-6.54 72.76-6.34L73.32-6.96C73.09-7.20 72.80-7.42 72.44-7.62C72.08-7.82 71.63-7.93 71.09-7.93C70.57-7.93 70.09-7.83 69.65-7.65C69.22-7.46 68.84-7.19 68.52-6.85C68.20-6.50 67.95-6.07 67.77-5.58C67.60-5.08 67.51-4.52 67.51-3.89ZM75.28-7.78L75.28 0L79.67 0L79.67-0.84L76.26-0.84L76.26-7.78ZM81.04-7.78L81.04 0L85.65 0L85.65-0.84L82.03-0.84L82.03-3.67L84.98-3.67L84.98-4.51L82.03-4.51L82.03-6.95L85.53-6.95L85.53-7.78ZM86.72-3.35L86.72-2.60L89.44-2.60L89.44-3.35ZM90.99-7.78L90.99 0L91.97 0L91.97-3.08L93.37-3.08C93.80-3.08 94.19-3.13 94.54-3.23C94.89-3.33 95.19-3.48 95.45-3.68C95.70-3.88 95.90-4.12 96.04-4.43C96.17-4.73 96.24-5.08 96.24-5.49C96.24-5.92 96.17-6.28 96.04-6.57C95.90-6.87 95.70-7.10 95.45-7.28C95.20-7.46 94.90-7.59 94.55-7.66C94.19-7.74 93.80-7.78 93.37-7.78ZM93.25-3.89L91.97-3.89L91.97-6.99L93.25-6.99C93.93-6.99 94.43-6.88 94.76-6.66C95.09-6.44 95.26-6.05 95.26-5.49C95.26-4.94 95.09-4.53 94.77-4.28C94.44-4.02 93.93-3.89 93.25-3.89ZM100.54-3.17L98.20-3.17L98.57-4.35C98.71-4.79 98.84-5.22 98.97-5.65C99.10-6.08 99.22-6.53 99.34-6.98L99.39-6.98C99.51-6.53 99.64-6.08 99.77-5.65C99.89-5.22 100.03-4.79 100.17-4.35ZM100.79-2.37L101.52 0L102.58 0L99.94-7.78L98.83-7.78L96.20 0L97.20 0L97.95-2.37ZM103.11-3.89C103.11-3.26 103.20-2.69 103.37-2.19C103.55-1.69 103.79-1.26 104.10-0.92C104.41-0.58 104.77-0.31 105.20-0.13C105.63 0.05 106.10 0.14 106.61 0.14C107.13 0.14 107.60 0.06 108.02-0.11C108.43-0.28 108.77-0.50 109.02-0.76L109.02-4.03L106.47-4.03L106.47-3.22L108.12-3.22L108.12-1.19C107.96-1.04 107.76-0.93 107.51-0.85C107.26-0.77 107.00-0.72 106.72-0.72C106.30-0.72 105.93-0.80 105.61-0.95C105.29-1.10 105.02-1.31 104.80-1.59C104.59-1.87 104.42-2.20 104.30-2.59C104.19-2.98 104.13-3.42 104.13-3.92C104.13-4.40 104.19-4.83 104.32-5.22C104.44-5.61 104.61-5.94 104.83-6.21C105.05-6.48 105.32-6.69 105.64-6.84C105.96-6.99 106.31-7.06 106.71-7.06C107.10-7.06 107.43-6.99 107.69-6.85C107.94-6.71 108.17-6.54 108.37-6.34L108.93-6.96C108.70-7.20 108.40-7.42 108.04-7.62C107.68-7.82 107.23-7.93 106.70-7.93C106.17-7.93 105.69-7.83 105.26-7.65C104.82-7.46 104.45-7.19 104.13-6.85C103.81-6.50 103.56-6.07 103.38-5.58C103.20-5.08 103.11-4.52 103.11-3.89ZM110.88-7.78L110.88 0L115.49 0L115.49-0.84L111.87-0.84L111.87-3.67L114.82-3.67L114.82-4.51L111.87-4.51L111.87-6.95L115.37-6.95L115.37-7.78ZM118.74-7.78L120.39 0L121.56 0L122.71-4.69C122.78-4.99 122.84-5.28 122.91-5.57C122.97-5.86 123.04-6.15 123.10-6.45L123.15-6.45C123.21-6.15 123.28-5.86 123.33-5.57C123.39-5.28 123.46-4.99 123.53-4.69L124.70 0L125.89 0L127.50-7.78L126.56-7.78L125.74-3.55C125.66-3.13 125.58-2.71 125.51-2.30C125.44-1.88 125.37-1.46 125.30-1.03L125.25-1.03C125.16-1.46 125.06-1.88 124.97-2.30C124.87-2.72 124.78-3.14 124.68-3.55L123.60-7.78L122.70-7.78L121.62-3.55C121.53-3.13 121.44-2.71 121.35-2.30C121.25-1.88 121.16-1.46 121.07-1.03L121.03-1.03C120.96-1.46 120.88-1.88 120.80-2.29C120.72-2.70 120.65-3.12 120.58-3.55L119.76-7.78ZM128.86-7.78L128.86 0L133.46 0L133.46-0.84L129.84-0.84L129.84-3.67L132.80-3.67L132.80-4.51L129.84-4.51L129.84-6.95L133.34-6.95L133.34-7.78ZM135.11-7.78L135.11 0L137.59 0C138.02 0 138.42-0.05 138.79-0.14C139.15-0.24 139.46-0.38 139.73-0.57C139.99-0.76 140.19-1.00 140.33-1.28C140.47-1.57 140.54-1.90 140.54-2.28C140.54-2.82 140.39-3.24 140.07-3.55C139.75-3.86 139.31-4.05 138.74-4.14L138.74-4.19C139.20-4.31 139.54-4.52 139.76-4.83C139.98-5.15 140.09-5.50 140.09-5.88C140.09-6.22 140.03-6.52 139.90-6.76C139.77-7.00 139.58-7.19 139.35-7.34C139.12-7.49 138.84-7.60 138.51-7.68C138.18-7.75 137.82-7.78 137.42-7.78ZM137.25-4.46L136.09-4.46L136.09-7.00L137.29-7.00C137.90-7.00 138.36-6.91 138.66-6.72C138.97-6.54 139.12-6.23 139.12-5.80C139.12-5.37 138.98-5.03 138.69-4.81C138.40-4.58 137.92-4.46 137.25-4.46ZM137.45-0.78L136.09-0.78L136.09-3.73L137.45-3.73C138.14-3.73 138.66-3.61 139.03-3.39C139.39-3.16 139.57-2.81 139.57-2.33C139.57-1.80 139.38-1.41 139.01-1.16C138.64-0.91 138.12-0.78 137.45-0.78ZM141.94-1.70L141.35-1.01C141.69-0.65 142.09-0.37 142.56-0.17C143.03 0.04 143.53 0.14 144.08 0.14C144.49 0.14 144.86 0.09 145.18-0.03C145.51-0.14 145.78-0.30 146.01-0.50C146.24-0.71 146.42-0.94 146.54-1.21C146.66-1.48 146.72-1.77 146.72-2.08C146.72-2.36 146.68-2.61 146.60-2.83C146.52-3.05 146.40-3.24 146.26-3.40C146.12-3.56 145.95-3.70 145.75-3.83C145.55-3.95 145.34-4.06 145.12-4.15L144.02-4.63C143.86-4.69 143.71-4.76 143.56-4.83C143.41-4.91 143.27-5.00 143.14-5.10C143.02-5.19 142.91-5.31 142.84-5.44C142.76-5.57 142.73-5.73 142.73-5.92C142.73-6.28 142.86-6.55 143.12-6.76C143.39-6.96 143.74-7.06 144.17-7.06C144.54-7.06 144.86-6.99 145.15-6.86C145.44-6.73 145.70-6.55 145.94-6.32L146.48-6.96C146.20-7.25 145.86-7.48 145.47-7.66C145.07-7.84 144.64-7.93 144.17-7.93C143.82-7.93 143.49-7.87 143.20-7.77C142.90-7.67 142.64-7.52 142.42-7.34C142.21-7.15 142.04-6.93 141.91-6.68C141.79-6.43 141.73-6.15 141.73-5.86C141.73-5.58 141.78-5.33 141.87-5.11C141.97-4.89 142.09-4.70 142.24-4.54C142.39-4.39 142.56-4.25 142.75-4.14C142.94-4.03 143.13-3.93 143.31-3.86L144.42-3.37C144.61-3.28 144.78-3.20 144.93-3.12C145.09-3.04 145.23-2.95 145.34-2.85C145.46-2.75 145.55-2.64 145.62-2.50C145.68-2.36 145.72-2.19 145.72-1.99C145.72-1.61 145.57-1.31 145.29-1.07C145.00-0.84 144.61-0.72 144.09-0.72C143.69-0.72 143.30-0.81 142.92-0.99C142.55-1.17 142.22-1.40 141.94-1.70ZM148.26-7.78L148.26 0L149.24 0L149.24-7.78ZM152.99-6.95L152.99 0L153.99 0L153.99-6.95L156.33-6.95L156.33-7.78L150.64-7.78L150.64-6.95ZM157.73-7.78L157.73 0L162.34 0L162.34-0.84L158.72-0.84L158.72-3.67L161.67-3.67L161.67-4.51L158.72-4.51L158.72-6.95L162.22-6.95L162.22-7.78ZM166.38-7.78L166.38 0L167.37 0L167.37-7.78ZM169.50-7.78L169.50 0L170.44 0L170.44-4.07C170.44-4.48 170.43-4.89 170.40-5.30C170.37-5.70 170.34-6.11 170.31-6.50L170.36-6.50L171.20-4.90L174.02 0L175.04 0L175.04-7.78L174.11-7.78L174.11-3.76C174.11-3.35 174.12-2.93 174.15-2.51C174.18-2.09 174.20-1.68 174.23-1.28L174.18-1.28L173.34-2.89L170.52-7.78ZM182.89-3.17L180.55-3.17L180.92-4.35C181.06-4.79 181.19-5.22 181.32-5.65C181.45-6.08 181.57-6.53 181.69-6.98L181.74-6.98C181.86-6.53 181.99-6.08 182.12-5.65C182.24-5.22 182.38-4.79 182.52-4.35ZM183.14-2.37L183.87 0L184.93 0L182.29-7.78L181.18-7.78L178.54 0L179.55 0L180.30-2.37ZM188.43-7.78L188.43 0L189.34 0L189.34-4.28C189.34-4.63 189.33-5.01 189.29-5.43C189.26-5.85 189.23-6.24 189.21-6.58L189.26-6.58L189.88-4.85L191.38-0.78L191.94-0.78L193.43-4.85L194.06-6.58L194.11-6.58C194.08-6.24 194.05-5.85 194.02-5.43C193.99-5.01 193.98-4.63 193.98-4.28L193.98 0L194.92 0L194.92-7.78L193.75-7.78L192.26-3.61L191.71-2.02L191.67-2.02L191.10-3.61L189.59-7.78ZM197.05-7.78L197.05 0L198.04 0L198.04-7.78ZM200.17-7.78L200.17 0L201.11 0L201.11-4.07C201.11-4.48 201.10-4.89 201.07-5.30C201.04-5.70 201.01-6.11 200.98-6.50L201.03-6.50L201.87-4.90L204.69 0L205.71 0L205.71-7.78L204.78-7.78L204.78-3.76C204.78-3.35 204.79-2.93 204.82-2.51C204.85-2.09 204.87-1.68 204.90-1.28L204.85-1.28L204.01-2.89L201.19-7.78ZM207.81-7.78L207.81-3.22C207.81-2.59 207.89-2.06 208.03-1.64C208.17-1.21 208.37-0.86 208.61-0.60C208.86-0.33 209.16-0.14 209.50-0.03C209.85 0.09 210.22 0.14 210.61 0.14C211.01 0.14 211.38 0.09 211.72-0.03C212.06-0.14 212.35-0.33 212.60-0.60C212.85-0.86 213.05-1.21 213.19-1.64C213.33-2.06 213.40-2.59 213.40-3.22L213.40-7.78L212.45-7.78L212.45-3.19C212.45-2.72 212.41-2.33 212.31-2.02C212.22-1.70 212.09-1.45 211.92-1.26C211.75-1.07 211.56-0.93 211.34-0.85C211.12-0.77 210.87-0.72 210.61-0.72C210.36-0.72 210.12-0.77 209.90-0.85C209.68-0.93 209.49-1.07 209.33-1.26C209.16-1.45 209.04-1.70 208.94-2.02C208.85-2.33 208.80-2.72 208.80-3.19L208.80-7.78ZM217.12-6.95L217.12 0L218.11 0L218.11-6.95L220.46-6.95L220.46-7.78L214.77-7.78L214.77-6.95ZM221.86-7.78L221.86 0L226.46 0L226.46-0.84L222.85-0.84L222.85-3.67L225.80-3.67L225.80-4.51L222.85-4.51L222.85-6.95L226.35-6.95L226.35-7.78ZM227.82-0.59C227.82-0.38 227.89-0.20 228.02-0.07C228.16 0.07 228.33 0.14 228.53 0.14C228.72 0.14 228.88 0.07 229.02-0.07C229.16-0.20 229.23-0.38 229.23-0.59C229.23-0.82 229.16-1.01 229.02-1.14C228.88-1.28 228.72-1.35 228.53-1.35C228.33-1.35 228.16-1.28 228.02-1.14C227.89-1.01 227.82-0.82 227.82-0.59Z" transform="translate(-0.6169400598369956, 7.925306922521406)">
                </path>
                </g>
            </g>
        </g>
    </mask>
    <defs v-gra="od">
    </defs>
</svg>