<?xml version="1.0" encoding="UTF-8"?>
<svg width="15px" height="11px" viewBox="0 0 15 11" version="1.1" xmlns="http://www.w3.org/2000/svg" xmlns:xlink="http://www.w3.org/1999/xlink">
    <title>B057F620-815E-44A9-B6B9-EEDD6AA3E8BF</title>
    <defs>
        <polygon id="path-1" points="0 4.5e-05 14.970715 4.5e-05 14.970715 10.5711316 0 10.5711316"></polygon>
    </defs>
    <g id="Page-1" stroke="none" stroke-width="1" fill="none" fill-rule="evenodd">
        <g id="New-Cupping-Session" transform="translate(-345.000000, -145.000000)">
            <g id="Group-3-Copy-26" transform="translate(345.000000, 145.000000)">
                <mask id="mask-2" fill="white">
                    <use xlink:href="#path-1"></use>
                </mask>
                <g id="Clip-2"></g>
                <path d="M4.89354,10.37967 C5.08194,10.60557 5.41764,10.63587 5.64354,10.44762 C5.86944,10.25922 5.89974,9.92352 5.71149,9.69762 C5.69094,9.67302 5.66814,9.65022 5.64354,9.62967 L1.81704,5.79867 L14.46504,5.79867 C14.75949,5.78307 14.98569,5.53167 14.96994,5.23707 C14.95554,4.96452 14.73774,4.74657 14.46504,4.73217 L1.81704,4.73217 L5.64954,0.90567 C5.84994,0.69582 5.84994,0.36552 5.64954,0.15567 C5.44314,-0.05148 5.10789,-0.05193 4.90074,0.15447 C4.90029,0.15492 4.89999,0.15522 4.89954,0.15567 L0.15954,4.89567 C-0.04761,5.09502 -0.05391,5.42457 0.14544,5.63157 C0.15009,5.63637 0.15474,5.64102 0.15954,5.64567 L4.89354,10.37967 Z" id="Fill-1" fill="#27C8B3" mask="url(#mask-2)"></path>
            </g>
        </g>
    </g>
</svg>