<?xml version="1.0" encoding="UTF-8"?>
<svg width="8px" height="8px" viewBox="0 0 8 8" version="1.1" xmlns="http://www.w3.org/2000/svg" xmlns:xlink="http://www.w3.org/1999/xlink">
    <title>54A76CD5-C9B2-4526-ADA3-3B68102A7112</title>
    <defs>
        <polygon id="path-1" points="0 0 8 0 8 8 0 8"></polygon>
    </defs>
    <g id="Page-1" stroke="none" stroke-width="1" fill="none" fill-rule="evenodd">
        <g id="New-Cupping-Session" transform="translate(-528.000000, -760.000000)">
            <g id="Group-3" transform="translate(528.000000, 760.000000)">
                <mask id="mask-2" fill="white">
                    <use xlink:href="#path-1"></use>
                </mask>
                <g id="Clip-2"></g>
                <path d="M5.35199589,4 L7.72107362,6.36906009 C8.09297485,6.74095855 8.09393089,7.34230593 7.71820549,7.71802853 C7.3448702,8.09136104 6.74112823,8.09327312 6.36922701,7.72089664 L4.00014928,5.35183655 L1.63107155,7.72089664 C1.25917033,8.0927951 0.657818476,8.09422916 0.281615052,7.71802853 C-0.0917202401,7.34469602 -0.0936323287,6.74143657 0.278746919,6.36906009 L2.64782465,4 L0.278746919,1.63093991 C-0.0926762844,1.25904145 -0.0941103508,0.657694074 0.281615052,0.281971469 C0.654950343,-0.0913610438 1.25869231,-0.0932731181 1.63107155,0.279103357 L4.00014928,2.64816345 L6.36922701,0.279103357 C6.74065021,-0.0927950995 7.34200207,-0.0942291553 7.71820549,0.281971469 C8.09154078,0.655303981 8.09345287,1.25856343 7.72107362,1.63093991 L5.35199589,4 Z" id="Fill-1" fill="#5C5C5C" mask="url(#mask-2)"></path>
            </g>
        </g>
    </g>
</svg>