<?xml version="1.0" encoding="UTF-8"?>
<svg width="15px" height="13px" viewBox="0 0 15 13" version="1.1" xmlns="http://www.w3.org/2000/svg" xmlns:xlink="http://www.w3.org/1999/xlink">
    <title>475D75E5-6D9D-4B0B-8204-8DE73576A982</title>
    <defs>
        <polygon id="path-1" points="0 3e-05 14.55465 3e-05 14.55465 12.428415 0 12.428415"></polygon>
    </defs>
    <g id="Page-1" stroke="none" stroke-width="1" fill="none" fill-rule="evenodd">
        <g id="Desktop-HD" transform="translate(-1091.000000, -251.000000)">
            <g id="Group-3" transform="translate(1091.000000, 251.000000)">
                <mask id="mask-2" fill="white">
                    <use xlink:href="#path-1"></use>
                </mask>
                <g id="Clip-2"></g>
                <path d="M10.35516,10.54683 C10.34826,10.66368 10.32576,10.78053 10.28796,10.89303 C10.27956,10.91808 10.27071,10.93683 10.26336,10.95003 C10.25556,10.94793 10.24641,10.94493 10.23591,10.94088 C10.08006,10.87983 9.90621,10.77558 9.72006,10.63158 C9.40911,10.38948 9.10086,10.14063 8.80296,9.90018 C8.51496,9.66768 8.18856,9.40413 7.86546,9.15258 L7.84971,9.14073 C7.61361,8.96793 7.33611,8.87208 7.04556,8.86248 L7.04181,8.86233 L7.03266,8.86233 C6.72906,8.85453 6.42216,8.85348 6.18936,8.85348 L5.80701,8.85348 L5.20611,8.85348 C3.32406,8.84388 1.84581,7.58883 1.52886,5.73033 C1.19241,3.78378 2.52441,1.85553 4.44006,1.50903 L4.44036,1.50903 L4.46571,1.50543 C4.48971,1.50138 4.63701,1.48608 4.98186,1.46913 C6.05061,1.47153 7.00686,1.47153 7.48356,1.47153 C8.24136,1.47153 9.02466,1.47153 9.79611,1.46913 C9.82731,1.47093 9.85926,1.47393 9.89286,1.47708 L9.90801,1.47858 C11.54976,1.63173 12.93876,3.07788 13.07031,4.77063 C13.19511,6.39933 12.43656,7.75698 10.98921,8.49543 C10.55991,8.71203 10.34286,9.07998 10.36221,9.55893 C10.37421,9.89178 10.37181,10.22448 10.35516,10.54683 M14.53716,4.66008 C14.44746,3.50043 13.94511,2.38878 13.12236,1.52973 C12.29001,0.66078 11.19696,0.12303 10.04421,0.01563 C9.98556,0.00978 9.92001,0.00378 9.84621,0.00033 L9.84081,3e-05 L9.83541,3e-05 L9.82311,3e-05 L9.81066,3e-05 C9.03411,0.00243 8.24511,0.00243 7.48191,0.00243 C7.00236,0.00243 6.03831,0.00228 4.96416,3e-05 L4.95096,3e-05 L4.93836,3e-05 L4.93326,3e-05 L4.92816,0.00018 C4.56741,0.01653 4.32186,0.03618 4.19841,0.05868 C2.87226,0.29163 1.70991,1.04268 0.92706,2.17323 C0.14766,3.29658 -0.15504,4.64943 0.07506,5.98248 C0.29121,7.23888 0.89691,8.32008 1.82676,9.10908 C2.75691,9.89823 3.92316,10.31928 5.19936,10.32633 L5.80941,10.32633 C5.93391,10.32603 6.05901,10.32573 6.18486,10.32573 C6.40521,10.32573 6.69456,10.32663 6.98556,10.33368 C7.26111,10.54803 7.53921,10.77258 7.80816,10.98978 L7.87806,11.04618 L7.96626,11.11713 C8.24346,11.34018 8.53011,11.57088 8.81781,11.79498 C9.11661,12.02613 9.41421,12.20043 9.70281,12.31353 C9.88986,12.38778 10.08786,12.42663 10.29021,12.42843 L10.29126,12.42843 L10.29786,12.42843 C10.50006,12.42843 10.70406,12.38328 10.88736,12.29808 C11.25486,12.12603 11.53716,11.79438 11.68281,11.36388 C11.76276,11.12553 11.81046,10.87788 11.82471,10.62738 C11.84016,10.32588 11.84496,10.01868 11.83866,9.71148 C12.72891,9.21798 13.44246,8.52048 13.90776,7.68738 C14.40336,6.79938 14.62101,5.75268 14.53716,4.66008" id="Fill-1" fill="#959595" mask="url(#mask-2)"></path>
            </g>
        </g>
    </g>
</svg>