<?xml version="1.0" encoding="UTF-8"?>
<svg width="34" height="29px" viewBox="0 0 34 29" version="1.1" xmlns="http://www.w3.org/2000/svg" xmlns:xlink="http://www.w3.org/1999/xlink">
    <title>07182B8A-F417-45C6-859C-14BA3739530D</title>
    <defs>
        <polygon id="path-1" points="0.00738432 0.0033024 27.6136819 0.0033024 27.6136819 27.6095981 0.00738432 27.6095981"></polygon>
        <polygon id="path-3" points="0 0.0033024 33.6498547 0.0033024 33.6498547 24.1337856 0 24.1337856"></polygon>
    </defs>
    <g id="Page-1" stroke="none" stroke-width="1" fill="none" fill-rule="evenodd">
        <g id="Desktop-HD" transform="translate(-38.000000, -25.000000)">
            <g id="Group-5" transform="translate(38.000000, 25.000000)">
                <g id="Group-7">
                    <g id="Group-3" transform="translate(3.014400, 0.015936)">
                        <mask id="mask-2" fill="white">
                            <use xlink:href="#path-1"></use>
                        </mask>
                        <g id="Clip-2"></g>
                        <path d="M27.6136819,13.8064493 C27.6136819,21.4297133 21.4337971,27.6095981 13.8105331,27.6095981 C6.18726912,27.6095981 0.00738432,21.4297133 0.00738432,13.8064493 C0.00738432,6.18318528 6.18726912,0.00330048 13.8105331,0.00330048 C21.4337971,0.00330048 27.6136819,6.18318528 27.6136819,13.8064493" id="Fill-1" fill="#B6FAF1" mask="url(#mask-2)"></path>
                    </g>
                    <g id="Group-6" transform="translate(0.000000, 0.015936)">
                        <mask id="mask-4" fill="white">
                            <use xlink:href="#path-3"></use>
                        </mask>
                        <g id="Clip-5"></g>
                        <path d="M21.3320179,5.2702272 L21.3320179,2.1936768 C21.3320179,1.9373568 21.5409907,1.728288 21.7972915,1.728288 L22.0169971,1.728288 C22.2730483,1.728288 22.4822707,1.9373568 22.4822707,2.1936768 L22.4822707,5.2702272 C22.4822707,5.526528 22.2730483,5.7355968 22.0169971,5.7355968 L21.7972915,5.7355968 C21.5409907,5.7355968 21.3320179,5.526528 21.3320179,5.2702272 L21.3320179,5.2702272 Z M22.5810739,20.449728 C22.1199859,21.447456 21.4070323,22.3050624 20.5237555,22.9409664 C19.4806771,23.6915712 18.2028595,24.1337856 16.8250099,24.1337856 C15.4471603,24.1337856 14.1694387,23.6915712 13.1263603,22.9409664 C12.2430643,22.3050624 11.5301107,21.447456 11.0687731,20.449728 C10.9917235,20.2826112 10.9892851,20.109024 11.0623219,19.94016 C11.1354355,19.7710272 11.2631347,19.6536 11.4377971,19.5951744 L11.4590131,19.5879936 C11.7626803,19.4864832 12.0902707,19.6278336 12.2244595,19.9183104 C12.5932147,20.7154752 13.1632435,21.4011648 13.8690163,21.9090624 C14.6985907,22.5060864 15.7193971,22.8579648 16.8250099,22.8579648 C17.9307379,22.8579648 18.9514483,22.5060864 19.7810035,21.9090624 C20.4867763,21.4011648 21.0569203,20.7154752 21.4255603,19.9183104 C21.5598259,19.6278336 21.8877043,19.4864832 22.1910067,19.5879936 L22.2123379,19.5951744 C22.3868851,19.6536 22.5146995,19.7710272 22.5877171,19.94016 C22.6605811,20.109024 22.6583155,20.2826112 22.5810739,20.449728 L22.5810739,20.449728 Z M12.3178483,5.2702272 L12.3178483,2.1936768 C12.3178483,1.9373568 12.1088755,1.728288 11.8527283,1.728288 L11.6331379,1.728288 C11.3767987,1.728288 11.1678259,1.9373568 11.1678259,2.1936768 L11.1678259,5.2702272 C11.1678259,5.526528 11.3767987,5.7355968 11.6331379,5.7355968 L11.8527283,5.7355968 C12.1088755,5.7355968 12.3178483,5.526528 12.3178483,5.2702272 L12.3178483,5.2702272 Z M3.18951552,7.8558144 L3.18951552,10.33536 C3.18951552,10.4807232 3.19477632,10.624608 3.20516352,10.767264 L2.60614272,10.767264 C2.20618752,10.767264 1.84242432,10.6032768 1.57815552,10.339104 C1.31415552,10.075104 1.15028352,9.7113408 1.15028352,9.3114048 C1.15028352,8.9117376 1.31415552,8.5479744 1.57815552,8.2837056 C1.84242432,8.0197056 2.20618752,7.8558144 2.60614272,7.8558144 L3.18951552,7.8558144 Z M3.40495872,11.9172672 C3.68310912,12.9154368 4.21696512,13.8099264 4.93087872,14.52384 C6.00538752,15.598368 7.48799232,16.2654336 9.11943552,16.2654336 C10.7505139,16.2654336 12.2331187,15.598368 13.3078963,14.52384 C14.3823475,13.4493888 15.0492595,11.9668032 15.0492595,10.33536 L15.0492595,10.15584 L18.6008755,10.15584 L18.6008755,10.33536 C18.6008755,11.9668032 19.2676915,13.4493888 20.3422003,14.52384 C21.4166707,15.598368 22.8995059,16.2654336 24.5306995,16.2654336 C26.1618739,16.2654336 27.6447091,15.598368 28.7191795,14.52384 C29.4330739,13.8099264 29.9670259,12.9154368 30.2450995,11.9172672 L31.0439923,11.9172672 C31.7614003,11.9172672 32.4129139,11.624256 32.8849267,11.1523584 C33.3568435,10.6803456 33.6498547,10.028544 33.6498547,9.3114048 C33.6498547,8.5942656 33.3568435,7.9427328 32.8849267,7.47072 C32.4129139,6.9987264 31.7614003,6.7055424 31.0439923,6.7055424 L30.4605043,6.7055424 L29.8855027,6.7055424 L19.1758771,6.7055424 L18.6008755,6.7055424 L18.6008755,7.280544 L18.6008755,9.0058176 L15.0492595,9.0058176 L15.0492595,7.280544 L15.0492595,6.7055424 L14.4742579,6.7055424 L3.76451712,6.7055424 L3.18951552,6.7055424 L2.60614272,6.7055424 C1.88873472,6.7055424 1.23720192,6.9987264 0.76520832,7.47072 C0.29317632,7.9427328 -7.68e-06,8.5942656 -7.68e-06,9.3114048 C-7.68e-06,10.028544 0.29317632,10.6803456 0.76520832,11.1523584 C1.23720192,11.624256 1.88873472,11.9172672 2.60614272,11.9172672 L3.40495872,11.9172672 Z M4.33951872,10.33536 L4.33951872,7.8558144 L13.8992563,7.8558144 L13.8992563,10.33536 C13.8992563,11.6493312 13.3613683,12.8441664 12.4946611,13.7108544 L12.4931827,13.7123328 C12.2021875,14.0040384 11.8733683,14.2581696 11.5150003,14.4668736 C10.8094963,14.8786752 9.99057792,15.1151616 9.11943552,15.1151616 C8.24817792,15.1151616 7.42927872,14.8786752 6.72373632,14.4668736 C6.36548352,14.2581696 6.03658752,14.0040384 5.74540032,13.7123328 L5.74392192,13.7108544 C4.87740672,12.8441664 4.33951872,11.6493312 4.33951872,10.33536 L4.33951872,10.33536 Z M7.07091072,5.2702272 L7.07091072,2.1936768 C7.07091072,1.9373568 6.86195712,1.728288 6.60563712,1.728288 L6.38600832,1.728288 C6.12997632,1.728288 5.92073472,1.9373568 5.92073472,2.1936768 L5.92073472,5.2702272 C5.92073472,5.526528 6.12997632,5.7355968 6.38600832,5.7355968 L6.60563712,5.7355968 C6.86195712,5.7355968 7.07091072,5.526528 7.07091072,5.2702272 L7.07091072,5.2702272 Z M9.69443712,5.2702272 L9.69443712,0.468576 C9.69443712,0.2123328 9.48536832,0.0033024 9.22904832,0.0033024 L9.00941952,0.0033024 C8.75338752,0.0033024 8.54441472,0.2123328 8.54441472,0.468576 L8.54441472,5.2702272 C8.54441472,5.526528 8.75338752,5.7355968 9.00941952,5.7355968 L9.22904832,5.7355968 C9.48536832,5.7355968 9.69443712,5.526528 9.69443712,5.2702272 L9.69443712,5.2702272 Z M30.4605043,7.8558144 L30.4605043,10.33536 C30.4605043,10.4807232 30.4550899,10.624608 30.4449715,10.767264 L31.0439923,10.767264 C31.4439283,10.767264 31.8076915,10.6032768 32.0718835,10.339104 C32.3358643,10.075104 32.4998515,9.7113408 32.4998515,9.3114048 C32.4998515,8.9117376 32.3358643,8.5479744 32.0718835,8.2837056 C31.8076915,8.0197056 31.4439283,7.8558144 31.0439923,7.8558144 L30.4605043,7.8558144 Z M29.3105011,10.33536 L29.3105011,7.8558144 L19.7508787,7.8558144 L19.7508787,10.33536 C19.7508787,11.6493312 20.2887475,12.8441664 21.1554547,13.7108544 L21.1566835,13.7123328 C21.4478515,14.0040384 21.7767667,14.2581696 22.1350963,14.4668736 C22.8406387,14.8786752 23.6595379,15.1151616 24.5306995,15.1151616 C25.4018419,15.1151616 26.2207795,14.8786752 26.9262835,14.4668736 C27.2846131,14.2581696 27.6132787,14.0040384 27.9047155,13.7123328 L27.9059251,13.7108544 C28.7726323,12.8441664 29.3105011,11.6493312 29.3105011,10.33536 L29.3105011,10.33536 Z M26.5791091,5.2702272 L26.5791091,2.1936768 C26.5791091,1.9373568 26.7881587,1.728288 27.0443827,1.728288 L27.2640883,1.728288 C27.5201587,1.728288 27.7291123,1.9373568 27.7291123,2.1936768 L27.7291123,5.2702272 C27.7291123,5.526528 27.5201587,5.7355968 27.2640883,5.7355968 L27.0443827,5.7355968 C26.7881587,5.7355968 26.5791091,5.526528 26.5791091,5.2702272 L26.5791091,5.2702272 Z M23.9556979,5.2702272 L23.9556979,0.468576 C23.9556979,0.2123328 24.1646515,0.0033024 24.4209715,0.0033024 L24.6404083,0.0033024 C24.8967283,0.0033024 25.1056819,0.2123328 25.1056819,0.468576 L25.1056819,5.2702272 C25.1056819,5.526528 24.8967283,5.7355968 24.6404083,5.7355968 L24.4209715,5.7355968 C24.1646515,5.7355968 23.9556979,5.526528 23.9556979,5.2702272 L23.9556979,5.2702272 Z" id="Fill-4" fill="#1A1A1A" mask="url(#mask-4)"></path>
                    </g>
                </g>
            </g>
        </g>
    </g>
</svg>