<?xml version="1.0" encoding="UTF-8"?>
<svg width="135px" height="52px" viewBox="0 0 135 52" version="1.1" xmlns="http://www.w3.org/2000/svg" xmlns:xlink="http://www.w3.org/1999/xlink">
    <title>B93E15CD-32D6-4341-9B06-5C910F1D1A43</title>
    <g id="Page-1" stroke="none" stroke-width="1" fill="none" fill-rule="evenodd">
        <g id="Landing" transform="translate(-105.000000, -46.000000)" fill="#FFFFFF" fill-rule="nonzero">
            <g id="feel-logo-black" transform="translate(105.000000, 46.000000)">
                <g id="Group" transform="translate(0.000000, 15.300000)">
                    <path d="M12.93,10.86 L12.93,11.49 L23.37,11.49 L23.37,17.67 L12.93,17.67 L12.93,33.78 L4.98,33.78 L4.98,17.67 L0,17.67 L0,11.46 L4.98,11.46 L4.98,10.89 C4.98,2.43 11.25,0.12 18.03,0.12 C20.76,0.12 24.06,0.99 24.45,1.17 L24.45,7.35 C23.67,7.05 21.57,6.39 18.93,6.39 C15.63,6.42 12.93,7.41 12.93,10.86 Z" id="Path"></path>
                    <path d="M61.29,21.39 L61.14,23.58 L33.54,23.58 C35.07,27.96 41.1,28.77 45.09,28.77 C49.62,28.77 53.94,27.72 58.17,26.37 L58.17,33.21 C53.76,34.44 49.08,35.04 44.64,35.04 C35.22,35.04 25.23,32.4 25.23,21.39 C25.23,10.02 35.88,7.68 43.26,7.68 C50.67,7.71 61.29,10.05 61.29,21.39 Z M33.63,18.93 L52.95,18.93 C52.95,17.37 51.33,14.01 43.26,14.01 C35.19,14.01 33.63,17.37 33.63,18.93 Z" id="Shape"></path>
                    <path d="M99.96,21.39 L99.81,23.58 L72.21,23.58 C73.74,27.96 79.77,28.77 83.76,28.77 C88.29,28.77 92.61,27.72 96.84,26.37 L96.84,33.21 C92.43,34.44 87.75,35.04 83.31,35.04 C73.89,35.04 63.9,32.4 63.9,21.39 C63.9,10.02 74.55,7.68 81.93,7.68 C89.34,7.71 99.96,10.05 99.96,21.39 Z M72.3,18.93 L91.62,18.93 C91.62,17.37 90,14.01 81.93,14.01 C73.86,14.01 72.3,17.37 72.3,18.93 Z" id="Shape"></path>
                    <polygon id="Path" points="103.59 1.98 111.54 1.98 111.54 33.78 103.59 33.78"></polygon>
                </g>
                <g id="Group" transform="translate(82.800000, 0.000000)">
                    <polygon id="Path" points="4.77 12.57 6.03 13.5 5.34 14.43 4.05 13.5 0 13.8 0.93 12.57 3.57 12.39 2.97 9.81 3.84 8.61"></polygon>
                    <path d="M12.18,5.1 C13.29,6.63 12.12,8.22 10.83,9.15 C9.54,10.05 7.68,10.65 6.57,9.12 C5.46,7.59 6.63,6 7.92,5.07 C9.18,4.17 11.07,3.57 12.18,5.1 Z M11.22,5.79 C10.53,4.8 9.24,5.34 8.49,5.88 C7.74,6.42 6.81,7.44 7.53,8.43 C8.22,9.42 9.51,8.88 10.26,8.34 C11.01,7.8 11.91,6.78 11.22,5.79 Z" id="Shape"></path>
                    <path d="M19.05,0.39 L19.8,2.94 C20.25,4.47 18.84,5.49 17.61,5.85 C16.38,6.21 14.64,6.12 14.19,4.59 L13.44,2.04 L14.55,1.71 L15.3,4.23 C15.57,5.13 16.68,5.1 17.34,4.92 C18,4.71 18.93,4.14 18.69,3.24 L17.94,0.72 L19.05,0.39 Z" id="Path"></path>
                    <path d="M27.81,4.89 L26.46,4.83 L25.65,3.27 L22.98,3.18 L22.92,4.71 L21.75,4.68 L21.9,0 L26.01,0.15 C26.46,0.18 26.88,0.21 27.24,0.42 C27.72,0.72 27.96,1.26 27.93,1.8 C27.9,2.43 27.54,3 26.94,3.21 L27.81,4.89 Z M23.04,1.02 L23.01,2.22 L25.77,2.31 C26.25,2.34 26.76,2.34 26.76,1.74 C26.79,1.14 26.28,1.14 25.8,1.11 L23.04,1.02 Z" id="Shape"></path>
                    <path d="M37.08,7.71 C37.68,7.89 38.16,8.01 38.46,8.04 L37.95,8.94 C37.62,8.88 37.11,8.73 36.54,8.52 C36.12,8.37 35.7,8.16 35.34,7.95 C34.05,7.23 32.7,5.76 33.63,4.11 C34.56,2.46 36.51,2.85 37.8,3.57 C38.16,3.78 38.55,4.02 38.91,4.29 C39.39,4.65 39.78,5.04 39.99,5.28 L39.48,6.18 C39.27,5.94 38.94,5.61 38.46,5.19 C38.13,4.92 37.62,4.59 37.32,4.41 C36.57,3.99 35.25,3.6 34.65,4.65 C34.05,5.7 35.07,6.63 35.82,7.05 C36.12,7.29 36.69,7.59 37.08,7.71 Z" id="Path"></path>
                    <path d="M45.12,13.53 C43.68,14.79 42,13.77 40.95,12.6 C39.9,11.43 39.12,9.6 40.56,8.37 C41.97,7.11 43.68,8.13 44.73,9.3 C45.75,10.47 46.53,12.27 45.12,13.53 Z M44.34,12.66 C45.24,11.85 44.58,10.65 43.98,9.96 C43.35,9.27 42.24,8.46 41.34,9.27 C40.44,10.08 41.07,11.28 41.7,11.97 C42.33,12.66 43.44,13.44 44.34,12.66 Z" id="Shape"></path>
                    <polygon id="Path" points="47.85 16.05 46.98 16.41 48.45 19.86 47.55 20.25 46.08 16.8 44.46 17.49 44.01 16.41 48.33 14.58 50.37 19.38 49.47 19.77"></polygon>
                    <polygon id="Path" points="50.13 23.34 49.2 23.46 49.62 27.18 48.63 27.3 48.21 23.58 46.44 23.79 46.32 22.62 50.97 22.08 51.57 27.27 50.58 27.39"></polygon>
                    <polygon id="Path" points="50.4 35.4 49.47 35.22 50.28 30.99 49.38 30.81 48.63 34.74 47.7 34.56 48.45 30.63 47.55 30.45 46.74 34.68 45.81 34.5 46.86 29.13 51.45 30.03"></polygon>
                    <polygon id="Path" points="46.8 42.99 45.96 42.54 48 38.76 47.19 38.34 45.3 41.85 44.46 41.4 46.35 37.89 45.54 37.47 43.5 41.25 42.66 40.8 45.27 36 49.38 38.22"></polygon>
                </g>
            </g>
        </g>
    </g>
</svg>