<?xml version="1.0" encoding="UTF-8"?>
<svg width="15px" height="15px" viewBox="0 0 15 15" version="1.1" xmlns="http://www.w3.org/2000/svg" xmlns:xlink="http://www.w3.org/1999/xlink">
    <title>76D1A3AA-A0D2-4F5C-B804-49DADD3DF02A</title>
    <g id="Page-1" stroke="none" stroke-width="1" fill="none" fill-rule="evenodd">
        <g id="Add-to-cart" transform="translate(-1065.000000, -54.000000)" fill="#FEFEFE">
            <g id="Group-3" transform="translate(1065.000000, 54.000000)">
                <path d="M1.95156,0.25332 L2.06676,0.35412 L7.20036,5.48892 L12.33396,0.35412 C12.80676,-0.11868 13.57356,-0.11868 14.04516,0.35412 C14.48076,0.79092 14.51556,1.47732 14.14596,1.95132 L14.04516,2.06652 L8.91156,7.20012 L14.04516,12.33372 C14.51916,12.80652 14.51916,13.57332 14.04516,14.04492 C13.60956,14.48172 12.92316,14.51532 12.44796,14.14572 L12.33396,14.04492 L7.20036,8.91132 L2.06676,14.04492 C1.59276,14.51892 0.82716,14.51892 0.35436,14.04492 C-0.08124,13.60932 -0.11604,12.92292 0.25356,12.44772 L0.35436,12.33372 L5.48796,7.20012 L0.35436,2.06652 C-0.11844,1.59252 -0.11844,0.82812 0.35436,0.35412 C0.78996,-0.08148 1.47636,-0.11628 1.95156,0.25332" id="Fill-1"></path>
            </g>
        </g>
    </g>
</svg>