<?xml version="1.0" encoding="UTF-8"?>
<svg width="28px" height="27px" viewBox="0 0 28 27" version="1.1" xmlns="http://www.w3.org/2000/svg" xmlns:xlink="http://www.w3.org/1999/xlink">
    <title>3AA7B26F-7C1B-4CEA-84EC-B9DA79858C7C</title>
    <defs>
        <polygon id="path-1" points="8e-05 -0.00012 27.448 -0.00012 27.448 26.06664 8e-05 26.06664"></polygon>
    </defs>
    <g id="Page-1" stroke="none" stroke-width="1" fill="none" fill-rule="evenodd">
        <g id="Home" transform="translate(-51.000000, -184.000000)">
            <g id="Group-3" transform="translate(51.000000, 184.000000)">
                <mask id="mask-2" fill="white">
                    <use xlink:href="#path-1"></use>
                </mask>
                <g id="Clip-2"></g>
                <path d="M5.67048,5.78028 L6.82088,5.78028 L7.02648,5.78028 L7.02648,5.57468 L7.02648,3.67108 L12.94288,3.67108 L12.94288,5.57468 L12.94288,5.78028 L13.14848,5.78028 L14.29888,5.78028 L14.50448,5.78028 L14.50448,5.57468 L14.50448,3.67108 L20.42128,3.67108 L20.42128,5.57468 L20.42128,5.78028 L20.62688,5.78028 L21.77728,5.78028 L21.98288,5.78028 L21.98288,5.57468 L21.98288,3.67108 L25.51608,3.67108 C25.72008,3.67108 25.88608,3.83668 25.88608,4.04068 L25.88608,8.20588 L1.56168,8.20588 L1.56168,4.04068 C1.56168,3.83668 1.72768,3.67108 1.93128,3.67108 L5.46488,3.67108 L5.46488,5.57468 L5.46488,5.78028 L5.67048,5.78028 Z M1.56168,9.76788 L25.88608,9.76788 L25.88608,24.13508 C25.88608,24.23348 25.84768,24.32628 25.77808,24.39588 C25.70808,24.46588 25.61528,24.50468 25.51648,24.50468 L1.93128,24.50468 C1.72768,24.50468 1.56168,24.33868 1.56168,24.13468 L1.56168,9.76788 Z M25.51648,2.10948 L21.98328,2.10948 L21.98328,0.20588 L21.98328,-0.00012 L21.77768,-0.00012 L20.62688,-0.00012 L20.42128,-0.00012 L20.42128,0.20588 L20.42128,2.10948 L14.50528,2.10948 L14.50528,0.20588 L14.50528,-0.00012 L14.29928,-0.00012 L13.14928,-0.00012 L12.94328,-0.00012 L12.94328,0.20588 L12.94328,2.10948 L7.02688,2.10948 L7.02688,0.20588 L7.02688,-0.00012 L6.82128,-0.00012 L5.67088,-0.00012 L5.46528,-0.00012 L5.46528,0.20588 L5.46528,2.10948 L1.93128,2.10948 C0.86648,2.10948 8e-05,2.97588 8e-05,4.04068 L8e-05,24.13508 C8e-05,25.20028 0.86648,26.06668 1.93128,26.06668 L25.51648,26.06668 C26.58168,26.06668 27.44808,25.20028 27.44808,24.13508 L27.44808,4.04068 C27.44808,2.97588 26.58168,2.10948 25.51648,2.10948 L25.51648,2.10948 Z" id="Fill-1" fill="#5C5C5C" mask="url(#mask-2)"></path>
            </g>
        </g>
    </g>
</svg>