<?xml version="1.0" encoding="UTF-8"?>
<svg width="17px" height="18px" viewBox="0 0 17 18" version="1.1" xmlns="http://www.w3.org/2000/svg" xmlns:xlink="http://www.w3.org/1999/xlink">
    <title>8A814051-D184-4448-A2FE-D7CBFA1A8A5D</title>
    <g id="Page-1" stroke="none" stroke-width="1" fill="none" fill-rule="evenodd">
        <g id="Profile-Hover-Icons" transform="translate(-1292.000000, -123.000000)" fill="#27C8B3">
            <g id="Profile-hover" transform="translate(1277.000000, 68.000000)">
                <g id="Group-5" transform="translate(15.000000, 55.000000)">
                    <path d="M15.7140098,15.3687834 L15.7143138,15.4101289 C15.6921206,16.121515 15.0965521,16.7146408 14.3936657,16.7146408 L2.60724632,16.7146408 C1.89098323,16.7146408 1.2859902,16.0981062 1.2859902,15.3687834 L1.2859902,3.58227078 C1.2859902,2.85507609 1.86635788,2.28535918 2.60724632,2.28535918 L9.63428592,2.28535918 L9.63428592,1 L2.60724632,1 C1.16955184,1 0,2.15889054 0,3.58318282 L0,15.3687834 C0,16.8195247 1.16955184,18 2.60724632,18 L14.3927537,18 C15.8304482,18 17,16.8195247 17,15.3687834 L17,8.36588637 L15.7140098,8.36588637 L15.7140098,15.3687834 Z" id="Fill-1"></path>
                    <path d="M15.7236241,2.08454458 C15.7236241,2.30487704 15.6379289,2.51221322 15.4819274,2.6681687 L15.2444551,2.90603105 L14.0794227,1.7387828 L14.3168949,1.50092046 C14.6116986,1.20593488 15.1877273,1.20593488 15.4819274,1.50092046 C15.6379289,1.65687594 15.7236241,1.86421212 15.7236241,2.08454458 L15.7236241,2.08454458 Z M14.3419397,3.81123781 L9.06866664,9.0928699 L7.51498828,9.48215414 L7.90333243,7.92592389 L13.1766055,2.64398956 L14.3419397,3.81123781 Z M16.3847446,0.597829372 C16.0060562,0.217612309 15.464728,0 14.8998638,0 C14.3346978,0 13.7933696,0.217612309 13.4140778,0.597829372 L6.87498988,7.14765765 C6.79261385,7.22986674 6.7349808,7.33232587 6.70691863,7.44415442 L6.01864123,10.2051106 C5.96493085,10.4212117 6.02920226,10.653936 6.18671248,10.8126116 C6.30529776,10.9316939 6.46974808,11 6.63751758,11 C6.69002098,11 6.7419209,10.993653 6.79201036,10.9809589 L9.54904262,10.2903421 C9.66038605,10.2631405 9.76297891,10.2048084 9.84595843,10.122297 L16.3847446,3.57216651 C16.7815376,3.17502404 17,2.64670971 17,2.08454458 C17,1.52207721 16.7818393,0.994065119 16.3847446,0.597829372 L16.3847446,0.597829372 Z" id="Fill-3"></path>
                </g>
            </g>
        </g>
    </g>
</svg>