<?xml version="1.0" encoding="UTF-8"?>
<svg width="34px" height="21px" viewBox="0 0 34 21" version="1.1" xmlns="http://www.w3.org/2000/svg" xmlns:xlink="http://www.w3.org/1999/xlink">
    <title>07345790-EC99-4850-8BF2-003E6DEC287C</title>
    <g id="Page-1" stroke="none" stroke-width="1" fill="none" fill-rule="evenodd">
        <g id="Buy-a-plan" transform="translate(-105.000000, -28.000000)" fill="#5C5C5C">
            <path d="M105,38.4996957 C105,38.7552935 105.158467,39.0948735 105.319362,39.2598772 L114.385961,48.6551206 C114.809348,49.0818407 115.495126,49.1311839 115.988437,48.6983453 C116.429634,48.3109024 116.440664,47.5557539 116.032759,47.1351523 L108.75483,39.6052797 L137.866751,39.6052797 C138.492826,39.6052797 139,39.1102686 139,38.5000904 C139,37.8894188 138.492421,37.3949012 137.866751,37.3949012 L108.75483,37.3949012 L116.032759,29.8650285 C116.440664,29.444427 116.411825,28.7077328 115.988437,28.3022303 C115.541776,27.8739312 114.802568,27.9121229 114.385961,28.3453563 L105.319362,37.740205 C105.052923,37.9950133 105.004351,38.2405451 105,38.5 L105,38.4996957 Z" id="Fill-1"></path>
        </g>
    </g>
</svg>