<?xml version="1.0" encoding="UTF-8"?>
<svg width="26px" height="26px" viewBox="0 0 26 26" version="1.1" xmlns="http://www.w3.org/2000/svg" xmlns:xlink="http://www.w3.org/1999/xlink">
    <title>FB1B539E-713A-4184-BDBF-8FDAC661EFD3</title>
    <defs>
        <polygon id="path-1" points="7.89243845e-07 0.04575 25.99435 0.04575 25.99435 25.05 7.89243845e-07 25.05"></polygon>
    </defs>
    <g id="Page-1" stroke="none" stroke-width="1" fill="none" fill-rule="evenodd">
        <g id="Buy-a-plan" transform="translate(-296.000000, -526.000000)">
            <g id="Group-8" transform="translate(296.000000, 526.000000)">
                <g id="Group-3" transform="translate(0.000000, 0.004250)">
                    <mask id="mask-2" fill="white">
                        <use xlink:href="#path-1"></use>
                    </mask>
                    <g id="Clip-2"></g>
                    <path d="M13.216755,2.04987 C12.826905,2.04692 12.443505,2.14832 12.106205,2.34362 C11.768905,2.53912 11.490205,2.82117 11.298805,3.16082 L2.298805,19.73182 L2.298805,19.74977 C1.908755,20.43162 1.910705,21.26952 2.304255,21.94937 C2.697805,22.62927 3.423205,23.04837 4.208755,23.0497703 L21.788755,23.0497703 C22.575105,23.05017 23.302255,22.63162 23.696955,21.95152 C24.091705,21.27127 24.094255,20.43237 23.703805,19.74977 L15.109805,3.12377 C14.917205,2.79372 14.640455,2.52027 14.308055,2.33177 C13.975655,2.14312 13.599055,2.04587 13.216855,2.04965715 L13.216755,2.04987 Z M21.788755,25.0500236 L4.208755,25.0500236 C2.710705,25.05297 1.324205,24.25787 0.570455,22.96317 C-0.183445,21.66842 -0.190495,20.07022 0.551705,18.76882 L9.551705,2.18782 L9.551705,2.18802 C10.039805,1.31967 10.820455,0.65307 11.754655,0.30717 C12.688655,-0.03873 13.715405,-0.04148 14.651155,0.29957 C15.587105,0.64057 16.371255,1.30307 16.863855,2.16892 L25.457855,18.79592 L25.457855,18.79607 C26.187555,20.09742 26.171905,21.68827 25.417055,22.97517 C24.661955,24.26212 23.280905,25.05197 21.788955,25.0500236 L21.788755,25.0500236 Z" id="Fill-1" fill="#FFAD00" mask="url(#mask-2)"></path>
                </g>
                <path d="M14.498755,19.05412 C14.498755,19.88262 13.827255,20.55412 12.998755,20.55412 C12.170255,20.55412 11.498755,19.88262 11.498755,19.05412 C11.498755,18.22562 12.170255,17.55412 12.998755,17.55412 C13.827255,17.55412 14.498755,18.22562 14.498755,19.05412" id="Fill-4" fill="#FFAD00"></path>
                <path d="M13.443755,16.11112 C13.428155,16.34532 13.233605,16.52732 12.998855,16.52732 C12.764055,16.52732 12.569555,16.34532 12.553905,16.11112 L11.327905,8.74712 L11.327705,8.74712 C11.222255,8.22952 11.345305,7.69147 11.665405,7.27132 C11.985555,6.85102 12.471655,6.58967 12.998805,6.55412 C13.525955,6.58967 14.012105,6.85102 14.332205,7.27132 C14.652355,7.69142 14.775405,8.22952 14.669905,8.74712 L13.443755,16.11112 Z" id="Fill-6" fill="#FFAD00"></path>
            </g>
        </g>
    </g>
</svg>