<?xml version="1.0" encoding="UTF-8"?>
<svg width="20px" height="20px" viewBox="0 0 20 20" version="1.1" xmlns="http://www.w3.org/2000/svg" xmlns:xlink="http://www.w3.org/1999/xlink">
    <title>302EAB10-DFED-4E84-B6C0-07FCB6525203</title>
    <g id="Page-1" stroke="none" stroke-width="1" fill="none" fill-rule="evenodd">
        <g id="New-Cupping-Session---Add-Coffee---Select-Existing-Coffee---More-Options-Copy" transform="translate(-568.000000, -447.000000)" fill="#5C5C5C">
            <g id="Group-5" transform="translate(568.000000, 447.000000)">
                <path d="M9.6,17.6 C5.1816,17.6 1.6,14.0184 1.6,9.6 C1.6,5.1816 5.1816,1.6 9.6,1.6 C14.0184,1.6 17.6,5.1816 17.6,9.6 C17.6,14.0184 14.0184,17.6 9.6,17.6 M9.6,0 C4.298,0 0,4.298 0,9.6 C0,14.902 4.298,19.2 9.6,19.2 C14.902,19.2 19.2,14.902 19.2,9.6 C19.2,4.298 14.902,0 9.6,0" id="Fill-1"></path>
                <path d="M13.20356,8.8 L10.39996,8.8 L8.79996,8.8 L5.99636,8.8 C5.55596,8.8 5.19996,9.158 5.19996,9.6 C5.19996,10.0448 5.55676,10.4 5.99636,10.4 L8.79996,10.4 L10.39996,10.4 L13.20356,10.4 C13.64396,10.4 13.99996,10.042 13.99996,9.6 C13.99996,9.1552 13.64356,8.8 13.20356,8.8" id="Fill-3"></path>
            </g>
        </g>
    </g>
</svg>