<?xml version="1.0" encoding="UTF-8"?>
<svg width="18px" height="20px" viewBox="0 0 18 20" version="1.1" xmlns="http://www.w3.org/2000/svg" xmlns:xlink="http://www.w3.org/1999/xlink">
    <title>AEC00092-516B-41A5-B79C-35005920F565</title>
    <defs>
        <polygon id="path-1" points="4e-05 8e-05 17.4848 8e-05 17.4848 19.89888 4e-05 19.89888"></polygon>
    </defs>
    <g id="Page-1" stroke="none" stroke-width="1" fill="none" fill-rule="evenodd">
        <g id="Profile-Hover" transform="translate(-1292.000000, -85.000000)">
            <g id="Profile-hover" transform="translate(1277.000000, 68.000000)">
                <g id="Group-3" transform="translate(15.000000, 17.000000)">
                    <mask id="mask-2" fill="white">
                        <use xlink:href="#path-1"></use>
                    </mask>
                    <g id="Clip-2"></g>
                    <path d="M1.52484,15.60408 C1.52484,12.93568 3.68484,10.77528 6.35364,10.77528 L10.87724,10.77528 C13.67284,10.77528 15.96004,13.06288 15.96004,15.85808 L15.96004,18.39968 L1.52484,18.39968 L1.52484,15.60408 Z M8.74244,1.55008 C10.69924,1.55008 12.30044,3.15128 12.30044,5.10808 C12.30044,7.06488 10.69924,8.66608 8.74244,8.66608 C6.78564,8.66608 5.18444,7.06488 5.18444,5.10808 C5.18444,3.15128 6.78564,1.55008 8.74244,1.55008 L8.74244,1.55008 Z M0.76244,19.89888 L16.72244,19.89888 C17.15444,19.89888 17.48484,19.56848 17.48484,19.13648 L17.48484,15.83288 C17.48484,12.42728 14.91804,9.63168 11.61404,9.27608 C12.96124,8.36128 13.82524,6.81088 13.82524,5.08288 C13.82524,2.28728 11.53804,8e-05 8.74244,8e-05 C5.94684,8e-05 3.65964,2.28728 3.65964,5.08288 C3.65964,6.81088 4.52364,8.33568 5.84524,9.25048 C2.56684,9.50488 4e-05,12.24928 4e-05,15.57848 L4e-05,19.13648 C4e-05,19.56848 0.33044,19.89888 0.76244,19.89888 L0.76244,19.89888 Z" id="Fill-1" fill="#5C5C5C" mask="url(#mask-2)"></path>
                </g>
            </g>
        </g>
    </g>
</svg>