<?xml version="1.0" encoding="UTF-8"?>
<svg width="13px" height="16px" viewBox="0 0 13 16" version="1.1" xmlns="http://www.w3.org/2000/svg" xmlns:xlink="http://www.w3.org/1999/xlink">
    <title>83C37B7D-01A9-4E98-95D5-1989092ABC85</title>
    <defs>
        <polygon id="path-1" points="0.0941666861 0.2352 9.788 0.2352 9.788 11.04 0.0941666861 11.04"></polygon>
    </defs>
    <g id="Page-1" stroke="none" stroke-width="1" fill="none" fill-rule="evenodd">
        <g id="Buy-a-plan" transform="translate(-530.000000, -462.000000)">
            <g id="Group-8" transform="translate(530.000000, 462.000000)">
                <path d="M4.16989482,14 L4.43707532,12.3466761 L3.84192182,12.3332385 L1,12.3332385 L2.97499007,0.133380732 C2.98112041,0.0965517241 3.001044,0.0622111625 3.0301631,0.0378243868 C3.0592822,0.0134376111 3.09657508,0 3.13540054,0 L7.92728023,0 C9.51810255,0 10.6159436,0.322502666 11.1891301,0.95904728 C11.4578432,1.25766086 11.6289817,1.56971205 11.7117413,1.91311767 C11.7985877,2.27344472 11.8001203,2.70394597 11.7153173,3.22900818 L11.709187,3.26733025 L11.709187,3.60376822 L11.9779001,3.75207963 C12.2042116,3.86903662 12.3840349,4.00291504 12.5219674,4.15620334 C12.751855,4.41151795 12.9005157,4.73601138 12.9633517,5.1207252 C13.028231,5.5163882 13.0067749,5.98720228 12.9005157,6.52022752 C12.777909,7.13338073 12.5796948,7.66740135 12.3120034,8.10437256 C12.0657682,8.5070032 11.7520993,8.84095272 11.3796814,9.09975116 C11.0241219,9.34560967 10.6016395,9.53224316 10.1239841,9.65168859 C9.66114373,9.76914326 9.13342393,9.82836829 8.554618,9.82836829 L8.18168919,9.82836829 C7.91501956,9.82836829 7.65601284,9.92193388 7.45269001,10.0896552 C7.24885632,10.2608603 7.11398892,10.4947743 7.07260915,10.7505866 L7.04451177,10.8993957 L6.57247586,13.8133665 L6.55101969,13.9203697 C6.54540021,13.9542126 6.53569385,13.971134 6.52138973,13.9825809 C6.50861819,13.9930323 6.49022718,14 6.47234704,14 C6.47234704,14 4.16989482,14 4.16989482,14" id="Fill-1" fill="#253B80"></path>
                <g id="Group-5" transform="translate(3.000000, 4.000000)">
                    <mask id="mask-2" fill="white">
                        <use xlink:href="#path-1"></use>
                    </mask>
                    <g id="Clip-4"></g>
                    <path d="M8.524,0.2352 L8.524,0.2352 C8.51,0.32112 8.494,0.40896 8.476,0.4992 C7.8575,3.54768 5.7415,4.6008 3.039,4.6008 L1.663,4.6008 C1.3325,4.6008 1.054,4.8312 1.0025,5.14416 L0.298,9.43344 L0.0985,10.64928 C0.065,10.85472 0.23,11.04 0.446,11.04 L2.8865,11.04 C3.1755,11.04 3.421,10.8384 3.4665,10.5648 L3.4905,10.44576 L3.95,7.6464 L3.9795,7.4928 C4.0245,7.21824 4.2705,7.01664 4.5595,7.01664 L4.9245,7.01664 C7.289,7.01664 9.14,6.09504 9.681,3.42816 C9.907,2.31408 9.79,1.38384 9.192,0.7296 C9.011,0.53232 8.7865,0.36864 8.524,0.2352" id="Fill-3" fill="#179BD7" mask="url(#mask-2)"></path>
                </g>
                <path d="M4.9761701,3.73041372 C5.0077435,3.53999255 5.1381779,3.3844577 5.31364323,3.30596347 C5.39387073,3.27010809 5.48237979,3.25024227 5.57606482,3.25024227 L9.38143668,3.25024227 C9.83226351,3.25024227 10.2530697,3.2778606 10.6371266,3.33600447 C10.7468571,3.35247857 10.8534821,3.37137533 10.957519,3.39269474 C11.0610384,3.4144987 11.1619698,3.43872531 11.2597956,3.46537458 C11.3084497,3.47894148 11.3565862,3.49299292 11.4036875,3.50704435 C11.5926103,3.56567275 11.7680756,3.63496086 11.9300834,3.71490868 C12.1205591,2.57771152 11.9285307,1.803429 11.2717003,1.10231085 C10.5475823,0.330450988 9.24065034,0 7.568295,0 L2.71323677,0 C2.37162287,0 2.08021586,0.232575475 2.02742098,0.548975028 L0.00517018349,12.548416 C-0.0346847721,12.7858367 0.160966828,13 0.41665966,13 L3.41406288,13 L4.16664866,8.53019009 L4.9761701,3.73041372 Z" id="Fill-6" fill="#253B80"></path>
            </g>
        </g>
    </g>
</svg>