<?xml version="1.0" encoding="UTF-8"?>
<svg width="21px" height="22px" viewBox="0 0 21 22" version="1.1" xmlns="http://www.w3.org/2000/svg" xmlns:xlink="http://www.w3.org/1999/xlink">
    <title>10BF9D47-D87B-41D4-A607-2FC6598B45C5</title>
    <defs>
        <polygon id="path-1" points="0 0.21272517 20.4686318 0.21272517 20.4686318 20.6829 0 20.6829"></polygon>
    </defs>
    <g id="Page-1" stroke="none" stroke-width="1" fill="none" fill-rule="evenodd">
        <g id="Profile-Hover" transform="translate(-1290.000000, -159.000000)">
            <g id="Profile-hover" transform="translate(1277.000000, 68.000000)">
                <g id="Group-6" transform="translate(13.000000, 91.000000)">
                    <g id="Group-3" transform="translate(0.000000, 0.096006)">
                        <mask id="mask-2" fill="white">
                            <use xlink:href="#path-1"></use>
                        </mask>
                        <g id="Clip-2"></g>
                        <path d="M15.9501894,12.5144202 C15.8875233,12.6891444 15.8143614,12.8647947 15.7325559,13.0367406 C15.4639869,13.6106139 15.5964192,14.3079672 16.0610127,14.7719433 L17.1297321,15.8406627 C17.1911634,15.9017853 17.224503,15.9829734 17.224503,16.0697181 C17.2241943,16.1561541 17.1908547,16.2370335 17.1300408,16.2975387 L16.0835478,17.343723 C15.9585243,17.4690552 15.7541649,17.4693639 15.6269805,17.3434143 L14.5585698,16.2750036 C14.0936676,15.8104101 13.3963143,15.6779778 12.8212062,15.9465468 C12.652656,16.0265001 12.4779318,16.0990446 12.3013554,16.1626368 C11.7003165,16.3796529 11.2968456,16.9720482 11.2968456,17.6372967 L11.2968456,19.1375787 C11.2968456,19.3153899 11.1520653,19.4601702 10.9742541,19.4601702 L9.49496373,19.4601702 C9.31715253,19.4601702 9.17237223,19.3153899 9.17237223,19.1375787 L9.17237223,17.6372967 C9.17237223,16.9717395 8.76890133,16.3796529 8.16940593,16.1635629 C7.99128603,16.0990446 7.81532703,16.0258827 7.64708553,15.9462381 C7.45198713,15.8542455 7.24207113,15.8076318 7.02289413,15.8076318 C6.61355793,15.8076318 6.20792613,15.9777255 5.91064803,16.2743862 L4.84223733,17.3431056 C4.71597903,17.4684378 4.51131093,17.4684378 4.38536133,17.3427969 L3.33917703,16.2966126 C3.21322743,16.1709717 3.21322743,15.9656862 3.33886833,15.8397366 L4.40758773,14.7719433 C4.87403343,14.3070411 5.00615703,13.6093791 4.73635323,13.0361232 C4.65578253,12.8660295 4.58323803,12.6903792 4.51995453,12.5150376 C4.30355583,11.91369 3.71116053,11.5096017 3.04529463,11.5096017 L1.54501263,11.5096017 C1.36720143,11.5096017 1.22242113,11.3648214 1.22242113,11.1870102 L1.22242113,9.70771977 C1.22242113,9.52990857 1.36720143,9.38512827 1.54501263,9.38512827 L3.04529463,9.38512827 C3.71146923,9.38512827 4.30355583,8.98134867 4.51871973,8.38092717 C4.58632503,8.19478107 4.65763473,8.02406997 4.73666193,7.85829807 C5.00523093,7.28411607 4.87279863,6.58676277 4.40789643,6.12247797 L3.33917703,5.05406727 C3.21353613,4.92842637 3.21353613,4.72375827 3.33917703,4.59811737 L4.38536133,3.55193307 C4.51038483,3.42660087 4.71567033,3.42629217 4.84223733,3.55193307 L5.91095673,4.62065247 C6.37832853,5.08709817 7.07660793,5.21860437 7.64770293,4.94910927 C7.81625313,4.86915597 7.99128603,4.79630277 8.16755373,4.73271057 C8.76859263,4.51692927 9.17237223,3.92422527 9.17237223,3.25835937 L9.17237223,1.75776867 C9.17237223,1.57995747 9.31715253,1.43517717 9.49496373,1.43517717 L10.9742541,1.43517717 C11.1520653,1.43517717 11.2968456,1.57995747 11.2968456,1.75776867 L11.2968456,3.25835937 C11.2968456,3.92391657 11.7000078,4.51600317 12.3001206,4.73178447 C12.4782405,4.79661147 12.6538908,4.86946467 12.8221323,4.94910927 C13.3956969,5.22014787 14.0924328,5.08771557 14.5585698,4.62065247 L15.6272892,3.55193307 C15.7526214,3.42598347 15.9575982,3.42660087 16.0838565,3.55193307 L17.1297321,4.59811737 C17.2556817,4.72375827 17.2556817,4.92842637 17.1297321,5.05406727 L16.0613214,6.12247797 C15.5951844,6.58768887 15.4630608,7.28535087 15.7328646,7.85860677 C15.8131266,8.02839177 15.8856711,8.20373337 15.9492633,8.37938367 C16.1653533,8.98103997 16.7580573,9.38512827 17.4236145,9.38512827 L18.9242052,9.38512827 C19.1020164,9.38512827 19.2467967,9.52990857 19.2467967,9.70771977 L19.2467967,11.1870102 C19.2467967,11.3648214 19.1020164,11.5096017 18.9242052,11.5096017 L17.4236145,11.5096017 C16.7577486,11.5096017 16.1653533,11.9133813 15.9501894,12.5144202 M20.0160771,8.61553917 C19.7243556,8.32320027 19.3363197,8.16236757 18.9242052,8.16236757 L17.4236145,8.16236757 C17.276982,8.16236757 17.1405366,8.07963597 17.0997882,7.96510827 C17.0223045,7.75087047 16.934325,7.54002837 16.8392454,7.33844727 C16.7904708,7.23441537 16.8268974,7.08716547 16.9259901,6.98807277 L17.9944008,5.91842727 C18.2855049,5.62701447 18.4463376,5.23897857 18.4463376,4.82593797 C18.4463376,4.41289737 18.2855049,4.02486147 17.9944008,3.73344867 L16.9482165,2.68726437 C16.3453254,2.08653417 15.3648942,2.08653417 14.7623118,2.68757307 L13.6935924,3.75598377 C13.594191,3.85569387 13.4472498,3.89242917 13.3447614,3.84303717 C13.1459586,3.74888367 12.9344991,3.66090417 12.7150134,3.58125957 C12.6017205,3.54081987 12.5196063,3.40499187 12.5196063,3.25835937 L12.5196063,1.75776867 C12.5196063,0.90606537 11.8262661,0.21272517 10.9742541,0.21272517 L9.49496373,0.21272517 C8.64295173,0.21272517 7.94961153,0.90606537 7.94961153,1.75776867 L7.94961153,3.25835937 C7.94961153,3.40468317 7.86657123,3.54081987 7.75204353,3.58218567 C7.52391423,3.66491727 7.31862873,3.75011847 7.12569123,3.84272847 C7.02104193,3.89150307 6.87410073,3.85538517 6.77500803,3.75598377 L5.70536253,2.68757307 C5.10247143,2.08622547 4.12234893,2.08653417 3.51976653,2.68757307 L2.47481703,3.73344867 C2.18340423,4.02486147 2.02288023,4.41289737 2.02288023,4.82593797 C2.02288023,5.23897857 2.18340423,5.62701447 2.47481703,5.91842727 L3.54415383,6.98899887 C3.64262913,7.08747417 3.67874703,7.23441537 3.62997243,7.33813857 C3.53551023,7.53817617 3.44753073,7.74932697 3.36819483,7.96696047 C3.32775513,8.08025337 3.19223583,8.16236757 3.04529463,8.16236757 L1.54501263,8.16236757 C0.69300063,8.16236757 -3.087e-05,8.85539907 -3.087e-05,9.70771977 L-3.087e-05,11.1870102 C-3.087e-05,12.0390222 0.69300063,12.7323624 1.54501263,12.7323624 L3.04529463,12.7323624 C3.19223583,12.7323624 3.32837253,12.8154027 3.36942963,12.9299304 C3.44722203,13.1444769 3.53489283,13.3556277 3.62997243,13.555974 C3.67874703,13.6600059 3.64232043,13.8075645 3.54353643,13.9066572 L2.47389093,14.9756853 C1.87254333,15.5785764 1.87254333,16.5590076 2.47389093,17.1612813 L3.52007523,18.2071569 C4.12204023,18.8085045 5.10216273,18.8085045 5.70567123,18.2071569 L6.77439063,17.1384375 C6.87317463,17.0390361 7.01949843,17.0026095 7.12383903,17.0520015 C7.32233313,17.1458463 7.53348393,17.2335171 7.75266093,17.3134704 C7.86626253,17.3545275 7.94868543,17.4903555 7.94868543,17.6372967 L7.94868543,19.1375787 C7.94868543,19.9895907 8.64202563,20.6829309 9.49403763,20.6829309 L10.9736367,20.6829309 C11.8256487,20.6829309 12.5186802,19.9895907 12.5186802,19.1375787 L12.5186802,17.6372967 C12.5186802,17.4909729 12.6014118,17.3548362 12.7156308,17.3134704 C12.9391296,17.232591 13.1505891,17.1449202 13.3432179,17.0523102 C13.4475585,17.0035356 13.594191,17.0399622 13.692975,17.1393636 L14.7616944,18.208083 C15.3633507,18.8091219 16.3437819,18.8097393 16.9475991,18.208083 L17.9937834,17.1618987 C18.595131,16.559625 18.595131,15.5788851 17.9934747,14.975994 L16.9235205,13.9063485 C16.8247365,13.8078732 16.7886186,13.6612407 16.8373932,13.5572088 C16.9333989,13.3540842 17.0213784,13.1429334 17.0988621,12.9296217 C17.1399192,12.8160201 17.2760559,12.7332885 17.4229971,12.7332885 L18.9232791,12.7332885 C19.7752911,12.7332885 20.4686318,12.0399483 20.4686318,11.1879363 L20.4686318,9.70864587 C20.46894,9.29591397 20.3081073,8.90787807 20.0160771,8.61553917" id="Fill-1" fill="#5C5C5C" mask="url(#mask-2)"></path>
                    </g>
                    <path d="M12.1336696,10.5432781 C12.1336696,11.5906972 11.2816576,12.4424005 10.2348559,12.4424005 C9.18743679,12.4424005 8.33542479,11.5906972 8.33542479,10.5432781 C8.33542479,9.49616766 9.18743679,8.64415566 10.2348559,8.64415566 C11.2816576,8.64415566 12.1336696,9.49616766 12.1336696,10.5432781 M10.2348559,7.42170366 C8.51323599,7.42170366 7.11266409,8.82196686 7.11266409,10.5432781 C7.11266409,12.2645893 8.51323599,13.6651612 10.2348559,13.6651612 C11.9561671,13.6651612 13.3564303,12.2645893 13.3564303,10.5432781 C13.3564303,8.82196686 11.9561671,7.42170366 10.2348559,7.42170366" id="Fill-4" fill="#5C5C5C"></path>
                </g>
            </g>
        </g>
    </g>
</svg>