<?xml version="1.0" encoding="UTF-8"?>
<svg width="29px" height="29px" viewBox="0 0 29 29" version="1.1" xmlns="http://www.w3.org/2000/svg" xmlns:xlink="http://www.w3.org/1999/xlink">
    <title>4920B152-8E33-49DF-978F-1622C044C1B5</title>
    <g id="Page-1" stroke="none" stroke-width="1" fill="none" fill-rule="evenodd">
        <g id="Collapse-Menu" transform="translate(-15.000000, -25.000000)" fill="#5C5C5C">
            <g id="Group-9" transform="translate(15.000000, 25.000000)">
                <path d="M14.4,26.4 C7.7724,26.4 2.4,21.0276 2.4,14.4 C2.4,7.7724 7.7724,2.4 14.4,2.4 C21.0276,2.4 26.4,7.7724 26.4,14.4 C26.4,21.0276 21.0276,26.4 14.4,26.4 M14.4,0 C6.447,0 0,6.447 0,14.4 C0,22.353 6.447,28.8 14.4,28.8 C22.353,28.8 28.8,22.353 28.8,14.4 C28.8,6.447 22.353,0 14.4,0" id="Fill-1"></path>
                <path d="M19.80534,7.42302 L15.59994,7.42302 L13.19994,7.42302 L8.99454,7.42302 C8.33394,7.42302 7.79994,7.96002 7.79994,8.62302 C7.79994,9.29022 8.33514,9.82302 8.99454,9.82302 L13.19994,9.82302 L15.59994,9.82302 L19.80534,9.82302 C20.46594,9.82302 20.99994,9.28602 20.99994,8.62302 C20.99994,7.95582 20.46534,7.42302 19.80534,7.42302" id="Fill-3"></path>
                <path d="M19.80534,13.2 L15.59994,13.2 L13.19994,13.2 L8.99454,13.2 C8.33394,13.2 7.79994,13.737 7.79994,14.4 C7.79994,15.0672 8.33514,15.6 8.99454,15.6 L13.19994,15.6 L15.59994,15.6 L19.80534,15.6 C20.46594,15.6 20.99994,15.063 20.99994,14.4 C20.99994,13.7328 20.46534,13.2 19.80534,13.2" id="Fill-5"></path>
                <path d="M19.80534,18.97698 L15.59994,18.97698 L13.19994,18.97698 L8.99454,18.97698 C8.33394,18.97698 7.79994,19.51398 7.79994,20.17698 C7.79994,20.84418 8.33514,21.37698 8.99454,21.37698 L13.19994,21.37698 L15.59994,21.37698 L19.80534,21.37698 C20.46594,21.37698 20.99994,20.83998 20.99994,20.17698 C20.99994,19.50978 20.46534,18.97698 19.80534,18.97698" id="Fill-7"></path>
            </g>
        </g>
    </g>
</svg>