<?xml version="1.0" encoding="UTF-8"?>
<svg width="31px" height="30px" viewBox="0 0 31 30" version="1.1" xmlns="http://www.w3.org/2000/svg" xmlns:xlink="http://www.w3.org/1999/xlink">
    <title>99EA2386-E3FB-4102-A375-70E904913EFC</title>
    <defs>
        <polygon id="path-1" points="0.00018 0.156285 30.68505 0.156285 30.68505 17.1 0.00018 17.1"></polygon>
    </defs>
    <g id="Page-1" stroke="none" stroke-width="1" fill="none" fill-rule="evenodd">
        <g id="Home" transform="translate(-50.000000, -299.000000)">
            <g id="Group-10" transform="translate(50.000000, 299.000000)">
                <g id="Group-3" transform="translate(0.000000, 11.031705)">
                    <mask id="mask-2" fill="white">
                        <use xlink:href="#path-1"></use>
                    </mask>
                    <g id="Clip-2"></g>
                    <path d="M23.89833,1.953135 L23.89833,4.252635 C23.89833,4.559085 23.88618,4.868685 23.86143,5.174685 C23.69808,7.291935 22.92453,9.298935 21.62268,10.981035 C19.82358,13.323285 17.22033,14.824935 14.29218,15.209235 C11.36358,15.593085 8.46108,14.814585 6.11883,13.015485 C3.41433,10.938285 1.79883,7.662285 1.79658,4.252635 L1.79658,1.953135 L23.89833,1.953135 Z M25.05438,8.277435 L25.08678,8.175735 C25.15203,7.970085 25.21368,7.763085 25.26858,7.553835 C25.29918,7.436835 25.32708,7.318935 25.35498,7.200135 C25.40223,6.996285 25.44408,6.791085 25.48143,6.584535 C25.50258,6.466635 25.52373,6.347835 25.54218,6.228135 C25.57638,6.007185 25.60113,5.784435 25.62363,5.559885 L25.63488,5.450535 C25.64253,5.382135 25.65018,5.313735 25.65513,5.245335 C25.68168,4.888035 25.69473,4.563135 25.69473,4.253085 L25.69473,3.780585 L26.27028,3.780585 C27.72828,3.809835 28.87803,4.974435 28.88838,6.431535 C28.88568,8.743635 27.00243,10.626435 24.69078,10.629135 L24.00858,10.629135 C24.01173,10.623735 24.01443,10.617885 24.01758,10.612935 L24.12873,10.416285 C24.15798,10.365435 24.18768,10.315035 24.21468,10.263285 C24.37038,9.971685 24.51213,9.678285 24.63723,9.391635 C24.65073,9.360585 24.66243,9.329085 24.67458,9.297585 L24.69753,9.238635 C24.80193,8.990685 24.89958,8.740935 24.98733,8.487585 C25.01118,8.418285 25.03278,8.347635 25.05438,8.277435 L25.05438,8.277435 Z M26.27208,1.983735 L25.69473,1.983735 L25.69473,1.054485 C25.69473,0.559485 25.29198,0.156285 24.79653,0.156285 L0.89838,0.156285 C0.40293,0.156285 0.00018,0.559035 0.00018,1.054485 L0.00018,4.253085 C0.00783,11.328435 5.77098,17.092035 12.84633,17.100135 L12.90303,17.100135 C16.74648,17.100135 20.33208,15.400035 22.76388,12.425985 L24.69123,12.425985 C27.99243,12.422385 30.68118,9.733635 30.6852521,6.432885 C30.69288,3.992535 28.71333,1.996785 26.27208,1.983735 L26.27208,1.983735 Z" id="Fill-1" fill="#5C5C5C" mask="url(#mask-2)"></path>
                </g>
                <path d="M7.32834,8.357625 L7.32789,8.358525 C7.01964,8.746425 7.08489,9.312975 7.47234,9.620775 C7.63749,9.751275 7.83414,9.814725 8.03034,9.814725 C8.29359,9.814725 8.55504,9.699975 8.73234,9.479925 C10.22184,7.616925 9.54234,6.148575 8.23554,3.933675 C7.69824,3.194325 7.84404,2.178225 8.56449,1.622475 C8.96184,1.326375 9.04419,0.762975 8.74899,0.365175 C8.45739,-0.025875 7.89894,-0.112275 7.49979,0.175275 C6.02289,1.281375 5.67459,3.345975 6.69969,4.864275 C8.02764,7.115175 8.00739,7.509375 7.32834,8.357625" id="Fill-4" fill="#5C5C5C"></path>
                <path d="M12.324015,8.357625 L12.323565,8.358525 C12.015315,8.746425 12.080565,9.312975 12.468015,9.620775 C12.633165,9.751725 12.829815,9.815175 13.026015,9.815175 C13.289265,9.815175 13.550715,9.699975 13.727565,9.479925 C15.216615,7.618275 14.538015,6.149475 13.231215,3.933675 C12.693465,3.194325 12.839715,2.178225 13.559715,1.622475 C13.752765,1.479375 13.877865,1.270125 13.912965,1.032525 C13.947615,0.794925 13.888665,0.558225 13.745115,0.366075 C13.453965,-0.026775 12.894165,-0.113175 12.495015,0.175275 C11.018115,1.281825 10.669815,3.346425 11.695365,4.864275 C13.022415,7.115625 13.002165,7.509825 12.324015,8.357625" id="Fill-6" fill="#5C5C5C"></path>
                <path d="M17.318835,8.3574 L17.318385,8.35785 C17.010135,8.7453 17.074035,9.31185 17.461485,9.621 C17.626635,9.7524 17.823735,9.81585 18.020385,9.81585 C18.284085,9.81585 18.545535,9.7011 18.722835,9.4806 C20.213235,7.6176 19.533735,6.14925 18.226485,3.93345 C17.689185,3.19455 17.834535,2.17845 18.553185,1.6236 C18.953235,1.3311 19.040085,0.7677 18.747585,0.3681 C18.605385,0.17415 18.397035,0.0477 18.159885,0.01125 C17.921385,-0.02655 17.685585,0.0324 17.490285,0.1755 C16.013835,1.28205 15.665535,3.34665 16.690635,4.8645 C18.017685,7.1163 17.997435,7.51005 17.318835,8.3574" id="Fill-8" fill="#5C5C5C"></path>
            </g>
        </g>
    </g>
</svg>