<?xml version="1.0" encoding="UTF-8"?>
<svg width="26px" height="26px" viewBox="0 0 26 26" version="1.1" xmlns="http://www.w3.org/2000/svg" xmlns:xlink="http://www.w3.org/1999/xlink">
    <title>75E9ADB7-52CB-4F46-804D-489C8E25F60B</title>
    <g id="Page-1" stroke="none" stroke-width="1" fill="none" fill-rule="evenodd">
        <g id="Home" transform="translate(-51.000000, -241.000000)" fill="#5C5C5C">
            <path d="M74.7050938,265.470469 L64.7645625,265.470469 L64.7645625,254.764156 L75.4704688,254.764156 L75.4704688,264.705094 C75.4704688,265.127187 75.1271875,265.470469 74.7050938,265.470469 M52.5295312,264.705094 L52.5295312,243.294906 C52.5295312,242.872813 52.8732187,242.529531 53.2949062,242.529531 L63.2354375,242.529531 L63.2354375,265.470875 L53.2949062,265.470875 C52.8728125,265.470469 52.5295312,265.127187 52.5295312,264.705094 M75.4704688,243.294906 L75.4704688,253.235031 L64.7645625,253.235031 L64.7645625,242.529531 L74.7050938,242.529531 C75.1271875,242.529531 75.4704688,242.872813 75.4704688,243.294906 M74.7050938,241 L53.2949062,241 C52.0294375,241 51,242.029844 51,243.294906 L51,264.7055 C51,265.970156 52.0294375,267 53.2949062,267 L74.7055,267 C75.9705625,267 77,265.970156 77,264.705094 L77,243.294906 C77,242.029844 75.9705625,241 74.7050938,241" id="Fill-1"></path>
        </g>
    </g>
</svg>